<?xml version="1.0" encoding="UTF-8"?>
<svg version="1.1" xmlns="http://www.w3.org/2000/svg" width="512" height="512">
<path d="M0 0 C3.58156903 2.78283844 6.81139719 5.77846841 10 9 C11.04607422 9.99580078 11.04607422 9.99580078 12.11328125 11.01171875 C16.50355808 15.48724368 19.48916483 20.32939594 22.3125 25.875 C22.63814941 26.51058838 22.96379883 27.14617676 23.29931641 27.80102539 C27.84670913 37.20204451 29.54333033 46.41425031 29.4375 56.8125 C29.42614014 58.38789551 29.42614014 58.38789551 29.41455078 59.99511719 C29.23974188 68.26600273 28.18952024 75.2994449 25 83 C24.57589844 84.02996094 24.15179688 85.05992187 23.71484375 86.12109375 C18.22509554 98.12513928 8.97394347 107.32491216 -0.27145386 116.53215027 C-1.27825134 117.54197674 -2.28461615 118.55223473 -3.29059136 119.56288034 C-6.0265551 122.30903615 -8.76861745 125.04902732 -11.51183057 127.78793895 C-14.48073039 130.75435549 -17.44385604 133.72653095 -20.40777588 136.69792175 C-26.20320844 142.50605785 -32.00405982 148.30875193 -37.80702029 154.1093659 C-42.52560648 158.82616436 -47.24241333 163.54473514 -51.95798111 168.26455116 C-52.63077389 168.93793913 -53.30356667 169.6113271 -53.99674711 170.30512077 C-55.36377941 171.67336489 -56.73081056 173.04161017 -58.09784056 174.4098566 C-70.89684584 187.21972008 -83.7023423 200.02307918 -96.50982989 212.82446108 C-108.21301623 224.52247641 -119.90796365 236.22868906 -131.59905837 247.93878778 C-143.62266302 259.98178608 -155.65183552 272.01919686 -167.68701851 284.05062467 C-174.4361769 290.79787377 -181.18313367 297.54728905 -187.92425156 304.30257225 C-193.66125596 310.05151069 -199.40351788 315.79513435 -205.15253268 321.53206321 C-208.08223213 324.45588902 -211.00952062 327.38202116 -213.93026352 330.31479645 C-216.60959577 333.00503764 -219.29589315 335.68812234 -221.98765446 338.36592571 C-223.40869758 339.7830988 -224.82244569 341.20757556 -226.23582447 342.63239259 C-241.86398396 358.13054511 -258.75511255 367.19852699 -281 367.375 C-307.13911895 367.14595823 -323.25175354 354.04843618 -340.92993164 336.37646484 C-342.31688982 334.99713964 -343.70424517 333.61821372 -345.09196472 332.23965454 C-348.84060053 328.51285542 -352.58274372 324.77960457 -356.32302403 321.04442167 C-358.66509008 318.70601137 -361.00844613 316.36890158 -363.35223198 314.03221512 C-371.54301845 305.86588333 -379.72810359 297.69388176 -387.90844727 289.51708984 C-395.51117263 281.91799891 -403.12692955 274.33214151 -410.74874216 266.75219953 C-417.3116307 260.22409276 -423.86477672 253.68631018 -430.41064543 247.14113772 C-434.31167666 243.24089645 -438.21651489 239.34466837 -442.13142586 235.45835495 C-445.81570098 231.80039632 -449.48762693 228.13046378 -453.150774 224.45135117 C-454.48953929 223.11078233 -455.83250722 221.77439386 -457.18017197 220.44277191 C-472.1327799 205.65723339 -483.10992288 189.37462064 -483.32983398 167.64038086 C-483.20377435 146.16585611 -477.57587523 130.52756309 -462.83203125 114.66796875 C-450.33944851 102.38464201 -432.41181085 95.77205954 -415 95.5 C-403.58185718 95.67840848 -393.02891671 98.70085021 -382.75 103.5625 C-381.84894531 103.97242188 -381.84894531 103.97242188 -380.9296875 104.390625 C-368.02688002 110.95278245 -357.50290796 124.41161523 -347.46934891 134.57774734 C-344.0473968 138.04229391 -340.61564987 141.49707205 -337.18456078 144.95256615 C-330.82110645 151.36154836 -324.46185716 157.77458301 -318.11865234 164.20361328 C-313.68061517 168.70094611 -309.23054175 173.18605087 -304.77219772 177.66324997 C-303.08116809 179.36602239 -301.39468324 181.07332085 -299.71287918 182.78520584 C-297.37026231 185.16872052 -295.01262811 187.53634235 -292.65087891 189.90087891 C-291.9619455 190.60935974 -291.27301208 191.31784058 -290.5632019 192.04779053 C-287.74035941 194.8469578 -285.63755788 196.75475167 -281.89682007 198.19369507 C-274.89577382 197.72557206 -269.72976813 190.99390257 -265.08361816 186.28375244 C-264.30432748 185.50193722 -263.5250368 184.72012199 -262.72213125 183.91461539 C-260.11532072 181.29706098 -257.51574513 178.67243746 -254.91601562 176.04785156 C-253.04671792 174.1681654 -251.17700535 172.28890152 -249.30670166 170.41021729 C-245.28021639 166.36433748 -241.25709363 162.31513949 -237.23591614 158.26398468 C-230.87099492 151.85220722 -224.495606 145.45089406 -218.11853027 139.0512085 C-215.93379356 136.85846928 -213.74912447 134.66566269 -211.56447601 132.47283554 C-210.74554738 131.65084923 -210.74554738 131.65084923 -209.91007474 130.81225713 C-203.70001764 124.5787294 -197.49210957 118.34306348 -191.28515625 112.10644531 C-190.71802357 111.53660777 -190.15089089 110.96677022 -189.56657237 110.37966487 C-180.38811916 101.15690491 -171.21742015 91.92646438 -162.04868776 82.694042 C-152.61935947 73.19977988 -143.17839906 63.7171882 -133.72754431 54.24435401 C-127.90800516 48.41042016 -122.0980635 42.56725364 -116.30038494 36.71159312 C-112.31959471 32.69260554 -108.32776209 28.68480446 -104.32734019 24.68535832 C-102.02517052 22.38306347 -99.72976656 20.07468973 -97.44420624 17.75588989 C-70.83156279 -9.2273349 -34.68341971 -22.8964763 0 0 Z " fill="#65BA69" transform="translate(483,78)"/>
<path d="M0 0 C20.82273598 -0.7419366 38.872726 1.01525838 55.3125 15.375 C56.89244082 16.89878783 58.4558753 18.43992909 60 20 C61.04607422 20.99580078 61.04607422 20.99580078 62.11328125 22.01171875 C66.50355808 26.48724368 69.48916483 31.32939594 72.3125 36.875 C72.63814941 37.51058838 72.96379883 38.14617676 73.29931641 38.80102539 C77.84670913 48.20204451 79.54333033 57.41425031 79.4375 67.8125 C79.42614014 69.38789551 79.42614014 69.38789551 79.41455078 70.99511719 C79.23974188 79.26600273 78.18952024 86.2994449 75 94 C74.57589844 95.02996094 74.15179688 96.05992187 73.71484375 97.12109375 C68.22509554 109.12513928 58.97394347 118.32491216 49.72854614 127.53215027 C48.72174866 128.54197674 47.71538385 129.55223473 46.70940864 130.56288034 C43.9734449 133.30903615 41.23138255 136.04902732 38.48816943 138.78793895 C35.51926961 141.75435549 32.55614396 144.72653095 29.59222412 147.69792175 C23.79679156 153.50605785 17.99594018 159.30875193 12.19297971 165.1093659 C7.47439352 169.82616436 2.75758667 174.54473514 -1.95798111 179.26455116 C-2.63077389 179.93793913 -3.30356667 180.6113271 -3.99674711 181.30512077 C-5.36377941 182.67336489 -6.73081056 184.04161017 -8.09784056 185.4098566 C-20.89684584 198.21972008 -33.7023423 211.02307918 -46.50982989 223.82446108 C-58.21301623 235.52247641 -69.90796365 247.22868906 -81.59905837 258.93878778 C-93.62266302 270.98178608 -105.65183552 283.01919686 -117.68701851 295.05062467 C-124.4361769 301.79787377 -131.18313367 308.54728905 -137.92425156 315.30257225 C-143.66125596 321.05151069 -149.40351788 326.79513435 -155.15253268 332.53206321 C-158.08223213 335.45588902 -161.00952062 338.38202116 -163.93026352 341.31479645 C-166.60959577 344.00503764 -169.29589315 346.68812234 -171.98765446 349.36592571 C-173.40869758 350.7830988 -174.82244569 352.20757556 -176.23582447 353.63239259 C-191.97615999 369.24178798 -208.85190234 378.26605044 -231.25 378.1875 C-234.50086548 378.14963543 -237.7501439 378.08905592 -241 378 C-241 377.34 -241 376.68 -241 376 C-240.04480469 375.78085937 -239.08960938 375.56171875 -238.10546875 375.3359375 C-219.84350164 370.94414902 -207.67913122 360.98780751 -194.55686951 347.83102417 C-193.54448923 346.82310721 -192.53168269 345.81561826 -191.51849228 344.80851567 C-188.76060678 342.06468869 -186.00888539 339.3147544 -183.25824273 336.5636692 C-180.2808352 333.58792064 -177.29772542 330.61789703 -174.31542969 327.64704895 C-167.80814866 321.16253066 -161.30825825 314.67063817 -154.80981708 308.17726278 C-150.74677153 304.11748336 -146.68209747 300.05933713 -142.6170826 296.00152969 C-131.34572465 284.7497235 -120.07593801 273.49635034 -108.81289577 262.23621941 C-107.73372154 261.15732653 -107.73372154 261.15732653 -106.63274581 260.05663783 C-105.17450147 258.59875972 -103.71625839 257.14088035 -102.25801658 255.68299972 C-101.53422121 254.95938715 -100.81042583 254.23577459 -100.06469727 253.49023438 C-99.34001246 252.76573011 -98.61532765 252.04122585 -97.86868269 251.29476692 C-86.12555381 239.55517985 -74.37072701 227.82738237 -62.61069512 216.10473011 C-50.51540669 204.04757769 -38.42955375 191.98103523 -26.35316712 179.90495026 C-19.58110276 173.13346915 -12.80518134 166.36595461 -6.01891899 159.6086998 C-0.24135139 153.8557165 5.52743164 148.09409814 11.28521843 142.32131486 C14.21881483 139.3805794 17.15618218 136.44390971 20.10475731 133.51818657 C22.81185117 130.83187173 25.50681463 128.13394445 28.19317173 125.4268973 C29.61129984 124.00369081 31.04158121 122.59262483 32.47247607 121.18225467 C42.5560014 110.9683283 49.57588383 99.66271171 54 86 C54.24492187 85.33097656 54.48984375 84.66195312 54.7421875 83.97265625 C59.7991478 68.14367779 55.18491786 49.05712142 47.96435547 34.76513672 C44.65838169 28.71394927 40.03185811 23.66367337 35 19 C34.21109375 18.20335937 34.21109375 18.20335937 33.40625 17.390625 C25.02513533 9.36464231 14.51156572 4.82592245 3.23046875 2.60546875 C2.49441406 2.40566406 1.75835937 2.20585938 1 2 C0.67 1.34 0.34 0.68 0 0 Z " fill="#4DAF50" transform="translate(433,67)"/>
</svg>
