<?xml version="1.0" encoding="UTF-8"?>
<svg version="1.1" xmlns="http://www.w3.org/2000/svg" width="512" height="512">
<path d="M0 0 C0.87180908 0.00572021 1.74361816 0.01144043 2.6418457 0.01733398 C22.68663356 0.56719101 34.46646228 14.4215632 47.68383789 27.70678711 C49.23151384 29.25502787 50.77963165 30.80282704 52.32815552 32.35021973 C56.51173039 36.53322285 60.68912767 40.72234575 64.86541295 44.91262507 C69.23801489 49.29776395 73.6163144 53.67720672 77.9940033 58.05726624 C86.27443495 66.34390396 94.54975688 74.63562489 102.82323879 82.92920071 C112.24614936 92.37449747 121.67476604 101.81408723 131.10385907 111.25321186 C150.49224681 130.66248182 169.87348442 150.07887841 189.25 169.5 C193.58539718 167.83930948 196.47217 164.53718238 199.66201782 161.30157471 C200.30358114 160.65889798 200.94514445 160.01622125 201.60614908 159.35406947 C203.75864342 157.1954945 205.90389966 155.02986566 208.04931641 152.86425781 C209.58985252 151.31661027 211.13085938 149.7694312 212.67230225 148.22268677 C215.99369879 144.88817843 219.31206153 141.55068978 222.62822342 138.21097565 C227.87574549 132.92688701 233.1319377 127.65148157 238.38973999 122.37762451 C245.76472705 114.97880551 253.13764405 107.57793332 260.50732422 100.17382812 C260.97495624 99.70401586 261.44258827 99.23420359 261.92439096 98.75015458 C268.55164245 92.09172263 275.17588121 85.4303015 281.79889505 78.76765475 C290.51331698 70.00110063 299.23425102 61.24110232 307.96458948 52.49039721 C313.18855486 47.25337284 318.40338861 42.00747529 323.61158299 36.75476885 C326.86154712 33.48126952 330.1199158 30.2162368 333.38066864 26.9534874 C334.88614669 25.44373028 336.3881999 23.93054868 337.88646317 22.41363144 C349.33710784 10.8260298 360.38757904 0.27400866 377.59423828 0.03149414 C378.84696533 0.04684204 378.84696533 0.04684204 380.125 0.0625 C381.44153564 0.07494751 381.44153564 0.07494751 382.78466797 0.08764648 C400.0681597 0.53725407 411.17311625 10.888965 422.78320312 22.5871582 C424.49908338 24.31157882 426.2328841 26.0164296 427.96875 27.72070312 C438.30036962 37.98161161 446.45658691 48.60792806 446.76928711 63.74291992 C446.76292236 64.57025635 446.75655762 65.39759277 446.75 66.25 C446.74427979 67.12180908 446.73855957 67.99361816 446.73266602 68.8918457 C446.18280899 88.93663356 432.3284368 100.71646228 419.04321289 113.93383789 C417.49497213 115.48151384 415.94717296 117.02963165 414.39978027 118.57815552 C410.21677715 122.76173039 406.02765425 126.93912767 401.83737493 131.11541295 C397.45223605 135.48801489 393.07279328 139.8663144 388.69273376 144.2440033 C380.40609604 152.52443495 372.11437511 160.79975688 363.82079929 169.07323879 C354.37550253 178.49614936 344.93591277 187.92476604 335.49678814 197.35385907 C316.08751818 216.74224681 296.67112159 236.12348442 277.25 255.5 C278.91069052 259.83539718 282.21281762 262.72217 285.44842529 265.91201782 C286.09110202 266.55358114 286.73377875 267.19514445 287.39593053 267.85614908 C289.5545055 270.00864342 291.72013434 272.15389966 293.88574219 274.29931641 C295.43338973 275.83985252 296.9805688 277.38085938 298.52731323 278.92230225 C301.86182157 282.24369879 305.19931022 285.56206153 308.53902435 288.87822342 C313.82311299 294.12574549 319.09851843 299.3819377 324.37237549 304.63973999 C331.77119449 312.01472705 339.17206668 319.38764405 346.57617188 326.75732422 C347.04598414 327.22495624 347.51579641 327.69258827 347.99984542 328.17439096 C354.65827737 334.80164245 361.3196985 341.42588121 367.98234525 348.04889505 C376.74889937 356.76331698 385.50889768 365.48425102 394.25960279 374.21458948 C399.49662716 379.43855486 404.74252471 384.65338861 409.99523115 389.86158299 C413.26873048 393.11154712 416.5337632 396.3699158 419.7965126 399.63066864 C421.30626972 401.13614669 422.81945132 402.6381999 424.33636856 404.13646317 C435.89225963 415.55577206 446.41501025 426.59557775 446.76928711 443.74291992 C446.76292236 444.57025635 446.75655762 445.39759277 446.75 446.25 C446.74427979 447.12180908 446.73855957 447.99361816 446.73266602 448.8918457 C446.24431969 466.69428886 435.48764681 477.63648752 423.59008789 489.53051758 C421.94016651 491.1848264 420.30695913 492.85452486 418.67382812 494.52539062 C408.65294206 504.65396924 399.40311191 511.72366482 384.70117188 511.87109375 C383.50041016 511.87238281 382.29964844 511.87367188 381.0625 511.875 C379.88107422 511.89949219 378.69964844 511.92398437 377.48242188 511.94921875 C361.35191993 512.00283815 352.26258898 504.62537073 341.2073822 493.69789124 C338.40123261 490.90532172 335.60834897 488.09973279 332.81616211 485.29321289 C331.26848616 483.74497213 329.72036835 482.19717296 328.17184448 480.64978027 C323.98826961 476.46677715 319.81087233 472.27765425 315.63458705 468.08737493 C311.26198511 463.70223605 306.8836856 459.32279328 302.5059967 454.94273376 C294.22556505 446.65609604 285.95024312 438.36437511 277.67676121 430.07079929 C268.25385064 420.62550253 258.82523396 411.18591277 249.39614093 401.74678814 C230.00775319 382.33751818 210.62651558 362.92112159 191.25 343.5 C186.91460282 345.16069052 184.02783 348.46281762 180.83798218 351.69842529 C180.19641886 352.34110202 179.55485555 352.98377875 178.89385092 353.64593053 C176.74135658 355.8045055 174.59610034 357.97013434 172.45068359 360.13574219 C170.91014748 361.68338973 169.36914062 363.2305688 167.82769775 364.77731323 C164.50630121 368.11182157 161.18793847 371.44931022 157.87177658 374.78902435 C152.62425451 380.07311299 147.3680623 385.34851843 142.11026001 390.62237549 C134.73527295 398.02119449 127.36235595 405.42206668 119.99267578 412.82617188 C119.52504376 413.29598414 119.05741173 413.76579641 118.57560904 414.24984542 C111.94835755 420.90827737 105.32411879 427.5696985 98.70110495 434.23234525 C89.98668302 442.99889937 81.26574898 451.75889768 72.53541052 460.50960279 C67.31144514 465.74662716 62.09661139 470.99252471 56.88841701 476.24523115 C53.63845288 479.51873048 50.3800842 482.7837632 47.11933136 486.0465126 C45.61385331 487.55626972 44.1118001 489.06945132 42.61353683 490.58636856 C29.41961332 503.93809976 19.52370033 511.83094815 0.125 512 C-1.61523438 512.061875 -1.61523438 512.061875 -3.390625 512.125 C-15.93267803 512.23723314 -24.34455471 507.46406679 -33.27587891 498.93603516 C-34.09233887 498.13214355 -34.90879883 497.32825195 -35.75 496.5 C-36.61931152 495.67677246 -37.48862305 494.85354492 -38.38427734 494.00537109 C-41.09727646 491.42730786 -43.76988514 488.81243302 -46.4375 486.1875 C-47.33533203 485.32705078 -48.23316406 484.46660156 -49.15820312 483.58007812 C-58.96555232 473.90205661 -65.83770954 463.48506547 -66.18139648 449.43286133 C-66.22531624 431.02697203 -59.63643093 420.27890053 -46.94789124 407.4573822 C-44.15514201 404.65141169 -41.34973288 401.85834906 -38.54321289 399.06616211 C-36.99497213 397.51848616 -35.44717296 395.97036835 -33.89978027 394.42184448 C-29.71677715 390.23826961 -25.52765425 386.06087233 -21.33737493 381.88458705 C-16.95223605 377.51198511 -12.57279328 373.1336856 -8.19273376 368.7559967 C0.09390396 360.47556505 8.38562489 352.20024312 16.67920071 343.92676121 C26.12449747 334.50385064 35.56408723 325.07523396 45.00321186 315.64614093 C64.41248182 296.25775319 83.82887841 276.87651558 103.25 257.5 C101.58930948 253.16460282 98.28718238 250.27783 95.05157471 247.08798218 C94.40889798 246.44641886 93.76622125 245.80485555 93.10406947 245.14385092 C90.9454945 242.99135658 88.77986566 240.84610034 86.61425781 238.70068359 C85.06661027 237.16014748 83.5194312 235.61914062 81.97268677 234.07769775 C78.63817843 230.75630121 75.30068978 227.43793847 71.96097565 224.12177658 C66.67688701 218.87425451 61.40148157 213.6180623 56.12762451 208.36026001 C48.72880551 200.98527295 41.32793332 193.61235595 33.92382812 186.24267578 C33.45401586 185.77504376 32.98420359 185.30741173 32.50015458 184.82560904 C25.84172263 178.19835755 19.1803015 171.57411879 12.51765475 164.95110495 C3.75110063 156.23668302 -5.00889768 147.51574898 -13.75960279 138.78541052 C-18.99662716 133.56144514 -24.24252471 128.34661139 -29.49523115 123.13841701 C-32.76873048 119.88845288 -36.0337632 116.6300842 -39.2965126 113.36933136 C-40.80626972 111.86385331 -42.31945132 110.3618001 -43.83636856 108.86353683 C-55.4239702 97.41289216 -65.97599134 86.36242096 -66.21850586 69.15576172 C-66.20827393 68.32061035 -66.19804199 67.48545898 -66.1875 66.625 C-66.17920166 65.74730957 -66.17090332 64.86961914 -66.16235352 63.96533203 C-65.71274593 46.6818403 -55.361035 35.57688375 -43.6628418 23.96679688 C-41.93842118 22.25091662 -40.2335704 20.5171159 -38.52929688 18.78125 C-27.38797188 7.56314665 -16.31862025 -0.12554007 0 0 Z " fill="#F44335" transform="translate(65.75,0.5)"/>
</svg>
