<?xml version="1.0" encoding="UTF-8"?>
<svg version="1.1" xmlns="http://www.w3.org/2000/svg" width="512" height="512">
<path d="M0 0 C1.23134164 1.01436514 2.43843977 2.05859777 3.625 3.125 C4.42164063 3.81851563 5.21828125 4.51203125 6.0390625 5.2265625 C19.25313706 17.48251685 26.6308338 34.49157119 27.84765625 52.40234375 C28.31954158 70.64173758 22.97260856 88.3861116 10.625 102.125 C9.93148437 102.92164063 9.23796875 103.71828125 8.5234375 104.5390625 C-3.73251685 117.75313706 -20.74157119 125.1308338 -38.65234375 126.34765625 C-56.89173758 126.81954158 -74.6361116 121.47260856 -88.375 109.125 C-89.17164063 108.43148437 -89.96828125 107.73796875 -90.7890625 107.0234375 C-104.00313706 94.76748315 -111.3808338 77.75842881 -112.59765625 59.84765625 C-113.06954158 41.60826242 -107.72260856 23.8638884 -95.375 10.125 C-94.68148437 9.32835937 -93.98796875 8.53171875 -93.2734375 7.7109375 C-68.76663989 -18.71170096 -28.72973135 -20.29001147 0 0 Z " fill="#EE4C4C" transform="translate(298.375,199.875)"/>
<path d="M0 0 C3.125 1.375 3.125 1.375 6 4 C6.69996094 4.62519531 7.39992188 5.25039062 8.12109375 5.89453125 C40.97750934 36.75327677 61.25238495 85.15130117 63.91015625 129.75 C64.32163962 144.63496367 64.18370007 159.24693467 62 174 C61.8870459 174.76924805 61.7740918 175.53849609 61.65771484 176.33105469 C58.3698923 197.50163893 51.38058625 218.27029707 41 237 C40.53464844 237.92683594 40.06929688 238.85367188 39.58984375 239.80859375 C32.14751121 254.41118793 16.02735746 281.89851055 0 288 C-5.49300522 288.65793656 -10.41438989 288.70786166 -15.5 286.4375 C-20.08666981 281.96549694 -22.21010175 278.35843492 -22.5 272 C-22.1384975 264.29183375 -18.44176751 260.31474715 -13.10546875 255.171875 C16.37720525 224.75932074 30.76493848 181.34359259 30.2109375 139.546875 C28.94583781 95.59637468 9.97164303 57.65193216 -19.46875 25.875 C-22.50744502 22.15414896 -22.33760238 18.16335918 -22.27734375 13.5703125 C-21.71093911 8.32109763 -19.26458882 5.2329741 -15.5 1.5625 C-10.31428765 -0.75255015 -5.58822019 -0.72755221 0 0 Z " fill="#EE4C4C" transform="translate(390,112)"/>
<path d="M0 0 C4.58666981 4.47200306 6.71010175 8.07906508 7 14.4375 C6.60522814 22.60434288 2.33072418 26.72196663 -3.234375 32.1015625 C-31.65361193 61.40277575 -45.9995363 104.32150797 -45.80004883 144.57495117 C-44.85406149 189.49008736 -26.13818863 228.0661218 3.96875 260.5625 C7.00744502 264.28335104 6.83760238 268.27414082 6.77734375 272.8671875 C6.21093911 278.11640237 3.76458882 281.2045259 0 284.875 C-5.18571235 287.19005015 -9.91177981 287.16505221 -15.5 286.4375 C-18.625 285.0625 -18.625 285.0625 -21.5 282.4375 C-22.54994141 281.49970703 -22.54994141 281.49970703 -23.62109375 280.54296875 C-56.47750934 249.68422323 -76.75238495 201.28619883 -79.41015625 156.6875 C-80.45327842 118.95368946 -74.66407468 82.96822857 -56.5 49.4375 C-56.03335938 48.50550781 -55.56671875 47.57351562 -55.0859375 46.61328125 C-46.14849509 29.13038951 -23.68188442 -10.57226983 0 0 Z " fill="#EE4C4C" transform="translate(137.5,113.5625)"/>
<path d="M0 0 C21.81934914 14.10497675 34.19669474 45.43988174 39.92578125 69.48046875 C47.59909908 105.68090599 41.22119983 143.61832993 21.8671875 175.20703125 C6.368829 198.20637465 6.368829 198.20637465 -3.0078125 201.95703125 C-10.53287824 202.8423331 -14.88318609 201.7181062 -20.8828125 197.08203125 C-23.79337923 193.36297376 -25.01086092 189.93444827 -25.1328125 185.20703125 C-24.09649543 178.90066276 -22.27043171 175.49015171 -17.9453125 170.89453125 C0.85247423 149.754675 10.35067181 122.59069919 9.01513672 94.32519531 C7.28794581 69.59729373 -1.90933698 47.83511196 -18.1328125 29.20703125 C-25.24836758 20.79367053 -25.24836758 20.79367053 -25.1328125 14.20703125 C-24.0684735 7.95266806 -21.81279474 4.21754355 -16.8515625 0.30078125 C-11.68753814 -2.98541607 -5.39761032 -2.62683702 0 0 Z " fill="#EE4C4C" transform="translate(347.1328125,155.79296875)"/>
<path d="M0 0 C2.91056673 3.71905749 4.12804842 7.14758298 4.25 11.875 C3.23888763 17.97212942 1.45521625 21.49514799 -2.8125 26 C-21.64356922 47.1341273 -31.23899412 74.37472155 -29.89794922 102.75683594 C-28.17075831 127.48473752 -18.97347552 149.24691929 -2.75 167.875 C4.36555508 176.28836072 4.36555508 176.28836072 4.25 182.875 C3.24672779 188.77051709 1.15274119 193.12442582 -3.66015625 196.77734375 C-8.7746551 199.46365063 -13.81772193 199.34959461 -19.3125 198 C-38.78916093 187.7395679 -51.20830871 159.16998847 -57.54638672 139.453125 C-68.89264897 102.39281685 -64.76787663 63.46493721 -46.9375 29.1875 C-40.81669164 17.82301305 -30.37594914 0.12537966 -17.875 -4.875 C-10.34993426 -5.76030185 -5.99962641 -4.63607495 0 0 Z " fill="#EE4C4C" transform="translate(185.75,159.125)"/>
</svg>
