<?xml version="1.0" encoding="UTF-8"?>
<svg version="1.1" xmlns="http://www.w3.org/2000/svg" width="512" height="512">
<path d="M0 0 C2.69948159 0.02143993 5.39630257 0.00013098 8.09570312 -0.02539062 C16.9416368 -0.03938307 24.82594292 -0.02766027 32.70507812 4.52148438 C33.3615332 4.88910889 34.01798828 5.2567334 34.69433594 5.63549805 C42.22454056 10.11832975 46.68967266 18.11972529 49.06978798 26.31597519 C50.42899299 33.17417087 50.09238934 40.21647696 50.0456543 47.18017578 C50.0448069 48.95502712 50.04528536 50.7298795 50.04698181 52.50473022 C50.04783879 57.297467 50.03026134 62.08997626 50.00925994 66.88266039 C49.99044342 71.90079613 49.98873879 76.9189377 49.98518372 81.93710327 C49.97587783 91.42829951 49.95128383 100.91939147 49.92113525 110.41054189 C49.88754581 121.2207106 49.87109381 132.03088441 49.85604894 142.84109235 C49.82473294 165.06794778 49.77200087 187.29470949 49.70507812 209.52148438 C50.62353201 209.518719 51.54198589 209.51595362 52.48827171 209.51310444 C74.85689874 209.44679374 97.22550878 209.39717902 119.59421349 209.36604786 C130.41164052 209.35059214 141.22900186 209.32952737 152.04638672 209.29516602 C161.47701202 209.26522402 170.90758973 209.24589996 180.33826125 209.23921889 C185.32973792 209.23531477 190.32107848 209.22616651 195.31251144 209.2042942 C200.01563857 209.18385323 204.71857416 209.17766592 209.42174149 209.18216133 C211.142988 209.18133953 212.86424127 209.17541939 214.58544922 209.16386795 C228.14375054 209.0773781 239.18389535 210.1269222 249.70507812 219.52148438 C256.34288077 227.30518138 259.1755984 235.6093996 259.13867188 245.70117188 C259.14391373 246.55397736 259.14915558 247.40678284 259.15455627 248.28543091 C259.16094215 250.07878538 259.15968432 251.87218194 259.15112305 253.66552734 C259.14262154 256.38260916 259.17140764 259.09757872 259.203125 261.81445312 C259.25346452 274.01821092 258.3886737 283.48458456 249.61523438 292.70507812 C238.31705711 303.44874362 227.00866938 303.96247599 212.04638672 303.86206055 C210.27153538 303.86121315 208.496683 303.86169161 206.72183228 303.86338806 C201.9290955 303.86424504 197.13658624 303.84666759 192.34390211 303.82566619 C187.32576637 303.80684967 182.3076248 303.80514504 177.28945923 303.80158997 C167.79826299 303.79228408 158.30717103 303.76769008 148.81602061 303.7375415 C138.0058519 303.70395206 127.19567809 303.68750006 116.38547015 303.67245519 C94.15861472 303.64113919 71.93185301 303.58840712 49.70507812 303.52148438 C49.7078435 304.43993826 49.71060888 305.35839214 49.71345806 306.30467796 C49.77976876 328.67330499 49.82938348 351.04191503 49.86051464 373.41061974 C49.87597036 384.22804677 49.89703513 395.04540811 49.93139648 405.86279297 C49.96133848 415.29341827 49.98066254 424.72399598 49.98734361 434.1546675 C49.99124773 439.14614417 50.00039599 444.13748473 50.0222683 449.12891769 C50.04270927 453.83204482 50.04889658 458.53498041 50.04440117 463.23814774 C50.04522297 464.95939425 50.05114311 466.68064752 50.06269455 468.40185547 C50.15301353 482.56041751 48.9419613 492.85947174 38.88867188 503.43164062 C28.97692878 512.86281436 18.42326396 513.16600177 5.41015625 513.04296875 C2.71067466 513.02152882 0.01385368 513.04283777 -2.68554688 513.06835938 C-14.83571944 513.08884208 -24.30417981 512.16116016 -33.47851562 503.43164062 C-44.22218112 492.13346336 -44.73591349 480.82507563 -44.63549805 465.86279297 C-44.63465065 464.08794163 -44.63512911 462.31308925 -44.63682556 460.53823853 C-44.63768254 455.74550175 -44.62010509 450.95299249 -44.59910369 446.16030836 C-44.58028717 441.14217262 -44.57858254 436.12403105 -44.57502747 431.10586548 C-44.56572158 421.61466924 -44.54112758 412.12357728 -44.510979 402.63242686 C-44.47738956 391.82225815 -44.46093756 381.01208434 -44.44589269 370.2018764 C-44.41457669 347.97502097 -44.36184462 325.74825926 -44.29492188 303.52148438 C-45.21337576 303.52424975 -46.13182964 303.52701513 -47.07811546 303.52986431 C-69.44674249 303.59617501 -91.81535253 303.64578973 -114.18405724 303.67692089 C-125.00148427 303.69237661 -135.81884561 303.71344138 -146.63623047 303.74780273 C-156.06685577 303.77774473 -165.49743348 303.79706879 -174.928105 303.80374986 C-179.91958167 303.80765398 -184.91092223 303.81680224 -189.90235519 303.83867455 C-194.60548232 303.85911552 -199.30841791 303.86530283 -204.01158524 303.86080742 C-205.73283175 303.86162922 -207.45408502 303.86754936 -209.17529297 303.8791008 C-223.33385501 303.96941978 -233.63290924 302.75836755 -244.20507812 292.70507812 C-253.63625186 282.79333503 -253.93943927 272.23967021 -253.81640625 259.2265625 C-253.79496632 256.52708091 -253.81627527 253.83025993 -253.84179688 251.13085938 C-253.85578932 242.2849257 -253.84406652 234.40061958 -249.29492188 226.52148438 C-248.92729736 225.8650293 -248.55967285 225.20857422 -248.1809082 224.53222656 C-243.6980765 217.00202194 -235.69668096 212.53688984 -227.50043106 210.15677452 C-220.64223538 208.79756951 -213.59992929 209.13417316 -206.63623047 209.1809082 C-204.86137913 209.1817556 -203.08652675 209.18127714 -201.31167603 209.17958069 C-196.51893925 209.17872371 -191.72642999 209.19630116 -186.93374586 209.21730256 C-181.91561012 209.23611908 -176.89746855 209.23782371 -171.87930298 209.24137878 C-162.38810674 209.25068467 -152.89701478 209.27527867 -143.40586436 209.30542725 C-132.59569565 209.33901669 -121.78552184 209.35546869 -110.9753139 209.37051356 C-88.74845847 209.40182956 -66.52169676 209.45456163 -44.29492188 209.52148438 C-44.29768725 208.60303049 -44.30045263 207.68457661 -44.30330181 206.73829079 C-44.36961251 184.36966376 -44.41922723 162.00105372 -44.45035839 139.63234901 C-44.46581411 128.81492198 -44.48687888 117.99756064 -44.52124023 107.18017578 C-44.55118223 97.74955048 -44.57050629 88.31897277 -44.57718736 78.88830125 C-44.58109148 73.89682458 -44.59023974 68.90548402 -44.61211205 63.91405106 C-44.63255302 59.21092393 -44.63874033 54.50798834 -44.63424492 49.80482101 C-44.63506672 48.0835745 -44.64098686 46.36232123 -44.6525383 44.64111328 C-44.74285728 30.48255124 -43.53180505 20.18349701 -33.47851562 9.61132812 C-23.56677253 0.18015439 -13.01310771 -0.12303302 0 0 Z " fill="#4BAE50" transform="translate(253.294921875,-0.521484375)"/>
</svg>
