<?xml version="1.0" encoding="UTF-8"?>
<svg version="1.1" xmlns="http://www.w3.org/2000/svg" width="512" height="512">
<path d="M0 0 C1.13928955 0.00902344 2.2785791 0.01804688 3.45239258 0.02734375 C25.02100818 0.46943053 42.9546213 9.59817727 57.8125 25.0625 C66.76902302 35.38231678 73.0186633 47.93530335 75.1875 61.4375 C75.75403353 61.43381283 76.32056705 61.43012566 76.90426826 61.42632675 C90.70093301 61.33791893 104.49754801 61.27201838 118.2944355 61.23025131 C124.96659324 61.209374 131.63850685 61.18105316 138.31054688 61.13574219 C144.74906296 61.0922906 151.18738239 61.06836395 157.62603378 61.05799103 C160.08284476 61.05059852 162.53964493 61.03616282 164.99637222 61.01457977 C168.4367832 60.98555603 171.87638089 60.98154372 175.31689453 60.98339844 C176.33325485 60.96901733 177.34961517 60.95463623 178.39677429 60.93981934 C184.14520064 60.97336634 187.75035691 61.39658728 192.1875 65.4375 C196.27249285 70.01604782 195.58945105 75.39069981 195.52807617 81.19458008 C195.52851425 82.27795654 195.52895233 83.36133301 195.52940369 84.47753906 C195.52731566 88.05422053 195.50398319 91.63043178 195.48046875 95.20703125 C195.47487287 97.68852991 195.47060273 100.17003188 195.46760559 102.65153503 C195.45615631 109.17985194 195.42668808 115.70796832 195.39349365 122.23620605 C195.36117254 128.8989687 195.34910061 135.56178968 195.33398438 142.22460938 C195.30181875 155.29565842 195.25119855 168.36656854 195.1875 181.4375 C195.86192642 181.56256927 196.53635284 181.68763855 197.23121643 181.8164978 C198.12243698 181.98710724 199.01365753 182.15771667 199.93188477 182.33349609 C201.2528994 182.58297501 201.2528994 182.58297501 202.6006012 182.8374939 C206.40305262 183.71943565 209.68371392 185.25664209 213.125 187.0625 C213.80812256 187.41368896 214.49124512 187.76487793 215.19506836 188.12670898 C221.2901073 191.34069111 226.86636956 195.04958636 232.1875 199.4375 C232.81785156 199.95441406 233.44820313 200.47132813 234.09765625 201.00390625 C246.28848414 212.08395255 254.9339228 230.37369383 256.49121094 246.60253906 C256.62335837 249.82475064 256.65577347 253.02527738 256.625 256.25 C256.61597656 257.38928955 256.60695313 258.5285791 256.59765625 259.70239258 C256.15556947 281.27100818 247.02682273 299.2046213 231.5625 314.0625 C212.8420173 330.26401867 191.26853957 333.77682794 167.1875 332.4375 C149.28302093 330.37376727 131.85525672 318.55006696 120.3515625 305.2578125 C113.53546992 296.374746 105.1875 282.97191992 105.1875 271.4375 C35.8875 271.4375 -33.4125 271.4375 -104.8125 271.4375 C-105.4725 274.7375 -106.1325 278.0375 -106.8125 281.4375 C-107.94093646 284.21091074 -109.05739645 286.74504163 -110.4375 289.375 C-110.78868896 290.05812256 -111.13987793 290.74124512 -111.50170898 291.44506836 C-114.71569111 297.5401073 -118.42458636 303.11636956 -122.8125 308.4375 C-123.32941406 309.06785156 -123.84632813 309.69820313 -124.37890625 310.34765625 C-134.75962592 321.76904958 -150.07265006 328.48953001 -164.8125 331.4375 C-164.8125 361.1375 -164.8125 390.8375 -164.8125 421.4375 C-135.1125 421.4375 -105.4125 421.4375 -74.8125 421.4375 C-74.1525 418.1375 -73.4925 414.8375 -72.8125 411.4375 C-71.68406354 408.66408926 -70.56760355 406.12995837 -69.1875 403.5 C-68.83631104 402.81687744 -68.48512207 402.13375488 -68.12329102 401.42993164 C-64.90930889 395.3348927 -61.20041364 389.75863044 -56.8125 384.4375 C-56.29558594 383.80714844 -55.77867187 383.17679687 -55.24609375 382.52734375 C-44.16604745 370.33651586 -25.87630617 361.6910772 -9.64746094 360.13378906 C-6.42524936 360.00164163 -3.22472262 359.96922653 0 360 C1.13928955 360.00902344 2.2785791 360.01804687 3.45239258 360.02734375 C25.02100818 360.46943053 42.9546213 369.59817727 57.8125 385.0625 C66.80067833 395.41879043 72.93373252 407.91489511 75.1875 421.4375 C103.5675 421.4375 131.9475 421.4375 161.1875 421.4375 C161.1875 410.5475 161.1875 399.6575 161.1875 388.4375 C164.28108704 382.25032592 166.46780136 378.67739955 173.1875 376.4375 C182.97303153 375.23927165 190.45291301 381.43343476 197.890625 387.01171875 C201.96644916 390.04802786 206.17447318 392.89012913 210.375 395.75 C211.19524658 396.30937256 212.01549316 396.86874512 212.8605957 397.44506836 C214.51242143 398.57120262 216.16451907 399.69693814 217.81689453 400.82226562 C223.26803612 404.53645231 228.70691689 408.26791304 234.13134766 412.02099609 C236.36658555 413.56087383 238.61125759 415.08651592 240.85546875 416.61328125 C242.40400434 417.67916685 243.95218982 418.74556129 245.5 419.8125 C246.22396973 420.30049072 246.94793945 420.78848145 247.69384766 421.29125977 C251.47557116 423.9173312 254.36773105 426.05783218 256.1875 430.4375 C256.62109375 433.33984375 256.62109375 433.33984375 256.625 436.375 C256.64433594 437.37402344 256.66367187 438.37304688 256.68359375 439.40234375 C255.81991986 444.68639579 253.09308414 447.95957702 248.859375 451.04296875 C247.55954376 451.91487201 246.25177941 452.77503166 244.9375 453.625 C243.49459131 454.58693912 242.05188868 455.54918738 240.609375 456.51171875 C239.87396484 456.99688965 239.13855469 457.48206055 238.38085938 457.98193359 C234.95290304 460.25680844 231.57188239 462.59852224 228.1875 464.9375 C226.85050283 465.85712337 225.51326271 466.77639362 224.17578125 467.6953125 C220.89562976 469.95036663 217.61624691 472.20653558 214.3371582 474.46313477 C213.03278241 475.36014671 211.7279345 476.25647254 210.42260742 477.15209961 C206.65131923 479.73974939 202.88837403 482.33878402 199.1328125 484.94921875 C197.42191899 486.13287608 195.71098219 487.31647085 194 488.5 C193.19780029 489.06058105 192.39560059 489.62116211 191.5690918 490.19873047 C185.42058147 494.44047801 180.90531958 497.11450172 173.1875 496.4375 C167.9284029 494.54422504 165.39741406 491.83966785 162.1875 487.4375 C158.39130307 476.04890922 161.1875 463.44212874 161.1875 451.4375 C132.8075 451.4375 104.4275 451.4375 75.1875 451.4375 C74.5275 454.7375 73.8675 458.0375 73.1875 461.4375 C72.05906354 464.21091074 70.94260355 466.74504163 69.5625 469.375 C69.21131104 470.05812256 68.86012207 470.74124512 68.49829102 471.44506836 C65.28430889 477.5401073 61.57541364 483.11636956 57.1875 488.4375 C56.67058594 489.06785156 56.15367187 489.69820313 55.62109375 490.34765625 C44.53810688 502.54171949 26.24053951 511.19130037 10.00634766 512.74121094 C6.76870533 512.87319758 3.5526317 512.90580797 0.3125 512.875 C-1.40138916 512.86146484 -1.40138916 512.86146484 -3.14990234 512.84765625 C-24.28872978 512.41410104 -42.86886347 502.95003065 -57.4375 487.8125 C-65.29147577 478.73741139 -74.8125 463.90621834 -74.8125 451.4375 C-75.37903353 451.44118717 -75.94556705 451.44487434 -76.52926826 451.44867325 C-90.32593301 451.53708107 -104.12254801 451.60298162 -117.9194355 451.64474869 C-124.59159324 451.665626 -131.26350685 451.69394684 -137.93554688 451.73925781 C-144.37406296 451.7827094 -150.81238239 451.80663605 -157.25103378 451.81700897 C-159.70784476 451.82440148 -162.16464493 451.83883718 -164.62137222 451.86042023 C-168.0617832 451.88944397 -171.50138089 451.89345628 -174.94189453 451.89160156 C-175.95825485 451.90598267 -176.97461517 451.92036377 -178.02177429 451.93518066 C-183.77020064 451.90163366 -187.37535691 451.47841272 -191.8125 447.4375 C-195.89749285 442.85895218 -195.21445105 437.48430019 -195.15307617 431.68041992 C-195.15373329 430.05535522 -195.15373329 430.05535522 -195.15440369 428.39746094 C-195.15231566 424.82077947 -195.12898319 421.24456822 -195.10546875 417.66796875 C-195.09987287 415.18647009 -195.09560273 412.70496812 -195.09260559 410.22346497 C-195.08115631 403.69514806 -195.05168808 397.16703168 -195.01849365 390.63879395 C-194.98617254 383.9760313 -194.97410061 377.31321032 -194.95898438 370.65039062 C-194.92681875 357.57934158 -194.87619855 344.50843146 -194.8125 331.4375 C-195.48692642 331.31243073 -196.16135284 331.18736145 -196.85621643 331.0585022 C-197.74743698 330.88789276 -198.63865753 330.71728333 -199.55688477 330.54150391 C-200.43756119 330.37518463 -201.31823761 330.20886536 -202.2256012 330.0375061 C-206.02805262 329.15556435 -209.30871392 327.61835791 -212.75 325.8125 C-213.43312256 325.46131104 -214.11624512 325.11012207 -214.82006836 324.74829102 C-220.9151073 321.53430889 -226.49136956 317.82541364 -231.8125 313.4375 C-232.75802734 312.66212891 -232.75802734 312.66212891 -233.72265625 311.87109375 C-245.68192821 301.00150488 -254.82465849 282.54535467 -256.03198242 266.52514648 C-256.89449665 243.36745329 -253.30509125 223.70983549 -237.921875 205.703125 C-224.61974329 191.4156502 -206.65573284 180.82059345 -186.7734375 180.1015625 C-161.97319194 179.75719263 -142.64727228 185.24036956 -124.484375 202.671875 C-114.20871065 213.36695422 -107.25112496 226.80575027 -104.8125 241.4375 C-35.5125 241.4375 33.7875 241.4375 105.1875 241.4375 C105.8475 238.1375 106.5075 234.8375 107.1875 231.4375 C108.31593646 228.66408926 109.43239645 226.12995837 110.8125 223.5 C111.33928345 222.47531616 111.33928345 222.47531616 111.87670898 221.42993164 C115.09069111 215.3348927 118.79958636 209.75863044 123.1875 204.4375 C123.70441406 203.80714844 124.22132813 203.17679688 124.75390625 202.52734375 C135.13462592 191.10595042 150.44765006 184.38546999 165.1875 181.4375 C165.1875 151.7375 165.1875 122.0375 165.1875 91.4375 C135.4875 91.4375 105.7875 91.4375 75.1875 91.4375 C74.5275 94.7375 73.8675 98.0375 73.1875 101.4375 C72.05906354 104.21091074 70.94260355 106.74504163 69.5625 109.375 C69.21131104 110.05812256 68.86012207 110.74124512 68.49829102 111.44506836 C65.28430889 117.5401073 61.57541364 123.11636956 57.1875 128.4375 C56.67058594 129.06785156 56.15367187 129.69820312 55.62109375 130.34765625 C44.53810688 142.54171949 26.24053951 151.19130037 10.00634766 152.74121094 C6.76870533 152.87319758 3.5526317 152.90580797 0.3125 152.875 C-0.83009277 152.86597656 -1.97268555 152.85695312 -3.14990234 152.84765625 C-24.28872978 152.41410104 -42.86886347 142.95003065 -57.4375 127.8125 C-68.02503261 115.57884925 -74.35345861 100.36621586 -76.8125 84.4375 C-77.49892578 85.46423828 -77.49892578 85.46423828 -78.19921875 86.51171875 C-81.82996944 90.57663993 -86.09462305 93.26020325 -90.625 96.25 C-92.62184049 97.58873059 -94.61791033 98.92861126 -96.61328125 100.26953125 C-97.64018066 100.95740723 -98.66708008 101.6452832 -99.72509766 102.35400391 C-104.62550281 105.660983 -109.46702279 109.05081365 -114.3125 112.4375 C-116.22257291 113.76183895 -118.13272939 115.08605739 -120.04296875 116.41015625 C-123.98986034 119.1518183 -127.9023112 121.93607095 -131.80078125 124.74609375 C-133.74202014 126.12263188 -135.68342068 127.49894208 -137.625 128.875 C-138.5015625 129.52017578 -139.378125 130.16535156 -140.28125 130.83007812 C-145.98031131 134.83163955 -150.7580182 136.82677197 -157.8125 136.4375 C-162.91003927 135.32235581 -165.93519909 132.75345137 -168.8125 128.4375 C-170.37227064 125.31795872 -169.93354126 122.00790616 -169.91015625 118.5859375 C-169.9087413 117.81190582 -169.90732635 117.03787415 -169.90586853 116.24038696 C-169.90026403 113.76438558 -169.88771083 111.28847412 -169.875 108.8125 C-169.86998558 107.13541797 -169.86542257 105.45833453 -169.86132812 103.78125 C-169.85029315 99.66663194 -169.83302554 95.55208122 -169.8125 91.4375 C-170.78849655 91.45082367 -170.78849655 91.45082367 -171.78421021 91.4644165 C-178.56503502 91.55300834 -185.34569504 91.61328373 -192.12695312 91.65722656 C-194.65664347 91.67732405 -197.18628746 91.70460668 -199.71582031 91.73925781 C-203.35493417 91.78785556 -206.993433 91.81048812 -210.6328125 91.828125 C-211.76115509 91.84877014 -212.88949768 91.86941528 -214.05203247 91.89068604 C-220.29535415 91.89246444 -224.07881693 91.65932631 -228.8125 87.4375 C-231.66784157 84.23096669 -233.06375908 80.71584377 -233.3125 76.4375 C-232.98426726 70.79189682 -230.63079999 67.05918583 -226.48242188 63.359375 C-221.68486982 60.23985954 -216.14845 60.94595608 -210.6328125 61.046875 C-209.4649118 61.05253479 -208.29701111 61.05819458 -207.09371948 61.06402588 C-203.37455746 61.08636244 -199.65636938 61.13655658 -195.9375 61.1875 C-193.41147228 61.20756839 -190.88542941 61.22581856 -188.359375 61.2421875 C-182.17675272 61.28621847 -175.99469596 61.35310469 -169.8125 61.4375 C-169.8439209 59.89425049 -169.8439209 59.89425049 -169.87597656 58.31982422 C-169.94864994 54.48451787 -169.99439821 50.64927178 -170.03222656 46.81347656 C-170.05228009 45.15679675 -170.07953029 43.50018718 -170.11425781 41.84375 C-170.16305512 39.45555242 -170.18553064 37.06829453 -170.203125 34.6796875 C-170.22377014 33.94507294 -170.24441528 33.21045837 -170.26568604 32.45358276 C-170.26791559 27.28585512 -169.03755666 24.43125635 -165.8125 20.4375 C-162.60348773 17.63989956 -159.51854345 16.52575543 -155.3125 16 C-146.92875008 17.04796874 -140.7754831 22.02776787 -134.0625 26.8125 C-132.00436003 28.26236312 -129.94575951 29.71157268 -127.88671875 31.16015625 C-126.86368652 31.88219238 -125.8406543 32.60422852 -124.78662109 33.34814453 C-120.50856634 36.35352892 -116.19528025 39.30578242 -111.875 42.25 C-110.33723716 43.30077771 -108.79947671 44.3515589 -107.26171875 45.40234375 C-105.03848512 46.91992759 -102.81439706 48.43621017 -100.58837891 49.94970703 C-78.57111469 64.92027061 -78.57111469 64.92027061 -76.8125 68.4375 C-76.6165625 67.3959375 -76.420625 66.354375 -76.21875 65.28125 C-73.08183458 49.81138057 -66.90219382 36.67305917 -56.8125 24.4375 C-56.03712891 23.49197266 -56.03712891 23.49197266 -55.24609375 22.52734375 C-41.46134311 7.36066322 -19.99731656 -0.19083401 0 0 Z " fill="#0095FE" transform="translate(255.8125,-0.4375)"/>
<path d="M0 0 C16.55873725 12.64299258 27.05056227 30.46199388 30.15234375 51.0546875 C30.40865349 54.54010667 30.43968097 57.99858218 30.40234375 61.4921875 C30.39557617 62.41306152 30.38880859 63.33393555 30.38183594 64.28271484 C30.06803345 84.90975484 22.15328472 102.5101499 7.91015625 117.3984375 C-1.38709876 126.29941607 -17.34598252 137.0546875 -30.84765625 137.0546875 C-30.84765625 166.7546875 -30.84765625 196.4546875 -30.84765625 227.0546875 C-1.14765625 227.0546875 28.55234375 227.0546875 59.15234375 227.0546875 C59.81234375 223.7546875 60.47234375 220.4546875 61.15234375 217.0546875 C62.28078021 214.28127676 63.3972402 211.74714587 64.77734375 209.1171875 C65.3041272 208.09250366 65.3041272 208.09250366 65.84155273 207.04711914 C69.05553486 200.9520802 72.76443011 195.37581794 77.15234375 190.0546875 C77.66925781 189.42433594 78.18617188 188.79398438 78.71875 188.14453125 C89.7987963 175.95370336 108.08853758 167.3082647 124.31738281 165.75097656 C127.53959439 165.61882913 130.74012113 165.58641403 133.96484375 165.6171875 C135.1041333 165.62621094 136.24342285 165.63523437 137.41723633 165.64453125 C158.98585193 166.08661803 176.91946505 175.21536477 191.77734375 190.6796875 C200.76552208 201.03597793 206.89857627 213.53208261 209.15234375 227.0546875 C237.53234375 227.0546875 265.91234375 227.0546875 295.15234375 227.0546875 C295.15234375 216.1646875 295.15234375 205.2746875 295.15234375 194.0546875 C298.24593079 187.86751342 300.43264511 184.29458705 307.15234375 182.0546875 C316.93787528 180.85645915 324.41775676 187.05062226 331.85546875 192.62890625 C335.93129291 195.66521536 340.13931693 198.50731663 344.33984375 201.3671875 C345.16009033 201.92656006 345.98033691 202.48593262 346.82543945 203.06225586 C348.47726518 204.18839012 350.12936282 205.31412564 351.78173828 206.43945312 C357.23287987 210.15363981 362.67176064 213.88510054 368.09619141 217.63818359 C370.3314293 219.17806133 372.57610134 220.70370342 374.8203125 222.23046875 C376.36884809 223.29635435 377.91703357 224.36274879 379.46484375 225.4296875 C380.18881348 225.91767822 380.9127832 226.40566895 381.65869141 226.90844727 C385.44041491 229.5345187 388.3325748 231.67501968 390.15234375 236.0546875 C390.5859375 238.95703125 390.5859375 238.95703125 390.58984375 241.9921875 C390.60917969 242.99121094 390.62851562 243.99023438 390.6484375 245.01953125 C389.78476361 250.30358329 387.05792789 253.57676452 382.82421875 256.66015625 C381.52438751 257.53205951 380.21662316 258.39221916 378.90234375 259.2421875 C377.45943506 260.20412662 376.01673243 261.16637488 374.57421875 262.12890625 C373.83880859 262.61407715 373.10339844 263.09924805 372.34570312 263.59912109 C368.91774679 265.87399594 365.53672614 268.21570974 362.15234375 270.5546875 C360.81534658 271.47431087 359.47810646 272.39358112 358.140625 273.3125 C354.86047351 275.56755413 351.58109066 277.82372308 348.30200195 280.08032227 C346.99762616 280.97733421 345.69277825 281.87366004 344.38745117 282.76928711 C340.61616298 285.35693689 336.85321778 287.95597152 333.09765625 290.56640625 C331.38676274 291.75006358 329.67582594 292.93365835 327.96484375 294.1171875 C327.16264404 294.67776855 326.36044434 295.23834961 325.53393555 295.81591797 C319.38542522 300.05766551 314.87016333 302.73168922 307.15234375 302.0546875 C301.89324665 300.16141254 299.36225781 297.45685535 296.15234375 293.0546875 C292.35614682 281.66609672 295.15234375 269.05931624 295.15234375 257.0546875 C266.77234375 257.0546875 238.39234375 257.0546875 209.15234375 257.0546875 C208.49234375 260.3546875 207.83234375 263.6546875 207.15234375 267.0546875 C206.02390729 269.82809824 204.9074473 272.36222913 203.52734375 274.9921875 C203.17615479 275.67531006 202.82496582 276.35843262 202.46313477 277.06225586 C199.24915264 283.1572948 195.54025739 288.73355706 191.15234375 294.0546875 C190.63542969 294.68503906 190.11851562 295.31539063 189.5859375 295.96484375 C178.50295063 308.15890699 160.20538326 316.80848787 143.97119141 318.35839844 C140.73354908 318.49038508 137.51747545 318.52299547 134.27734375 318.4921875 C132.56345459 318.47865234 132.56345459 318.47865234 130.81494141 318.46484375 C109.67611397 318.03128854 91.09598028 308.56721815 76.52734375 293.4296875 C68.67336798 284.35459889 59.15234375 269.52340584 59.15234375 257.0546875 C58.58581022 257.05837467 58.0192767 257.06206184 57.43557549 257.06586075 C43.63891074 257.15426857 29.84229574 257.22016912 16.04540825 257.26193619 C9.37325051 257.2828135 2.7013369 257.31113434 -3.97070312 257.35644531 C-10.40921921 257.3998969 -16.84753864 257.42382355 -23.28619003 257.43419647 C-25.74300101 257.44158898 -28.19980118 257.45602468 -30.65652847 257.47760773 C-34.09693945 257.50663147 -37.53653714 257.51064378 -40.97705078 257.50878906 C-41.9934111 257.52317017 -43.00977142 257.53755127 -44.05693054 257.55236816 C-49.80535689 257.51882116 -53.41051316 257.09560022 -57.84765625 253.0546875 C-61.9326491 248.47613968 -61.2496073 243.10148769 -61.18823242 237.29760742 C-61.18888954 235.67254272 -61.18888954 235.67254272 -61.18955994 234.01464844 C-61.18747191 230.43796697 -61.16413944 226.86175572 -61.140625 223.28515625 C-61.13502912 220.80365759 -61.13075898 218.32215562 -61.12776184 215.84065247 C-61.11631256 209.31233556 -61.08684433 202.78421918 -61.0536499 196.25598145 C-61.02132879 189.5932188 -61.00925686 182.93039782 -60.99414062 176.26757812 C-60.961975 163.19652908 -60.9113548 150.12561896 -60.84765625 137.0546875 C-61.52208267 136.92961823 -62.19650909 136.80454895 -62.89137268 136.6756897 C-63.78259323 136.50508026 -64.67381378 136.33447083 -65.59204102 136.15869141 C-66.47271744 135.99237213 -67.35339386 135.82605286 -68.26075745 135.6546936 C-72.06320887 134.77275185 -75.34387017 133.23554541 -78.78515625 131.4296875 C-79.46827881 131.07849854 -80.15140137 130.72730957 -80.85522461 130.36547852 C-86.95026355 127.15149639 -92.52652581 123.44260114 -97.84765625 119.0546875 C-98.79318359 118.27931641 -98.79318359 118.27931641 -99.7578125 117.48828125 C-111.71708446 106.61869238 -120.85981474 88.16254217 -122.06713867 72.14233398 C-122.9296529 48.98464079 -119.3402475 29.32702299 -103.95703125 11.3203125 C-76.40960991 -18.26765857 -33.34011171 -22.77554956 0 0 Z " fill="#00E87A" transform="translate(121.84765625,193.9453125)"/>
<path d="M0 0 C1.13928955 0.00902344 2.2785791 0.01804688 3.45239258 0.02734375 C25.02100818 0.46943053 42.9546213 9.59817727 57.8125 25.0625 C73.40847372 43.03237415 77.48961494 64.26442296 76.1875 87.4375 C74.63726527 102.7863587 66.88687453 116.67527281 57.1875 128.4375 C56.67058594 129.06785156 56.15367187 129.69820312 55.62109375 130.34765625 C44.53810688 142.54171949 26.24053951 151.19130037 10.00634766 152.74121094 C6.76870533 152.87319758 3.5526317 152.90580797 0.3125 152.875 C-0.83009277 152.86597656 -1.97268555 152.85695312 -3.14990234 152.84765625 C-24.28872978 152.41410104 -42.86886347 142.95003065 -57.4375 127.8125 C-68.02503261 115.57884925 -74.35345861 100.36621586 -76.8125 84.4375 C-77.49892578 85.46423828 -77.49892578 85.46423828 -78.19921875 86.51171875 C-81.82996944 90.57663993 -86.09462305 93.26020325 -90.625 96.25 C-92.62184049 97.58873059 -94.61791033 98.92861126 -96.61328125 100.26953125 C-97.64018066 100.95740723 -98.66708008 101.6452832 -99.72509766 102.35400391 C-104.62550281 105.660983 -109.46702279 109.05081365 -114.3125 112.4375 C-116.22257291 113.76183895 -118.13272939 115.08605739 -120.04296875 116.41015625 C-123.98986034 119.1518183 -127.9023112 121.93607095 -131.80078125 124.74609375 C-133.74202014 126.12263188 -135.68342068 127.49894208 -137.625 128.875 C-138.5015625 129.52017578 -139.378125 130.16535156 -140.28125 130.83007812 C-145.98031131 134.83163955 -150.7580182 136.82677197 -157.8125 136.4375 C-162.91003927 135.32235581 -165.93519909 132.75345137 -168.8125 128.4375 C-170.37227064 125.31795872 -169.93354126 122.00790616 -169.91015625 118.5859375 C-169.9087413 117.81190582 -169.90732635 117.03787415 -169.90586853 116.24038696 C-169.90026403 113.76438558 -169.88771083 111.28847412 -169.875 108.8125 C-169.86998558 107.13541797 -169.86542257 105.45833453 -169.86132812 103.78125 C-169.85029315 99.66663194 -169.83302554 95.55208122 -169.8125 91.4375 C-170.78849655 91.45082367 -170.78849655 91.45082367 -171.78421021 91.4644165 C-178.56503502 91.55300834 -185.34569504 91.61328373 -192.12695312 91.65722656 C-194.65664347 91.67732405 -197.18628746 91.70460668 -199.71582031 91.73925781 C-203.35493417 91.78785556 -206.993433 91.81048812 -210.6328125 91.828125 C-211.76115509 91.84877014 -212.88949768 91.86941528 -214.05203247 91.89068604 C-220.29535415 91.89246444 -224.07881693 91.65932631 -228.8125 87.4375 C-231.66784157 84.23096669 -233.06375908 80.71584377 -233.3125 76.4375 C-232.98426726 70.79189682 -230.63079999 67.05918583 -226.48242188 63.359375 C-221.68486982 60.23985954 -216.14845 60.94595608 -210.6328125 61.046875 C-209.4649118 61.05253479 -208.29701111 61.05819458 -207.09371948 61.06402588 C-203.37455746 61.08636244 -199.65636938 61.13655658 -195.9375 61.1875 C-193.41147228 61.20756839 -190.88542941 61.22581856 -188.359375 61.2421875 C-182.17675272 61.28621847 -175.99469596 61.35310469 -169.8125 61.4375 C-169.83344727 60.40866699 -169.85439453 59.37983398 -169.87597656 58.31982422 C-169.94864994 54.48451787 -169.99439821 50.64927178 -170.03222656 46.81347656 C-170.05228009 45.15679675 -170.07953029 43.50018718 -170.11425781 41.84375 C-170.16305512 39.45555242 -170.18553064 37.06829453 -170.203125 34.6796875 C-170.22377014 33.94507294 -170.24441528 33.21045837 -170.26568604 32.45358276 C-170.26791559 27.28585512 -169.03755666 24.43125635 -165.8125 20.4375 C-162.60348773 17.63989956 -159.51854345 16.52575543 -155.3125 16 C-146.92875008 17.04796874 -140.7754831 22.02776787 -134.0625 26.8125 C-132.00436003 28.26236312 -129.94575951 29.71157268 -127.88671875 31.16015625 C-126.86368652 31.88219238 -125.8406543 32.60422852 -124.78662109 33.34814453 C-120.50856634 36.35352892 -116.19528025 39.30578242 -111.875 42.25 C-110.33723716 43.30077771 -108.79947671 44.3515589 -107.26171875 45.40234375 C-105.03848512 46.91992759 -102.81439706 48.43621017 -100.58837891 49.94970703 C-78.57111469 64.92027061 -78.57111469 64.92027061 -76.8125 68.4375 C-76.6165625 67.3959375 -76.420625 66.354375 -76.21875 65.28125 C-73.08183458 49.81138057 -66.90219382 36.67305917 -56.8125 24.4375 C-56.03712891 23.49197266 -56.03712891 23.49197266 -55.24609375 22.52734375 C-41.46134311 7.36066322 -19.99731656 -0.19083401 0 0 Z " fill="#E6384F" transform="translate(255.8125,-0.4375)"/>
<path d="M0 0 C16.55873725 12.64299258 27.05056227 30.46199388 30.15234375 51.0546875 C30.40865349 54.54010667 30.43968097 57.99858218 30.40234375 61.4921875 C30.39557617 62.41306152 30.38880859 63.33393555 30.38183594 64.28271484 C30.06803345 84.90975484 22.15328472 102.5101499 7.91015625 117.3984375 C-8.83745106 133.43221236 -28.95384426 138.57266642 -51.5859375 138.2578125 C-69.19276353 137.742644 -84.41030436 130.13540432 -97.84765625 119.0546875 C-98.79318359 118.27931641 -98.79318359 118.27931641 -99.7578125 117.48828125 C-111.71708446 106.61869238 -120.85981474 88.16254217 -122.06713867 72.14233398 C-122.9296529 48.98464079 -119.3402475 29.32702299 -103.95703125 11.3203125 C-76.40960991 -18.26765857 -33.34011171 -22.77554956 0 0 Z " fill="#FEA917" transform="translate(121.84765625,193.9453125)"/>
<path d="M0 0 C4.61958303 2.48587428 8.76205694 5.4309177 12.953125 8.57421875 C17.02894916 11.61052786 21.23697318 14.45262913 25.4375 17.3125 C26.66786987 18.15155884 26.66786987 18.15155884 27.9230957 19.00756836 C29.57492143 20.13370262 31.22701907 21.25943814 32.87939453 22.38476562 C38.33053612 26.09895231 43.76941689 29.83041304 49.19384766 33.58349609 C51.42908555 35.12337383 53.67375759 36.64901592 55.91796875 38.17578125 C57.46650434 39.24166685 59.01468982 40.30806129 60.5625 41.375 C61.28646973 41.86299072 62.01043945 42.35098145 62.75634766 42.85375977 C66.53807116 45.4798312 69.43023105 47.62033218 71.25 52 C71.68359375 54.90234375 71.68359375 54.90234375 71.6875 57.9375 C71.70683594 58.93652344 71.72617187 59.93554688 71.74609375 60.96484375 C70.88241986 66.24889579 68.15558414 69.52207702 63.921875 72.60546875 C62.62204376 73.47737201 61.31427941 74.33753166 60 75.1875 C58.55709131 76.14943912 57.11438868 77.11168738 55.671875 78.07421875 C54.93646484 78.55938965 54.20105469 79.04456055 53.44335938 79.54443359 C50.01540304 81.81930844 46.63438239 84.16102224 43.25 86.5 C41.91300283 87.41962337 40.57576271 88.33889362 39.23828125 89.2578125 C35.95812976 91.51286663 32.67874691 93.76903558 29.3996582 96.02563477 C28.09528241 96.92264671 26.7904345 97.81897254 25.48510742 98.71459961 C21.71381923 101.30224939 17.95087403 103.90128402 14.1953125 106.51171875 C12.48441899 107.69537608 10.77348219 108.87897085 9.0625 110.0625 C8.26030029 110.62308105 7.45810059 111.18366211 6.6315918 111.76123047 C0.48308147 116.00297801 -4.03218042 118.67700172 -11.75 118 C-17.0090971 116.10672504 -19.54008594 113.40216785 -22.75 109 C-26.54619693 97.61140922 -23.75 85.00462874 -23.75 73 C-52.13 73 -80.51 73 -109.75 73 C-109.75 63.1 -109.75 53.2 -109.75 43 C-81.37 43 -52.99 43 -23.75 43 C-23.75 32.11 -23.75 21.22 -23.75 10 C-18.6988648 -0.1022704 -11.18340715 -5.29833916 0 0 Z " fill="#001F4D" transform="translate(440.75,378)"/>
<path d="M0 0 C22.34244881 0 39.24607799 6.7999272 55.328125 22.234375 C70.48517694 38.01008212 76.42414659 57.593636 76.29589844 79.09594727 C75.90140371 97.90966848 68.90047931 113.5685394 57 128 C56.48308594 128.63035156 55.96617187 129.26070312 55.43359375 129.91015625 C44.77158462 141.64103847 28.2487379 149.04361204 13 152 C8.71 152 4.42 152 0 152 C0 101.84 0 51.68 0 0 Z " fill="#00CA7C" transform="translate(256,360)"/>
<path d="M0 0 C22.34244881 0 39.24607799 6.7999272 55.328125 22.234375 C70.48517694 38.01008212 76.42414659 57.593636 76.29589844 79.09594727 C75.90140371 97.90966848 68.90047931 113.5685394 57 128 C56.48308594 128.63035156 55.96617187 129.26070312 55.43359375 129.91015625 C44.77158462 141.64103847 28.2487379 149.04361204 13 152 C8.71 152 4.42 152 0 152 C0 101.84 0 51.68 0 0 Z " fill="#CD0000" transform="translate(256,0)"/>
<path d="M0 0 C4.55125119 2.40093304 8.66866446 5.50224871 12.8515625 8.48364258 C14.90970247 9.9335057 16.96830299 11.38271526 19.02734375 12.83129883 C20.05037598 13.55333496 21.0734082 14.27537109 22.12744141 15.01928711 C26.40549616 18.0246715 30.71878225 20.976925 35.0390625 23.92114258 C36.57682534 24.97192029 38.11458579 26.02270148 39.65234375 27.07348633 C41.87557738 28.59107017 44.09966544 30.10735274 46.32568359 31.62084961 C67.880408 46.27691083 67.880408 46.27691083 71.1015625 51.10864258 C71.47265625 54.25317383 71.47265625 54.25317383 71.5390625 57.92114258 C71.57902344 59.12383789 71.61898437 60.3265332 71.66015625 61.56567383 C70.80672906 66.97867006 68.16890975 69.520388 63.9987793 72.72412109 C61.44135413 74.53211381 58.84431491 76.26419258 56.2265625 77.98364258 C54.2388141 79.31322245 52.25185967 80.64398994 50.265625 81.97583008 C49.24500977 82.65742187 48.22439453 83.33901367 47.17285156 84.04125977 C42.27467824 87.33837675 37.44045787 90.72543408 32.6015625 94.10864258 C30.69151298 95.43301528 28.78135646 96.75723366 26.87109375 98.08129883 C22.92420216 100.82296088 19.0117513 103.60721353 15.11328125 106.41723633 C13.17204236 107.79377446 11.23064182 109.17008466 9.2890625 110.54614258 C8.4125 111.19131836 7.5359375 111.83649414 6.6328125 112.5012207 C0.93375119 116.50278213 -3.8439557 118.49791455 -10.8984375 118.10864258 C-15.99597677 116.99349839 -19.02113659 114.42459395 -21.8984375 110.10864258 C-23.45820814 106.9891013 -23.01947876 103.67904874 -22.99609375 100.25708008 C-22.9946788 99.4830484 -22.99326385 98.70901672 -22.99180603 97.91152954 C-22.98620153 95.43552816 -22.97364833 92.9596167 -22.9609375 90.48364258 C-22.95592308 88.80656055 -22.95136007 87.12947711 -22.94726562 85.45239258 C-22.93623065 81.33777452 -22.91896304 77.2232238 -22.8984375 73.10864258 C-23.87443405 73.12196625 -23.87443405 73.12196625 -24.87014771 73.13555908 C-31.65097252 73.22415092 -38.43163254 73.28442631 -45.21289062 73.32836914 C-47.74258097 73.34846663 -50.27222496 73.37574926 -52.80175781 73.41040039 C-56.44087167 73.45899814 -60.0793705 73.4816307 -63.71875 73.49926758 C-64.84709259 73.51991272 -65.97543518 73.54055786 -67.13796997 73.56182861 C-73.38129165 73.56360702 -77.16475443 73.33046888 -81.8984375 69.10864258 C-84.75377907 65.90210926 -86.14969658 62.38698635 -86.3984375 58.10864258 C-86.07020476 52.4630394 -83.71673749 48.73032841 -79.56835938 45.03051758 C-74.77080732 41.91100212 -69.2343875 42.61709866 -63.71875 42.71801758 C-62.5508493 42.72367737 -61.38294861 42.72933716 -60.17965698 42.73516846 C-56.46049496 42.75750502 -52.74230688 42.80769916 -49.0234375 42.85864258 C-46.49740978 42.87871097 -43.97136691 42.89696114 -41.4453125 42.91333008 C-35.26269022 42.95736105 -29.08063346 43.02424726 -22.8984375 43.10864258 C-22.91938477 42.07980957 -22.94033203 41.05097656 -22.96191406 39.9909668 C-23.03458744 36.15566045 -23.08033571 32.32041436 -23.11816406 28.48461914 C-23.13821759 26.82793933 -23.16546779 25.17132976 -23.20019531 23.51489258 C-23.24899262 21.126695 -23.27146814 18.7394371 -23.2890625 16.35083008 C-23.30970764 15.61621552 -23.33035278 14.88160095 -23.35162354 14.12472534 C-23.35385309 8.9569977 -22.12349416 6.10239893 -18.8984375 2.10864258 C-13.14512815 -2.90706301 -6.87574533 -3.06344191 0 0 Z " fill="#004592" transform="translate(108.8984375,17.891357421875)"/>
<path d="M0 0 C69.3 0 138.6 0 210 0 C210 9.9 210 19.8 210 30 C140.7 30 71.4 30 0 30 C0 20.1 0 10.2 0 0 Z " fill="#00204D" transform="translate(151,241)"/>
<path d="M0 0 C14.36896811 -0.09035775 28.73774762 -0.16374911 43.1069355 -0.20724869 C49.77909324 -0.228126 56.45100685 -0.25644684 63.12304688 -0.30175781 C69.56156296 -0.3452094 75.99988239 -0.36913605 82.43853378 -0.37950897 C84.89534476 -0.38690148 87.35214493 -0.40133718 89.80887222 -0.42292023 C93.2492832 -0.45194397 96.68888089 -0.45595628 100.12939453 -0.45410156 C101.14575485 -0.46848267 102.16211517 -0.48286377 103.20927429 -0.49768066 C108.95770064 -0.46413366 112.56285691 -0.04091272 117 4 C121.08499285 8.57854782 120.40195105 13.95319981 120.34057617 19.75708008 C120.34123329 21.38214478 120.34123329 21.38214478 120.34190369 23.04003906 C120.33981566 26.61672053 120.31648319 30.19293178 120.29296875 33.76953125 C120.28737287 36.25102991 120.28310273 38.73253188 120.28010559 41.21403503 C120.26865631 47.74235194 120.23918808 54.27046832 120.20599365 60.79870605 C120.17367254 67.4614687 120.16160061 74.12428968 120.14648438 80.78710938 C120.11431871 93.85817515 120.06154976 106.92903952 120 120 C110.1 120 100.2 120 90 120 C90 90.3 90 60.6 90 30 C60.3 30 30.6 30 0 30 C0 20.1 0 10.2 0 0 Z " fill="#001F4D" transform="translate(331,61)"/>
<path d="M0 0 C9.9 0 19.8 0 30 0 C30 29.7 30 59.4 30 90 C59.7 90 89.4 90 120 90 C120 99.9 120 109.8 120 120 C105.63103189 120.09035775 91.26225238 120.16374911 76.8930645 120.20724869 C70.22090676 120.228126 63.54899315 120.25644684 56.87695312 120.30175781 C50.43843704 120.3452094 44.00011761 120.36913605 37.56146622 120.37950897 C35.10465524 120.38690148 32.64785507 120.40133718 30.19112778 120.42292023 C26.7507168 120.45194397 23.31111911 120.45595628 19.87060547 120.45410156 C18.85424515 120.46848267 17.83788483 120.48286377 16.79072571 120.49768066 C11.04229936 120.46413366 7.43714309 120.04091272 3 116 C-1.08499285 111.42145218 -0.40195105 106.04680019 -0.34057617 100.24291992 C-0.34101425 99.15954346 -0.34145233 98.07616699 -0.34190369 96.95996094 C-0.33981566 93.38327947 -0.31648319 89.80706822 -0.29296875 86.23046875 C-0.28737287 83.74897009 -0.28310273 81.26746812 -0.28010559 78.78596497 C-0.26865631 72.25764806 -0.23918808 65.72953168 -0.20599365 59.20129395 C-0.17367254 52.5385313 -0.16160061 45.87571032 -0.14648438 39.21289062 C-0.11431871 26.14182485 -0.06154976 13.07096048 0 0 Z " fill="#004691" transform="translate(61,331)"/>
<path d="M0 0 C34.65 0 69.3 0 105 0 C105 9.9 105 19.8 105 30 C70.35 30 35.7 30 0 30 C0 20.1 0 10.2 0 0 Z " fill="#004691" transform="translate(151,241)"/>
</svg>
