<?xml version="1.0" encoding="UTF-8"?>
<svg version="1.1" xmlns="http://www.w3.org/2000/svg" width="512" height="512">
<path d="M0 0 C1.24311943 -0.00706559 2.48623886 -0.01413118 3.76702857 -0.02141088 C5.14891704 -0.01915946 6.5308052 -0.01671295 7.91269302 -0.01409245 C9.37887542 -0.01854389 10.8450554 -0.02385763 12.31123185 -0.02996117 C16.34572831 -0.04416296 20.38014782 -0.04580405 24.4146657 -0.04536426 C28.76381689 -0.04701056 33.11293619 -0.06007358 37.46207047 -0.07155704 C46.97446361 -0.09442093 56.48683447 -0.10232917 65.99925137 -0.10738349 C71.93789312 -0.11063893 77.87652839 -0.11716049 83.81516647 -0.12438488 C100.25487815 -0.14395272 116.69458379 -0.16035582 133.13430786 -0.16326141 C134.18662449 -0.16344898 135.23894111 -0.16363655 136.32314612 -0.16382981 C138.45648845 -0.16419606 140.58983078 -0.16455976 142.72317311 -0.16492092 C143.78218014 -0.16510373 144.84118716 -0.16528654 145.93228531 -0.16547489 C147.52273286 -0.16574572 147.52273286 -0.16574572 149.14531067 -0.16602201 C166.32773542 -0.169564 183.51003487 -0.1965871 200.69241616 -0.23397278 C218.3298217 -0.27204166 235.96716504 -0.29141879 253.60461259 -0.29172093 C263.50881879 -0.29230582 273.41287554 -0.30081845 283.3170433 -0.32971859 C291.75037444 -0.35421351 300.18350161 -0.36152817 308.61685869 -0.34647106 C312.91969302 -0.33929436 317.22212445 -0.34019209 321.52491379 -0.36288166 C325.46558022 -0.38346257 329.40553376 -0.38088019 333.34619239 -0.36000682 C334.770168 -0.35651016 336.19419495 -0.36142958 337.61810324 -0.37571125 C345.62995702 -0.45087707 351.81178424 -0.2653568 357.97037125 5.26006222 C362.73132542 10.39688119 364.26024883 14.12211234 364.28287125 21.13506222 C364.29962906 22.32873409 364.31638687 23.52240597 364.3336525 24.75224972 C363.67617795 31.10076738 360.77245905 35.20496585 355.97037125 39.26006222 C348.84684888 43.81978462 342.78254707 43.74755296 334.47037125 43.51006222 C333.26638687 43.49201534 332.0624025 43.47396847 330.82193375 43.45537472 C327.8705752 43.40852776 324.92090089 43.34294226 321.97037125 43.26006222 C321.97313663 44.37821284 321.975902 45.49636347 321.97875118 46.64839745 C322.04547778 73.90977017 322.09470913 101.17113224 322.12580776 128.4325695 C322.14124822 141.61622624 322.16228363 154.79982888 322.19668961 167.98345089 C322.22667851 179.4800702 322.24596673 190.97665032 322.25263673 202.47330767 C322.25653294 208.55543724 322.26563038 214.63745473 322.28756142 220.71954823 C322.30807672 226.45604483 322.3141749 232.19238426 322.30969429 237.92891407 C322.31051281 240.02294427 322.31638806 242.11698028 322.32798767 244.21097851 C322.47064502 271.31660543 317.46638564 294.40827319 298.97037125 315.26006222 C298.04804703 316.32547237 298.04804703 316.32547237 297.10709 317.41240597 C283.54514634 332.07789108 262.61759781 340.64202506 242.97037125 342.26006222 C238.41252565 342.41133054 233.85686218 342.4171886 229.29678726 342.42119503 C227.92419173 342.42583169 226.55159747 342.43085747 225.17900467 342.4362402 C221.46771196 342.44928934 217.75643728 342.45579508 214.04512525 342.46025085 C211.71790217 342.46319528 209.39068386 342.4673027 207.06346321 342.47175503 C199.75760981 342.4854137 192.4517675 342.49508686 185.14590222 342.49895692 C176.75873617 342.50342604 168.37173403 342.52092735 159.98461777 342.54995751 C153.47213945 342.5717033 146.95970679 342.58166811 140.44719261 342.58299804 C136.57175775 342.58403741 132.69647726 342.58975643 128.82108116 342.60781765 C98.5282312 342.74082985 72.64686181 340.26165156 48.97037125 319.26006222 C47.90496109 318.337738 47.90496109 318.337738 46.8180275 317.39678097 C32.17364033 303.85434769 22.73556422 281.96759819 21.8800658 262.17027962 C21.8449924 259.78902767 21.84185366 257.40976393 21.85011673 255.02826595 C21.8492623 254.11981991 21.84840788 253.21137386 21.84752756 252.27539915 C21.84588547 249.24300416 21.8513733 246.21066497 21.85684586 243.17827511 C21.85712803 240.9999304 21.85696941 238.82158559 21.85640335 236.64324093 C21.85611655 230.73681068 21.86199443 224.83040076 21.86897731 218.92397523 C21.87523027 212.74868736 21.87581619 206.57339903 21.87700272 200.39810848 C21.88011029 188.7075263 21.88831597 177.01695348 21.89835221 165.32637542 C21.90953113 152.01570555 21.91502828 138.70503618 21.92004764 125.39436257 C21.93049905 98.01625727 21.94808741 70.63816027 21.97037125 43.26006222 C20.86749771 43.29933834 20.86749771 43.29933834 19.7423439 43.33940792 C16.36024346 43.44435134 12.9784869 43.50869542 9.59537125 43.57256222 C8.43908218 43.61445675 7.28279312 43.65635128 6.091465 43.69951534 C-1.66211136 43.80902913 -7.62324424 42.84495494 -14.02962875 38.26006222 C-19.92265133 32.05386319 -20.43677453 26.02245668 -20.377285 17.78740597 C-19.75684903 11.49242074 -16.98190382 8.06948789 -12.46712875 3.88506222 C-8.09004799 0.96700838 -5.33358594 0.00967416 0 0 Z " fill="#E63946" transform="translate(84.02962875366211,127.7399377822876)"/>
<path d="M0 0 C1.24311943 -0.00706559 2.48623886 -0.01413118 3.76702857 -0.02141088 C5.14891704 -0.01915946 6.5308052 -0.01671295 7.91269302 -0.01409245 C9.37887542 -0.01854389 10.8450554 -0.02385763 12.31123185 -0.02996117 C16.34572831 -0.04416296 20.38014782 -0.04580405 24.4146657 -0.04536426 C28.76381689 -0.04701056 33.11293619 -0.06007358 37.46207047 -0.07155704 C46.97446361 -0.09442093 56.48683447 -0.10232917 65.99925137 -0.10738349 C71.93789312 -0.11063893 77.87652839 -0.11716049 83.81516647 -0.12438488 C100.25487815 -0.14395272 116.69458379 -0.16035582 133.13430786 -0.16326141 C134.18662449 -0.16344898 135.23894111 -0.16363655 136.32314612 -0.16382981 C138.45648845 -0.16419606 140.58983078 -0.16455976 142.72317311 -0.16492092 C143.78218014 -0.16510373 144.84118716 -0.16528654 145.93228531 -0.16547489 C147.52273286 -0.16574572 147.52273286 -0.16574572 149.14531067 -0.16602201 C166.32773542 -0.169564 183.51003487 -0.1965871 200.69241616 -0.23397278 C218.3298217 -0.27204166 235.96716504 -0.29141879 253.60461259 -0.29172093 C263.50881879 -0.29230582 273.41287554 -0.30081845 283.3170433 -0.32971859 C291.75037444 -0.35421351 300.18350161 -0.36152817 308.61685869 -0.34647106 C312.91969302 -0.33929436 317.22212445 -0.34019209 321.52491379 -0.36288166 C325.46558022 -0.38346257 329.40553376 -0.38088019 333.34619239 -0.36000682 C334.770168 -0.35651016 336.19419495 -0.36142958 337.61810324 -0.37571125 C345.62995702 -0.45087707 351.81178424 -0.2653568 357.97037125 5.26006222 C362.73132542 10.39688119 364.26024883 14.12211234 364.28287125 21.13506222 C364.29962906 22.32873409 364.31638687 23.52240597 364.3336525 24.75224972 C363.67617795 31.10076738 360.77245905 35.20496585 355.97037125 39.26006222 C348.73235164 43.92344784 342.13231939 43.82873581 333.71234512 43.77472591 C332.26063071 43.78005567 330.80892182 43.78712382 329.35722339 43.79577297 C325.38113109 43.81437083 321.40541198 43.80810529 317.42930436 43.79761994 C313.13606555 43.79061972 308.84290278 43.80663216 304.54968643 43.81961727 C296.14389061 43.8412493 287.73823022 43.84113233 279.33241571 43.83299173 C272.49915456 43.82668914 265.66593286 43.82783114 258.83267212 43.8342638 C257.37323811 43.83561628 257.37323811 43.83561628 255.88432058 43.83699609 C253.90768615 43.83884732 251.93105174 43.84070988 249.95441733 43.84258365 C231.42198994 43.85915958 212.88963869 43.85044492 194.35721587 43.83359807 C177.40918103 43.81890387 160.46132352 43.83352594 143.51331152 43.86236823 C126.10401957 43.89177449 108.69480943 43.90273076 91.28549373 43.89318603 C89.31556314 43.8921635 87.34563253 43.89116889 85.3757019 43.89020252 C84.40650211 43.88972613 83.43730232 43.88924974 82.43873284 43.88875892 C75.61649515 43.88659627 68.79433505 43.896391 61.97211456 43.91097355 C53.65383574 43.92850609 45.33578291 43.9283664 37.01751293 43.90562189 C32.77517184 43.89448762 28.53322878 43.89129848 24.290905 43.9099226 C20.40331529 43.92676946 16.51646946 43.92032028 12.62892757 43.89570581 C11.22657868 43.89083578 9.8241693 43.89430204 8.4218712 43.90719325 C-0.05613005 43.97947406 -6.99200169 43.33666809 -14.02962875 38.26006222 C-19.91976083 32.04842702 -20.43680215 26.02627961 -20.377285 17.78740597 C-19.75684903 11.49242074 -16.98190382 8.06948789 -12.46712875 3.88506222 C-8.09004799 0.96700838 -5.33358594 0.00967416 0 0 Z " fill="#C9273A" transform="translate(84.02962875366211,127.7399377822876)"/>
<path d="M0 0 C1.13826233 -0.00571014 2.27652466 -0.01142029 3.44927979 -0.01730347 C4.69403076 -0.01842133 5.93878174 -0.01953918 7.22125244 -0.02069092 C8.5354718 -0.02565582 9.84969116 -0.03062073 11.20373535 -0.03573608 C14.80722601 -0.04883914 18.41069804 -0.05530109 22.01420879 -0.05974674 C24.26763597 -0.06268119 26.5210581 -0.06678673 28.77448273 -0.07125092 C35.83098315 -0.08492109 42.887472 -0.09458977 49.94398475 -0.09845281 C58.07829072 -0.10293082 66.21242844 -0.1204687 74.34668326 -0.1494534 C80.64153248 -0.17110185 86.93633446 -0.18115879 93.23122048 -0.18249393 C96.98738089 -0.1835398 100.74338302 -0.18940101 104.49950409 -0.20731354 C108.03556809 -0.22384884 111.57135577 -0.22592351 115.10744476 -0.21717453 C117.01433835 -0.21604276 118.92122298 -0.2297184 120.82806396 -0.243927 C129.55858533 -0.20163048 136.93812384 0.66883673 143.409729 7.14044189 C147.65007741 13.27175648 149.15172573 18.70698381 148.409729 26.14044189 C146.74392804 33.26272477 143.21792941 37.07727425 137.347229 41.39044189 C133.06028586 43.94436547 129.77162031 44.26598642 124.81945801 44.28088379 C123.11206451 44.28944901 123.11206451 44.28944901 121.37017822 44.29818726 C120.12542725 44.29930511 118.88067627 44.30042297 117.59820557 44.30157471 C116.28398621 44.30653961 114.96976685 44.31150452 113.61572266 44.31661987 C110.012232 44.32972293 106.40875996 44.33618488 102.80524921 44.34063053 C100.55182204 44.34356498 98.29839991 44.34767052 96.04497528 44.3521347 C88.98847485 44.36580488 81.93198601 44.37547356 74.87547326 44.3793366 C66.74116728 44.38381461 58.60702957 44.40135249 50.47277474 44.43033719 C44.17792553 44.45198564 37.88312355 44.46204258 31.58823752 44.46337771 C27.83207712 44.46442359 24.07607499 44.47028479 20.31995392 44.48819733 C16.78388992 44.50473263 13.24810224 44.5068073 9.71201324 44.49805832 C7.80511966 44.49692655 5.89823503 44.51060219 3.99139404 44.52481079 C-4.73912732 44.48251427 -12.11866583 43.61204706 -18.590271 37.14044189 C-22.82558163 31.01641165 -24.34515962 25.56800676 -23.590271 18.14044189 C-22.17459113 12.48813182 -19.84229897 7.38950797 -14.918396 3.98419189 C-9.77246905 0.90543219 -5.90939657 0.01777698 0 0 Z " fill="#E63845" transform="translate(193.59027099609375,41.85955810546875)"/>
<path d="M0 0 C4.82337995 3.96589018 8.54114848 8.52731455 9.37184143 14.81417465 C9.52073033 18.3216734 9.54029851 21.80918604 9.51757812 25.31982422 C9.52300508 26.66585037 9.53013095 28.01187058 9.53881836 29.35787964 C9.55699047 32.99859848 9.55000893 36.63886183 9.53730202 40.27958822 C9.52713824 44.10039545 9.53657742 47.92116503 9.54284668 51.74197388 C9.55011507 58.15927084 9.54055859 64.57638341 9.52148438 70.99365234 C9.4997356 78.39586311 9.5067555 85.79763279 9.52879 93.1998328 C9.54698938 99.57037608 9.54947969 105.94078717 9.53903532 112.31134808 C9.53282282 116.10942181 9.53190205 119.90728881 9.54518127 123.70534897 C9.55680493 127.2793358 9.54859688 130.85275889 9.52560425 134.42668533 C9.51786045 136.35122164 9.52961864 138.27580606 9.54211426 140.20031738 C9.4664265 148.0071713 8.73943783 154.90139526 3.29181671 160.87225151 C-2.16119122 165.99297796 -7.93539738 167.60181939 -15.3359375 167.4453125 C-21.62574942 166.39393631 -26.53812106 162.7908017 -30.5 157.9375 C-32.92238584 153.19366106 -34.2493383 149.6225245 -34.26742554 144.25151062 C-34.28022049 142.5294339 -34.28022049 142.5294339 -34.29327393 140.77256775 C-34.29236755 139.52206131 -34.29146118 138.27155487 -34.29052734 136.9831543 C-34.29651534 135.64565659 -34.30332151 134.30816234 -34.31088257 132.97067261 C-34.32852356 129.34449557 -34.33323717 125.71841298 -34.33451414 122.09219718 C-34.33593752 119.82418386 -34.34021069 117.55619441 -34.34550858 115.28818703 C-34.36400345 107.3686229 -34.37217998 99.44912602 -34.37060547 91.52954102 C-34.36940462 84.15919037 -34.39049709 76.78913283 -34.4220928 69.41885632 C-34.44828765 63.08151398 -34.45897141 56.74426717 -34.45769465 50.40687114 C-34.4571859 46.6260944 -34.4628203 42.84557816 -34.48405075 39.06485558 C-34.50348726 35.50653812 -34.50352129 31.94872819 -34.48901749 28.3903923 C-34.48594635 26.4715757 -34.50256849 24.55275876 -34.51989746 22.63401794 C-34.46122702 14.54566771 -33.51627509 9.01260816 -28.03515625 2.7578125 C-18.72588218 -4.94768564 -10.64771235 -6.24176241 0 0 Z " fill="#ECE9E8" transform="translate(311,217)"/>
<path d="M0 0 C2.72405554 1.65564989 4.50774957 3.16429293 6.55859375 5.58203125 C7.1309375 6.23945313 7.70328125 6.896875 8.29296875 7.57421875 C11.24420293 11.72724417 12.05909932 15.39397353 12.08274841 20.44206238 C12.09771111 22.15980362 12.09771111 22.15980362 12.11297607 23.9122467 C12.11364075 25.15961105 12.11430542 26.4069754 12.11499023 27.69213867 C12.12261654 29.02639223 12.13104484 30.3606414 12.14021301 31.69488525 C12.16212329 35.31292237 12.17095264 38.93087498 12.17603946 42.54897094 C12.17968827 44.8129798 12.18593117 47.07696671 12.19304085 49.34096718 C12.2175269 57.24986361 12.23058463 65.15869457 12.23413086 73.06762695 C12.23776166 80.42209242 12.26762618 87.77613943 12.30953544 95.13047713 C12.34431806 101.4576602 12.3596807 107.78470517 12.36037689 114.11198312 C12.36116725 117.88506912 12.36979283 121.65772895 12.39837456 125.43071556 C12.42469159 128.98419212 12.42668588 132.53689344 12.41071892 136.09042358 C12.40806082 138.00172328 12.42999691 139.9130088 12.45291138 141.82417297 C12.38813934 149.51470839 11.15662646 155.26888237 6.80859375 161.70703125 C4.45703125 163.9609375 4.45703125 163.9609375 2.18359375 165.26953125 C1.42820313 165.72457031 0.6728125 166.17960938 -0.10546875 166.6484375 C-5.52575522 169.39918213 -11.57771046 169.76129048 -17.4140625 168.05859375 C-23.38260044 165.36757665 -27.88650405 161.09980187 -30.25093174 154.95224476 C-31.18654862 151.72379303 -31.4499962 149.1554074 -31.46556091 145.80705261 C-31.47553604 144.65065781 -31.48551117 143.494263 -31.49578857 142.30282593 C-31.49645325 141.04813507 -31.49711792 139.79344421 -31.49780273 138.50073242 C-31.50543129 137.15485681 -31.51385998 135.80898553 -31.52302551 134.46311951 C-31.54490858 130.81835013 -31.553761 127.17366461 -31.55885196 123.52883697 C-31.56250281 121.24824715 -31.56874662 118.96767905 -31.57585335 116.68709755 C-31.60032613 108.72099473 -31.61339508 100.75495684 -31.61694336 92.78881836 C-31.62057719 85.37921419 -31.65046684 77.97002458 -31.69234794 70.56054705 C-31.72710905 64.18580155 -31.7424928 57.81119308 -31.74318939 51.4363535 C-31.74398022 47.63481112 -31.7526285 43.83369146 -31.78118706 40.03224754 C-31.80746841 36.45413903 -31.80951799 32.87680073 -31.79353142 29.2986393 C-31.79086841 27.3716508 -31.81283176 25.44467662 -31.83572388 23.51782227 C-31.76326627 14.87324452 -30.03612798 8.99508074 -24.2265625 2.515625 C-17.00090174 -2.50656693 -8.20100174 -3.32256007 0 0 Z " fill="#ECE9E8" transform="translate(223.19140625,215.29296875)"/>
</svg>
