<svg version="1.1" id="Layer_1" xmlns="http://www.w3.org/2000/svg" xmlns:xlink="http://www.w3.org/1999/xlink" x="0px" y="0px"
	 width="100%" viewBox="0 0 512 512" enable-background="new 0 0 512 512" xml:space="preserve">
<path fill="#000000" opacity="1.000000" stroke="none"
	d="
M253.000000,513.000000
	C168.687119,513.000000 84.874237,513.000000 1.030678,513.000000
	C1.030678,342.395416 1.030678,171.790848 1.030678,1.093132
	C171.562897,1.093132 342.125885,1.093132 512.844421,1.093132
	C512.844421,171.666550 512.844421,342.333252 512.844421,513.000000
	C426.457489,513.000000 339.978729,513.000000 253.000000,513.000000
M150.500000,411.999969
	C233.471161,411.999969 316.442322,412.014679 399.413452,411.957581
	C403.663452,411.954651 407.970703,411.668549 412.152740,410.944794
	C429.176636,407.998749 440.716217,391.531525 436.251160,374.124756
	C434.097687,365.729492 428.921112,358.026184 424.622772,350.281891
	C415.496552,333.839142 406.127502,317.529297 396.711975,301.249451
	C386.497833,283.588806 376.028198,266.075836 365.833344,248.404221
	C353.768005,227.490448 341.970367,206.422150 329.887512,185.518616
	C314.637878,159.136475 299.284485,132.813629 283.836731,106.547028
	C277.901733,96.455467 268.554047,91.186859 257.099823,91.176437
	C245.654602,91.166031 236.239975,96.334526 230.262375,106.423691
	C222.495117,119.533440 215.059753,132.839493 207.443436,146.039062
	C197.969604,162.457886 188.455719,178.853607 178.961349,195.260590
	C171.971558,207.339508 164.992706,219.424744 157.995743,231.499512
	C147.675049,249.310089 137.328537,267.105743 127.019997,284.923340
	C119.951317,297.141083 112.899734,309.368896 105.892273,321.621826
	C96.960327,337.239807 87.504738,352.596619 79.400215,368.634705
	C74.741272,377.854340 75.702583,387.935242 81.482994,397.016022
	C88.006241,407.263794 97.579391,411.915863 109.514107,411.982849
	C122.842354,412.057648 136.171341,412.000000 150.500000,411.999969
z"/>
<path fill="#FFB400" opacity="1.000000" stroke="none"
	d="
M150.000000,411.999969
	C136.171341,412.000000 122.842354,412.057648 109.514107,411.982849
	C97.579391,411.915863 88.006241,407.263794 81.482994,397.016022
	C75.702583,387.935242 74.741272,377.854340 79.400215,368.634705
	C87.504738,352.596619 96.960327,337.239807 105.892273,321.621826
	C112.899734,309.368896 119.951317,297.141083 127.019997,284.923340
	C137.328537,267.105743 147.675049,249.310089 157.995743,231.499512
	C164.992706,219.424744 171.971558,207.339508 178.961349,195.260590
	C188.455719,178.853607 197.969604,162.457886 207.443436,146.039062
	C215.059753,132.839493 222.495117,119.533440 230.262375,106.423691
	C236.239975,96.334526 245.654602,91.166031 257.099823,91.176437
	C268.554047,91.186859 277.901733,96.455467 283.836731,106.547028
	C299.284485,132.813629 314.637878,159.136475 329.887512,185.518616
	C341.970367,206.422150 353.768005,227.490448 365.833344,248.404221
	C376.028198,266.075836 386.497833,283.588806 396.711975,301.249451
	C406.127502,317.529297 415.496552,333.839142 424.622772,350.281891
	C428.921112,358.026184 434.097687,365.729492 436.251160,374.124756
	C440.716217,391.531525 429.176636,407.998749 412.152740,410.944794
	C407.970703,411.668549 403.663452,411.954651 399.413452,411.957581
	C316.442322,412.014679 233.471161,411.999969 150.000000,411.999969
M265.110809,187.958939
	C248.574554,183.445816 237.093155,191.704361 237.601135,208.205917
	C238.395462,234.010086 237.770386,259.856720 237.835312,285.685120
	C237.865234,297.593231 244.837051,304.191315 257.089294,304.178558
	C269.286499,304.165863 276.141846,297.545868 276.167450,285.502991
	C276.224121,258.841339 276.124908,232.179276 276.222412,205.517853
	C276.251587,197.538086 273.071411,191.736679 265.110809,187.958939
M240.737503,340.442322
	C235.476898,350.464783 237.548904,360.653809 246.046799,366.550659
	C254.061844,372.112427 264.878540,370.795441 271.383636,363.465912
	C278.450470,355.503326 277.654419,343.127838 269.627563,336.166931
	C261.006805,328.691010 249.051743,330.213806 240.737503,340.442322
z"/>
<path fill="#FCF4D8" opacity="1.000000" stroke="none"
	d="
M265.488647,188.086655
	C273.071411,191.736679 276.251587,197.538086 276.222412,205.517853
	C276.124908,232.179276 276.224121,258.841339 276.167450,285.502991
	C276.141846,297.545868 269.286499,304.165863 257.089294,304.178558
	C244.837051,304.191315 237.865234,297.593231 237.835312,285.685120
	C237.770386,259.856720 238.395462,234.010086 237.601135,208.205917
	C237.093155,191.704361 248.574554,183.445816 265.488647,188.086655
z"/>
<path fill="#FCF3D7" opacity="1.000000" stroke="none"
	d="
M240.927094,340.120422
	C249.051743,330.213806 261.006805,328.691010 269.627563,336.166931
	C277.654419,343.127838 278.450470,355.503326 271.383636,363.465912
	C264.878540,370.795441 254.061844,372.112427 246.046799,366.550659
	C237.548904,360.653809 235.476898,350.464783 240.927094,340.120422
z"/>
</svg>
