<svg version="1.1" id="Layer_1" xmlns="http://www.w3.org/2000/svg" xmlns:xlink="http://www.w3.org/1999/xlink" x="0px" y="0px"
	 width="100%" viewBox="0 0 512 512" enable-background="new 0 0 512 512" xml:space="preserve">
<path fill="#000101" opacity="1.000000" stroke="none"
	d="
M292.000000,513.000000
	C256.312439,513.000000 220.624878,513.000000 184.208771,512.632507
	C184.231064,508.972382 184.981918,505.679749 185.747467,502.322693
	C194.496643,501.415619 195.996658,500.546356 195.935837,495.837463
	C195.916122,494.311707 195.630722,491.959167 194.671494,491.431946
	C191.835663,489.873383 188.602448,489.037842 185.068069,487.753510
	C184.702698,484.159882 186.316391,478.666077 179.318542,477.984589
	C170.509430,477.126709 172.382065,484.089508 171.761078,488.892853
	C166.957413,489.157288 161.687393,487.849365 161.085358,494.471985
	C160.916977,496.324158 161.126709,499.364777 162.203568,499.952087
	C165.038574,501.498077 168.445511,501.995300 171.650986,502.917816
	C172.076019,506.094421 172.538010,509.547211 173.000000,513.000000
	C115.695541,513.000000 58.391079,513.000000 1.043310,513.000000
	C1.043310,342.448151 1.043310,171.896317 1.043310,1.000000
	C62.353798,1.000000 123.708244,1.000000 185.856567,1.304332
	C186.111954,2.239760 185.157776,2.839120 185.106766,3.507437
	C184.883545,6.431041 183.792984,10.216502 185.179916,12.076797
	C186.597809,13.978623 190.618347,14.871358 193.355240,14.621972
	C196.750702,14.312579 198.413437,11.203749 197.931854,7.712659
	C197.616913,5.429719 196.666031,3.234506 196.000000,1.000000
	C301.622223,1.000000 407.244415,1.000000 512.933350,1.000000
	C512.933350,171.550415 512.933350,342.100861 512.933350,513.000000
	C442.979492,513.000000 372.958405,513.000000 302.143982,512.695618
	C301.775848,511.882507 302.547211,511.388397 302.569427,510.862579
	C302.703918,507.682495 303.665710,503.958099 302.341583,501.496460
	C301.437836,499.816254 297.156982,499.067993 294.575684,499.395813
	C291.258087,499.817261 289.203308,502.493378 290.031982,506.263123
	C290.533081,508.542816 291.333862,510.756592 292.000000,513.000000
M181.998978,421.499939
	C181.999023,427.497253 182.145309,433.499695 181.935883,439.489685
	C181.834915,442.377319 182.725418,443.879639 185.461487,445.093140
	C197.923767,450.620300 210.267456,456.414795 222.656769,462.106689
	C230.611755,465.761292 238.571945,469.404633 247.017349,473.276489
	C247.017349,447.278839 247.080246,421.980408 246.858521,396.684479
	C246.845444,395.192352 244.839584,393.098969 243.255234,392.336639
	C229.921463,385.920868 216.474747,379.739410 203.051193,373.510803
	C196.183701,370.324219 189.294113,367.185242 181.998978,363.833862
	C181.998978,383.193787 181.998978,401.846863 181.998978,421.499939
M257.019043,444.500000
	C257.019043,453.902191 257.019043,463.304352 257.019043,473.332977
	C259.003143,472.437073 260.333099,471.847412 261.654144,471.238373
	C280.500031,462.549683 299.296509,453.750793 318.236420,445.272247
	C321.439819,443.838226 322.128296,442.110657 322.111328,438.921112
	C321.986755,415.451080 322.044006,391.980042 322.044006,368.509338
	C322.044006,367.119293 322.044006,365.729248 322.044006,363.806274
	C300.714355,373.731506 280.087524,383.254639 259.586243,393.040802
	C258.239380,393.683746 257.150787,396.329193 257.129120,398.058075
	C256.939026,413.203461 257.019073,428.352234 257.019043,444.500000
M172.000168,409.500000
	C172.000168,394.458832 172.000168,379.417664 172.000168,363.796265
	C150.559692,373.772247 129.786423,383.371399 109.131065,393.217926
	C107.925957,393.792419 107.083206,396.364532 107.070862,398.014496
	C106.928818,416.991119 106.980202,435.969238 106.980125,454.946930
	C106.980103,460.868927 106.980125,466.790924 106.980125,472.717010
	C107.763870,472.717010 108.128616,472.822113 108.389969,472.702087
	C128.758942,463.346649 149.144180,454.025360 169.423630,444.479340
	C170.706467,443.875519 171.851837,441.526550 171.887360,439.962830
	C172.110245,430.146088 172.000137,420.321808 172.000168,409.500000
M380.983887,386.538452
	C364.825653,379.007477 348.667450,371.476501 332.042053,363.727814
	C332.042053,389.903198 331.981384,415.193848 332.192596,440.482239
	C332.205292,441.999268 334.071320,444.160767 335.613159,444.900208
	C347.441315,450.572845 359.402435,455.968262 371.322937,461.448242
	C379.726837,465.311615 388.131836,469.172607 396.710938,473.114899
	C396.884521,472.105042 397.036102,471.633972 397.036407,471.162781
	C397.053436,446.534058 397.116913,421.904846 396.925842,397.277649
	C396.913513,395.687408 395.278900,393.507263 393.793579,392.648132
	C389.928314,390.412354 385.725891,388.759460 380.983887,386.538452
M437.073242,459.582428
	C447.319641,454.825867 457.495667,449.907318 467.853424,445.407135
	C471.148468,443.975494 472.066681,442.171753 472.041840,438.721558
	C471.883362,416.737457 471.961121,394.751709 471.961121,372.766479
	C471.961121,370.168335 471.961151,367.570221 471.961151,364.381775
	C469.837952,365.239777 468.321411,365.781097 466.864685,366.452240
	C450.569580,373.959900 434.526245,382.092224 417.896576,388.763794
	C409.107330,392.289948 406.451813,396.931091 406.798370,406.270355
	C407.618011,428.358246 407.061646,450.497223 407.061646,473.343140
	C417.177399,468.707062 426.782776,464.304901 437.073242,459.582428
M57.640553,375.877869
	C49.322342,372.039246 41.004131,368.200592 32.089344,364.086639
	C32.089344,390.302673 32.029049,415.291504 32.234016,440.278168
	C32.246780,441.833923 34.001438,444.085602 35.519531,444.808594
	C50.080917,451.743774 64.767075,458.416840 79.414757,465.170959
	C85.103127,467.793945 90.784462,470.432190 96.980324,473.300140
	C96.980324,447.264282 97.033134,421.966431 96.838455,396.670502
	C96.827690,395.273224 95.051521,393.292267 93.608620,392.597656
	C81.921890,386.971741 70.118309,381.588562 57.640553,375.877869
M182.146439,125.499893
	C182.146545,131.824524 182.313934,138.155533 182.073654,144.471024
	C181.959625,147.468033 183.107071,148.845200 185.735184,150.039261
	C203.882156,158.284119 221.954788,166.692581 240.054001,175.042603
	C242.227921,176.045532 244.418045,177.013351 247.021286,178.187103
	C247.021286,152.286255 247.080933,127.158875 246.877365,102.033623
	C246.864761,100.478493 245.121704,98.219978 243.608551,97.503418
	C224.843887,88.617294 205.975784,79.949440 187.121689,71.252785
	C185.691284,70.593010 184.165054,70.140976 182.146469,69.393585
	C182.146469,88.271248 182.146469,106.385590 182.146439,125.499893
M257.017975,170.368042
	C257.017975,172.801819 257.017975,175.235596 257.017975,177.856079
	C257.920959,177.693756 258.429108,177.704468 258.844177,177.513184
	C278.895355,168.273041 298.972687,159.087524 318.913696,149.615021
	C320.413757,148.902466 321.770447,146.136322 321.785034,144.313538
	C321.975403,120.516388 321.915985,96.717201 321.895599,72.918556
	C321.894714,71.874924 321.664795,70.831490 321.542511,69.796097
	C320.790222,69.868324 320.431030,69.814804 320.154907,69.941872
	C299.951416,79.240219 279.724792,88.490128 259.623230,98.004234
	C258.269684,98.644875 257.140533,101.283470 257.127655,103.001976
	C256.961761,125.135162 257.018005,147.270004 257.017975,170.368042
M131.163834,328.304688
	C144.564850,334.735474 157.965866,341.166290 171.999878,347.900818
	C171.999878,321.465118 172.052689,296.021515 171.856644,270.579834
	C171.845917,269.189178 170.046204,267.205933 168.596863,266.524475
	C149.502716,257.546967 130.324768,248.747574 111.155296,239.930756
	C110.020317,239.408722 108.778847,239.118225 107.574593,238.715866
	C107.346626,239.441437 107.167351,239.746063 107.167030,240.050873
	C107.141586,264.689392 107.077415,289.328308 107.252533,313.965546
	C107.262703,315.397125 108.915085,317.397888 110.325890,318.139618
	C116.940765,321.617310 123.738670,324.746887 131.163834,328.304688
M396.938324,292.500000
	C396.938324,274.632233 396.938324,256.764465 396.938324,238.686157
	C395.682800,238.930145 395.165710,238.930832 394.739349,239.127823
	C374.825012,248.329681 354.954865,257.628693 334.969818,266.673981
	C332.167786,267.942200 332.010712,269.661896 332.015259,272.105560
	C332.059479,295.937317 332.041779,319.769165 332.041718,343.601013
	C332.041687,344.833374 332.041718,346.065765 332.041718,347.520966
	C333.127960,347.251038 333.632080,347.211670 334.057312,347.007782
	C354.142456,337.379059 374.245605,327.786743 394.243103,317.979004
	C395.557648,317.334259 396.751068,315.060181 396.817810,313.493591
	C397.101196,306.839386 396.938263,300.166229 396.938324,292.500000
M296.702576,335.775360
	C304.893768,339.677185 313.084930,343.579041 321.784882,347.723206
	C321.898651,345.707275 322.032318,344.435425 322.032990,343.163483
	C322.045471,319.526215 321.950073,295.888153 322.142822,272.252472
	C322.171234,268.768707 320.857086,267.346222 317.946045,266.028168
	C298.877991,257.394531 279.888062,248.588516 260.863464,239.858688
	C259.739929,239.343109 258.537415,238.999695 257.019989,238.448410
	C257.019989,263.929962 256.958344,288.890900 257.170959,313.849518
	C257.183899,315.369080 259.054138,317.507416 260.598907,318.278320
	C272.341461,324.138031 284.218323,329.728699 296.702576,335.775360
M195.398453,261.912292
	C192.079468,263.434448 188.839340,265.174835 185.417160,266.411407
	C182.554764,267.445709 181.907333,269.161865 181.936081,272.016846
	C182.076859,285.994995 181.999893,299.975311 181.999878,313.954865
	C181.999878,325.062408 181.999878,336.169983 181.999878,347.733337
	C183.191025,347.281219 183.952316,347.054810 184.659042,346.714935
	C204.405853,337.218201 224.113647,327.639069 243.929565,318.288971
	C246.553360,317.050934 247.077469,315.572296 247.068420,312.982605
	C246.985336,289.184387 247.021393,265.385742 247.010971,241.587219
	C247.010574,240.687149 246.890106,239.787155 246.779282,238.241257
	C229.475067,246.218765 212.782928,253.914108 195.398453,261.912292
M214.768173,343.316895
	C206.404846,347.353638 198.041519,351.390350 189.518738,355.504028
	C190.172623,356.230011 190.344574,356.575134 190.617950,356.702484
	C210.336075,365.886139 230.033340,375.116302 249.842407,384.099884
	C251.435303,384.822266 254.040375,384.359741 255.772385,383.567505
	C274.345337,375.072083 292.839935,366.405273 311.344513,357.760803
	C312.469238,357.235413 313.496857,356.502258 314.976135,355.624573
	C294.664276,345.869965 274.940216,336.316040 255.099564,327.010712
	C253.349365,326.189850 250.533081,326.327118 248.728851,327.151123
	C237.554062,332.254639 226.527237,337.682190 214.768173,343.316895
M441.625641,367.075775
	C449.187469,363.579468 456.749329,360.083130 465.054077,356.243286
	C462.766205,355.060242 461.338623,354.286743 459.881287,353.574036
	C446.599884,347.078583 433.321777,340.576233 420.024200,334.114044
	C414.200470,331.283905 408.330536,326.356232 402.487610,326.365143
	C396.452637,326.374329 390.380096,331.126617 384.403076,333.970154
	C369.491913,341.064056 354.625610,348.252319 339.506317,355.515564
	C340.194763,356.170837 340.485382,356.622223 340.896942,356.814087
	C360.470154,365.938049 380.025635,375.101654 399.688232,384.029175
	C401.313629,384.767181 403.921631,384.444366 405.651489,383.671204
	C417.478058,378.385254 429.191864,372.847015 441.625641,367.075775
M376.902557,223.679657
	C361.522644,216.179550 346.185120,208.589401 330.708466,201.294586
	C328.799133,200.394653 325.766754,200.260544 323.898804,201.139771
	C305.111816,209.982849 286.456146,219.105194 267.777252,228.177200
	C266.648102,228.725586 265.635437,229.513794 264.266174,230.382202
	C284.518738,239.712280 304.251251,248.882690 324.094086,257.807831
	C325.877655,258.610077 328.675049,258.493408 330.493530,257.674774
	C347.305206,250.106552 364.005676,242.291306 380.736847,234.544235
	C383.598785,233.219086 386.452698,231.876648 390.116211,230.165863
	C385.279907,227.781509 381.432648,225.884766 376.902557,223.679657
M230.395493,40.948425
	C216.859360,47.537079 203.323212,54.125729 189.644791,60.783642
	C190.198944,61.457798 190.333344,61.773918 190.564514,61.880814
	C210.170853,70.946762 229.757599,80.056534 249.447540,88.937523
	C251.085358,89.676254 253.687592,89.447800 255.395233,88.678093
	C270.999573,81.644531 286.507355,74.396683 302.037537,67.198814
	C306.113190,65.309837 310.168640,63.377193 315.077545,61.067394
	C296.941406,52.228958 279.555725,44.305164 262.741669,35.312553
	C255.210999,31.284937 248.912857,30.370701 241.759079,35.285961
	C238.506058,37.521053 234.661514,38.895191 230.395493,40.948425
M83.101570,334.661102
	C68.591324,341.718964 54.081078,348.776794 38.870678,356.175201
	C59.684509,365.783997 79.414139,374.962006 99.243607,383.918976
	C100.894646,384.664734 103.503426,384.539764 105.188034,383.770264
	C124.076744,375.142181 142.874100,366.313965 161.683517,357.512848
	C162.662094,357.054932 163.527573,356.355316 164.765121,355.563995
	C149.337845,348.155792 134.370483,340.947021 119.382217,333.781982
	C113.695847,331.063660 107.941177,326.317383 102.254288,326.371124
	C96.367729,326.426788 90.525864,331.184509 84.663338,333.883087
	C84.360909,334.022339 84.048050,334.138916 83.101570,334.661102
M164.157028,253.310257
	C166.263214,254.294327 168.537842,255.028564 170.441940,256.312347
	C174.968277,259.364166 178.994675,258.652710 183.767212,256.338043
	C199.458542,248.727783 215.398575,241.630356 231.241959,234.333542
	C233.974548,233.075027 236.701767,231.804871 239.559738,230.480637
	C238.954041,229.737473 238.801483,229.378693 238.537079,229.250366
	C218.958389,219.746948 199.404587,210.190231 179.724472,200.901199
	C178.016113,200.094864 175.173080,200.440109 173.358810,201.304047
	C154.911041,210.088654 136.564560,219.086090 118.201591,228.048248
	C116.995018,228.637131 115.885612,229.425095 114.328926,230.362625
	C131.171631,238.140091 147.309265,245.591980 164.157028,253.310257
M141.044434,29.294863
	C140.490219,27.854916 139.936005,26.414968 139.381805,24.975023
	C139.016922,24.725513 138.652039,24.476006 138.287155,24.226498
	C135.597412,34.040188 129.198349,39.888439 119.647026,43.073502
	C129.725296,45.981625 135.754623,52.756943 139.091736,62.329052
	C141.528992,51.560894 148.479492,46.028507 158.312759,42.809322
	C150.619415,40.843227 144.513870,37.320801 141.044434,29.294863
M448.480804,241.077652
	C445.509369,237.862228 442.537903,234.646805 439.214478,231.050522
	C438.075134,237.898483 432.292297,240.880325 426.656525,244.307556
	C434.498535,245.447708 437.300507,251.325607 440.455688,258.290588
	C441.805145,249.902481 446.446564,246.133362 454.002991,244.242645
	C451.745422,243.018311 450.398254,242.287704 448.480804,241.077652
z"/>
<path fill="#87D147" opacity="1.000000" stroke="none"
	d="
M173.458069,513.000000
	C172.538010,509.547211 172.076019,506.094421 171.650986,502.917816
	C168.445511,501.995300 165.038574,501.498077 162.203568,499.952087
	C161.126709,499.364777 160.916977,496.324158 161.085358,494.471985
	C161.687393,487.849365 166.957413,489.157288 171.761078,488.892853
	C172.382065,484.089508 170.509430,477.126709 179.318542,477.984589
	C186.316391,478.666077 184.702698,484.159882 185.068069,487.753510
	C188.602448,489.037842 191.835663,489.873383 194.671494,491.431946
	C195.630722,491.959167 195.916122,494.311707 195.935837,495.837463
	C195.996658,500.546356 194.496643,501.415619 185.747467,502.322693
	C184.981918,505.679749 184.231064,508.972382 183.740112,512.632507
	C180.638718,513.000000 177.277420,513.000000 173.458069,513.000000
z"/>
<path fill="#F5C84C" opacity="1.000000" stroke="none"
	d="
M292.454102,513.000000
	C291.333862,510.756592 290.533081,508.542816 290.031982,506.263123
	C289.203308,502.493378 291.258087,499.817261 294.575684,499.395813
	C297.156982,499.067993 301.437836,499.816254 302.341583,501.496460
	C303.665710,503.958099 302.703918,507.682495 302.569427,510.862579
	C302.547211,511.388397 301.775848,511.882507 301.675354,512.695618
	C298.969391,513.000000 295.938812,513.000000 292.454102,513.000000
z"/>
<path fill="#70D6F9" opacity="1.000000" stroke="none"
	d="
M195.545898,1.000000
	C196.666031,3.234506 197.616913,5.429719 197.931854,7.712659
	C198.413437,11.203749 196.750702,14.312579 193.355240,14.621972
	C190.618347,14.871358 186.597809,13.978623 185.179916,12.076797
	C183.792984,10.216502 184.883545,6.431041 185.106766,3.507437
	C185.157776,2.839120 186.111954,2.239760 186.325226,1.304332
	C189.030594,1.000000 192.061188,1.000000 195.545898,1.000000
z"/>
<path fill="#3CA9DB" opacity="1.000000" stroke="none"
	d="
M181.998978,420.999939
	C181.998978,401.846863 181.998978,383.193787 181.998978,363.833862
	C189.294113,367.185242 196.183701,370.324219 203.051193,373.510803
	C216.474747,379.739410 229.921463,385.920868 243.255234,392.336639
	C244.839584,393.098969 246.845444,395.192352 246.858521,396.684479
	C247.080246,421.980408 247.017349,447.278839 247.017349,473.276489
	C238.571945,469.404633 230.611755,465.761292 222.656769,462.106689
	C210.267456,456.414795 197.923767,450.620300 185.461487,445.093140
	C182.725418,443.879639 181.834915,442.377319 181.935883,439.489685
	C182.145309,433.499695 181.999023,427.497253 181.998978,420.999939
z"/>
<path fill="#70D5F8" opacity="1.000000" stroke="none"
	d="
M257.019043,444.000000
	C257.019073,428.352234 256.939026,413.203461 257.129120,398.058075
	C257.150787,396.329193 258.239380,393.683746 259.586243,393.040802
	C280.087524,383.254639 300.714355,373.731506 322.044006,363.806274
	C322.044006,365.729248 322.044006,367.119293 322.044006,368.509338
	C322.044006,391.980042 321.986755,415.451080 322.111328,438.921112
	C322.128296,442.110657 321.439819,443.838226 318.236420,445.272247
	C299.296509,453.750793 280.500031,462.549683 261.654144,471.238373
	C260.333099,471.847412 259.003143,472.437073 257.019043,473.332977
	C257.019043,463.304352 257.019043,453.902191 257.019043,444.000000
z"/>
<path fill="#70D5F8" opacity="1.000000" stroke="none"
	d="
M172.000168,410.000000
	C172.000137,420.321808 172.110245,430.146088 171.887360,439.962830
	C171.851837,441.526550 170.706467,443.875519 169.423630,444.479340
	C149.144180,454.025360 128.758942,463.346649 108.389969,472.702087
	C108.128616,472.822113 107.763870,472.717010 106.980125,472.717010
	C106.980125,466.790924 106.980103,460.868927 106.980125,454.946930
	C106.980202,435.969238 106.928818,416.991119 107.070862,398.014496
	C107.083206,396.364532 107.925957,393.792419 109.131065,393.217926
	C129.786423,383.371399 150.559692,373.772247 172.000168,363.796265
	C172.000168,379.417664 172.000168,394.458832 172.000168,410.000000
z"/>
<path fill="#3CA9DB" opacity="1.000000" stroke="none"
	d="
M381.320923,386.706238
	C385.725891,388.759460 389.928314,390.412354 393.793579,392.648132
	C395.278900,393.507263 396.913513,395.687408 396.925842,397.277649
	C397.116913,421.904846 397.053436,446.534058 397.036407,471.162781
	C397.036102,471.633972 396.884521,472.105042 396.710938,473.114899
	C388.131836,469.172607 379.726837,465.311615 371.322937,461.448242
	C359.402435,455.968262 347.441315,450.572845 335.613159,444.900208
	C334.071320,444.160767 332.205292,441.999268 332.192596,440.482239
	C331.981384,415.193848 332.042053,389.903198 332.042053,363.727814
	C348.667450,371.476501 364.825653,379.007477 381.320923,386.706238
z"/>
<path fill="#6FD5F8" opacity="1.000000" stroke="none"
	d="
M436.730682,459.742554
	C426.782776,464.304901 417.177399,468.707062 407.061646,473.343140
	C407.061646,450.497223 407.618011,428.358246 406.798370,406.270355
	C406.451813,396.931091 409.107330,392.289948 417.896576,388.763794
	C434.526245,382.092224 450.569580,373.959900 466.864685,366.452240
	C468.321411,365.781097 469.837952,365.239777 471.961151,364.381775
	C471.961151,367.570221 471.961121,370.168335 471.961121,372.766479
	C471.961121,394.751709 471.883362,416.737457 472.041840,438.721558
	C472.066681,442.171753 471.148468,443.975494 467.853424,445.407135
	C457.495667,449.907318 447.319641,454.825867 436.730682,459.742554
z"/>
<path fill="#3CA9DB" opacity="1.000000" stroke="none"
	d="
M57.995453,376.004608
	C70.118309,381.588562 81.921890,386.971741 93.608620,392.597656
	C95.051521,393.292267 96.827690,395.273224 96.838455,396.670502
	C97.033134,421.966431 96.980324,447.264282 96.980324,473.300140
	C90.784462,470.432190 85.103127,467.793945 79.414757,465.170959
	C64.767075,458.416840 50.080917,451.743774 35.519531,444.808594
	C34.001438,444.085602 32.246780,441.833923 32.234016,440.278168
	C32.029049,415.291504 32.089344,390.302673 32.089344,364.086639
	C41.004131,368.200592 49.322342,372.039246 57.995453,376.004608
z"/>
<path fill="#3CA9DA" opacity="1.000000" stroke="none"
	d="
M182.146454,124.999908
	C182.146469,106.385590 182.146469,88.271248 182.146469,69.393585
	C184.165054,70.140976 185.691284,70.593010 187.121689,71.252785
	C205.975784,79.949440 224.843887,88.617294 243.608551,97.503418
	C245.121704,98.219978 246.864761,100.478493 246.877365,102.033623
	C247.080933,127.158875 247.021286,152.286255 247.021286,178.187103
	C244.418045,177.013351 242.227921,176.045532 240.054001,175.042603
	C221.954788,166.692581 203.882156,158.284119 185.735184,150.039261
	C183.107071,148.845200 181.959625,147.468033 182.073654,144.471024
	C182.313934,138.155533 182.146545,131.824524 182.146454,124.999908
z"/>
<path fill="#6FD5F8" opacity="1.000000" stroke="none"
	d="
M257.017975,169.886230
	C257.018005,147.270004 256.961761,125.135162 257.127655,103.001976
	C257.140533,101.283470 258.269684,98.644875 259.623230,98.004234
	C279.724792,88.490128 299.951416,79.240219 320.154907,69.941872
	C320.431030,69.814804 320.790222,69.868324 321.542511,69.796097
	C321.664795,70.831490 321.894714,71.874924 321.895599,72.918556
	C321.915985,96.717201 321.975403,120.516388 321.785034,144.313538
	C321.770447,146.136322 320.413757,148.902466 318.913696,149.615021
	C298.972687,159.087524 278.895355,168.273041 258.844177,177.513184
	C258.429108,177.704468 257.920959,177.693756 257.017975,177.856079
	C257.017975,175.235596 257.017975,172.801819 257.017975,169.886230
z"/>
<path fill="#3CA9DB" opacity="1.000000" stroke="none"
	d="
M130.817520,328.152710
	C123.738670,324.746887 116.940765,321.617310 110.325890,318.139618
	C108.915085,317.397888 107.262703,315.397125 107.252533,313.965546
	C107.077415,289.328308 107.141586,264.689392 107.167030,240.050873
	C107.167351,239.746063 107.346626,239.441437 107.574593,238.715866
	C108.778847,239.118225 110.020317,239.408722 111.155296,239.930756
	C130.324768,248.747574 149.502716,257.546967 168.596863,266.524475
	C170.046204,267.205933 171.845917,269.189178 171.856644,270.579834
	C172.052689,296.021515 171.999878,321.465118 171.999878,347.900818
	C157.965866,341.166290 144.564850,334.735474 130.817520,328.152710
z"/>
<path fill="#6FD5F8" opacity="1.000000" stroke="none"
	d="
M396.938324,293.000000
	C396.938263,300.166229 397.101196,306.839386 396.817810,313.493591
	C396.751068,315.060181 395.557648,317.334259 394.243103,317.979004
	C374.245605,327.786743 354.142456,337.379059 334.057312,347.007782
	C333.632080,347.211670 333.127960,347.251038 332.041718,347.520966
	C332.041718,346.065765 332.041687,344.833374 332.041718,343.601013
	C332.041779,319.769165 332.059479,295.937317 332.015259,272.105560
	C332.010712,269.661896 332.167786,267.942200 334.969818,266.673981
	C354.954865,257.628693 374.825012,248.329681 394.739349,239.127823
	C395.165710,238.930832 395.682800,238.930145 396.938324,238.686157
	C396.938324,256.764465 396.938324,274.632233 396.938324,293.000000
z"/>
<path fill="#3CA9DB" opacity="1.000000" stroke="none"
	d="
M296.377930,335.589294
	C284.218323,329.728699 272.341461,324.138031 260.598907,318.278320
	C259.054138,317.507416 257.183899,315.369080 257.170959,313.849518
	C256.958344,288.890900 257.019989,263.929962 257.019989,238.448410
	C258.537415,238.999695 259.739929,239.343109 260.863464,239.858688
	C279.888062,248.588516 298.877991,257.394531 317.946045,266.028168
	C320.857086,267.346222 322.171234,268.768707 322.142822,272.252472
	C321.950073,295.888153 322.045471,319.526215 322.032990,343.163483
	C322.032318,344.435425 321.898651,345.707275 321.784882,347.723206
	C313.084930,343.579041 304.893768,339.677185 296.377930,335.589294
z"/>
<path fill="#70D5F8" opacity="1.000000" stroke="none"
	d="
M195.744614,261.760864
	C212.782928,253.914108 229.475067,246.218765 246.779282,238.241257
	C246.890106,239.787155 247.010574,240.687149 247.010971,241.587219
	C247.021393,265.385742 246.985336,289.184387 247.068420,312.982605
	C247.077469,315.572296 246.553360,317.050934 243.929565,318.288971
	C224.113647,327.639069 204.405853,337.218201 184.659042,346.714935
	C183.952316,347.054810 183.191025,347.281219 181.999878,347.733337
	C181.999878,336.169983 181.999878,325.062408 181.999878,313.954865
	C181.999893,299.975311 182.076859,285.994995 181.936081,272.016846
	C181.907333,269.161865 182.554764,267.445709 185.417160,266.411407
	C188.839340,265.174835 192.079468,263.434448 195.744614,261.760864
z"/>
<path fill="#9AE3F7" opacity="1.000000" stroke="none"
	d="
M215.109726,343.159515
	C226.527237,337.682190 237.554062,332.254639 248.728851,327.151123
	C250.533081,326.327118 253.349365,326.189850 255.099564,327.010712
	C274.940216,336.316040 294.664276,345.869965 314.976135,355.624573
	C313.496857,356.502258 312.469238,357.235413 311.344513,357.760803
	C292.839935,366.405273 274.345337,375.072083 255.772385,383.567505
	C254.040375,384.359741 251.435303,384.822266 249.842407,384.099884
	C230.033340,375.116302 210.336075,365.886139 190.617950,356.702484
	C190.344574,356.575134 190.172623,356.230011 189.518738,355.504028
	C198.041519,351.390350 206.404846,347.353638 215.109726,343.159515
z"/>
<path fill="#9AE3F7" opacity="1.000000" stroke="none"
	d="
M441.283813,367.232971
	C429.191864,372.847015 417.478058,378.385254 405.651489,383.671204
	C403.921631,384.444366 401.313629,384.767181 399.688232,384.029175
	C380.025635,375.101654 360.470154,365.938049 340.896942,356.814087
	C340.485382,356.622223 340.194763,356.170837 339.506317,355.515564
	C354.625610,348.252319 369.491913,341.064056 384.403076,333.970154
	C390.380096,331.126617 396.452637,326.374329 402.487610,326.365143
	C408.330536,326.356232 414.200470,331.283905 420.024200,334.114044
	C433.321777,340.576233 446.599884,347.078583 459.881287,353.574036
	C461.338623,354.286743 462.766205,355.060242 465.054077,356.243286
	C456.749329,360.083130 449.187469,363.579468 441.283813,367.232971
z"/>
<path fill="#9AE3F7" opacity="1.000000" stroke="none"
	d="
M377.243988,223.833847
	C381.432648,225.884766 385.279907,227.781509 390.116211,230.165863
	C386.452698,231.876648 383.598785,233.219086 380.736847,234.544235
	C364.005676,242.291306 347.305206,250.106552 330.493530,257.674774
	C328.675049,258.493408 325.877655,258.610077 324.094086,257.807831
	C304.251251,248.882690 284.518738,239.712280 264.266174,230.382202
	C265.635437,229.513794 266.648102,228.725586 267.777252,228.177200
	C286.456146,219.105194 305.111816,209.982849 323.898804,201.139771
	C325.766754,200.260544 328.799133,200.394653 330.708466,201.294586
	C346.185120,208.589401 361.522644,216.179550 377.243988,223.833847
z"/>
<path fill="#9AE3F7" opacity="1.000000" stroke="none"
	d="
M230.740387,40.804142
	C234.661514,38.895191 238.506058,37.521053 241.759079,35.285961
	C248.912857,30.370701 255.210999,31.284937 262.741669,35.312553
	C279.555725,44.305164 296.941406,52.228958 315.077545,61.067394
	C310.168640,63.377193 306.113190,65.309837 302.037537,67.198814
	C286.507355,74.396683 270.999573,81.644531 255.395233,88.678093
	C253.687592,89.447800 251.085358,89.676254 249.447540,88.937523
	C229.757599,80.056534 210.170853,70.946762 190.564514,61.880814
	C190.333344,61.773918 190.198944,61.457798 189.644791,60.783642
	C203.323212,54.125729 216.859360,47.537079 230.740387,40.804142
z"/>
<path fill="#9AE3F7" opacity="1.000000" stroke="none"
	d="
M83.420807,334.463562
	C84.048050,334.138916 84.360909,334.022339 84.663338,333.883087
	C90.525864,331.184509 96.367729,326.426788 102.254288,326.371124
	C107.941177,326.317383 113.695847,331.063660 119.382217,333.781982
	C134.370483,340.947021 149.337845,348.155792 164.765121,355.563995
	C163.527573,356.355316 162.662094,357.054932 161.683517,357.512848
	C142.874100,366.313965 124.076744,375.142181 105.188034,383.770264
	C103.503426,384.539764 100.894646,384.664734 99.243607,383.918976
	C79.414139,374.962006 59.684509,365.783997 38.870678,356.175201
	C54.081078,348.776794 68.591324,341.718964 83.420807,334.463562
z"/>
<path fill="#9AE3F7" opacity="1.000000" stroke="none"
	d="
M163.801971,253.177063
	C147.309265,245.591980 131.171631,238.140091 114.328926,230.362625
	C115.885612,229.425095 116.995018,228.637131 118.201591,228.048248
	C136.564560,219.086090 154.911041,210.088654 173.358810,201.304047
	C175.173080,200.440109 178.016113,200.094864 179.724472,200.901199
	C199.404587,210.190231 218.958389,219.746948 238.537079,229.250366
	C238.801483,229.378693 238.954041,229.737473 239.559738,230.480637
	C236.701767,231.804871 233.974548,233.075027 231.241959,234.333542
	C215.398575,241.630356 199.458542,248.727783 183.767212,256.338043
	C178.994675,258.652710 174.968277,259.364166 170.441940,256.312347
	C168.537842,255.028564 166.263214,254.294327 163.801971,253.177063
z"/>
<path fill="#F5C84C" opacity="1.000000" stroke="none"
	d="
M141.240601,29.620405
	C144.513870,37.320801 150.619415,40.843227 158.312759,42.809322
	C148.479492,46.028507 141.528992,51.560894 139.091736,62.329052
	C135.754623,52.756943 129.725296,45.981625 119.647026,43.073502
	C129.198349,39.888439 135.597412,34.040188 138.287155,24.226498
	C138.652039,24.476006 139.016922,24.725513 139.381805,24.975023
	C139.936005,26.414968 140.490219,27.854916 141.240601,29.620405
z"/>
<path fill="#FC657E" opacity="1.000000" stroke="none"
	d="
M448.765930,241.317383
	C450.398254,242.287704 451.745422,243.018311 454.002991,244.242645
	C446.446564,246.133362 441.805145,249.902481 440.455688,258.290588
	C437.300507,251.325607 434.498535,245.447708 426.656525,244.307556
	C432.292297,240.880325 438.075134,237.898483 439.214478,231.050522
	C442.537903,234.646805 445.509369,237.862228 448.765930,241.317383
z"/>
</svg>
