<?xml version="1.0" standalone="no"?>
<!DOCTYPE svg PUBLIC "-//W3C//DTD SVG 20010904//EN"
 "http://www.w3.org/TR/2001/REC-SVG-20010904/DTD/svg10.dtd">
<svg version="1.0" xmlns="http://www.w3.org/2000/svg"
 width="512.000000pt" height="512.000000pt" viewBox="0 0 512.000000 512.000000"
 preserveAspectRatio="xMidYMid meet">

<g transform="translate(0.000000,512.000000) scale(0.100000,-0.100000)"
fill="#000000" stroke="none">
<path d="M2116 4746 c-208 -102 -384 -190 -392 -197 -20 -16 -21 -936 -1 -962
13 -17 762 -367 787 -367 25 0 774 349 788 367 9 13 12 126 12 483 0 432 -1
468 -17 482 -26 22 -763 378 -782 378 -9 0 -187 -83 -395 -184z m642 -42 c131
-63 267 -129 305 -146 37 -17 67 -34 67 -38 0 -3 -139 -71 -309 -149 l-310
-143 -310 143 c-171 79 -311 146 -311 149 1 7 602 298 618 299 8 1 120 -51
250 -115z m-609 -423 l311 -144 0 -393 0 -393 -92 43 c-51 23 -195 89 -320
147 l-228 104 0 393 c0 218 4 392 9 390 4 -1 148 -68 320 -147z m1059 -243
l-3 -391 -320 -149 c-175 -81 -321 -148 -322 -148 -2 0 -3 177 -3 394 l0 393
123 57 c67 31 208 97 312 146 105 49 196 89 203 89 10 1 12 -80 10 -391z"/>
<path d="M1367 3056 c-208 -102 -385 -190 -393 -197 -12 -10 -14 -83 -14 -453
l0 -442 -357 -174 c-197 -96 -366 -181 -375 -189 -17 -13 -18 -49 -18 -481 0
-357 3 -470 13 -483 13 -18 762 -367 787 -367 9 0 181 76 384 169 l367 170
367 -170 c201 -93 374 -169 383 -169 8 0 181 76 383 169 l367 170 367 -170
c202 -93 374 -169 383 -169 26 0 773 348 787 367 9 13 12 126 12 483 0 432 -1
468 -17 482 -10 8 -179 93 -375 188 l-358 174 0 442 c0 380 -2 443 -15 454
-25 21 -766 380 -784 380 -9 0 -178 -79 -375 -175 -198 -96 -366 -175 -374
-175 -9 0 -178 79 -376 175 -199 96 -368 175 -376 175 -8 0 -185 -83 -393
-184z m708 -73 c168 -81 305 -150 305 -154 0 -3 -139 -70 -310 -149 l-309
-143 -311 144 c-170 79 -310 146 -310 149 1 7 601 298 617 299 7 1 150 -65
318 -146z m1500 0 c167 -82 305 -151 305 -154 0 -3 -139 -70 -309 -149 l-309
-142 -311 143 c-171 78 -311 145 -311 148 0 7 600 299 618 300 6 1 149 -65
317 -146z m-2177 -392 l312 -145 0 -393 c0 -216 -3 -393 -7 -393 -5 0 -147 68
-318 150 l-310 149 -3 392 c-1 215 2 389 6 387 5 -1 149 -68 320 -147z m1062
-239 l0 -389 -112 -53 c-62 -30 -209 -100 -325 -156 l-213 -103 0 398 0 398
313 146 c171 80 318 145 325 146 9 1 12 -83 12 -387z m432 241 l318 -147 0
-394 c0 -369 -1 -394 -17 -388 -10 4 -156 73 -325 154 l-307 147 -1 388 c0
213 3 387 7 387 3 0 149 -66 325 -147z m1068 -241 l0 -389 -127 -61 c-71 -33
-217 -103 -325 -156 l-198 -95 0 398 0 398 313 146 c171 80 318 146 325 146 9
1 12 -83 12 -387z m-2635 -629 c168 -80 305 -149 305 -152 0 -3 -140 -71 -310
-150 l-310 -143 -310 143 c-170 78 -310 145 -310 148 1 8 601 299 618 300 7 1
150 -65 317 -146z m1501 0 c167 -80 304 -149 304 -152 0 -3 -139 -71 -309
-150 l-309 -143 -311 143 c-171 79 -311 147 -311 150 0 8 601 297 618 298 8 1
151 -65 318 -146z m1432 31 c131 -63 267 -129 305 -146 37 -17 67 -34 67 -38
0 -4 -139 -71 -309 -150 l-309 -142 -311 143 c-171 79 -311 147 -311 150 0 7
600 297 618 298 8 1 120 -51 250 -115z m-2555 -1055 c-6 -6 -572 -272 -630
-296 -10 -4 -13 78 -13 390 l0 395 323 150 322 150 3 -391 c1 -215 -1 -394 -5
-398z m600 561 l157 -73 0 -393 0 -393 -42 19 c-24 11 -169 77 -323 148 l-280
129 -3 396 -2 396 167 -78 c93 -43 239 -111 326 -151z m907 -167 l-1 -398
-316 -145 c-173 -80 -320 -146 -324 -148 -5 -2 -9 171 -9 391 l0 394 323 151
c177 83 323 151 325 152 1 0 2 -179 2 -397z m518 202 l232 -108 0 -393 0 -393
-57 26 c-32 15 -177 82 -323 149 l-265 121 -3 396 -2 396 92 -43 c51 -23 198
-91 326 -151z m-3080 35 l312 -144 0 -393 0 -392 -72 33 c-40 18 -184 84 -320
147 l-248 114 0 393 c0 216 3 391 8 389 4 -2 148 -68 320 -147z m4060 -242
l-3 -392 -319 -148 c-175 -81 -321 -148 -322 -148 -2 0 -4 177 -4 394 l0 393
313 146 c171 80 318 146 325 146 10 1 12 -80 10 -391z"/>
</g>
</svg>
