<svg xmlns="http://www.w3.org/2000/svg" xml:space="preserve" id="Layer_1" x="0" y="0" version="1.1" viewBox="48.9 -1.51 413.2 514.96"><style>.st0{fill-rule:evenodd;clip-rule:evenodd;fill:#7acdc9}.st0,.st1,.st2{stroke:#000;stroke-width:3;stroke-linecap:round}.st1{fill-rule:evenodd;clip-rule:evenodd;fill:#f6d2a2}.st2{fill:none}.st6{fill:#010101}.st7{stroke:#000;stroke-width:3;stroke-linecap:round}.st7,.st8{fill-rule:evenodd;clip-rule:evenodd;fill:#fff}.st11{fill:#febd19}.st15{fill:none}.st16{fill:#f6f6f6;stroke:#010101;stroke-width:2;stroke-miterlimit:10}</style><path d="M101.6 99.4C43.9 83.1 86.8 9.7 133.2 39.9zm256.4-65c45.7-32.1 87 40.3 33.9 58.5z" class="st0"/><path d="M367.9 464.5c11.6 7.2 32.8 28.9 15.4 39.4-16.7 15.3-26.1-16.8-40.7-21.2 6.2-8.7 14.2-16.5 25.3-18.2z" class="st1"/><path d="M383.3 503.9c-2.6-5.1-3.4-11.1-7.8-15.2" class="st2"/><path d="M160.5 489c-13.6 2.1-21.2 14.4-32.7 20.6-10.6 6.4-14.8-2.1-15.7-3.7-1.8-.8-1.5.7-4.1-1.9-9.9-15.7 10.3-27.1 20.9-34.9 14.7-2.9 23.9 9.8 31.6 19.9z" class="st1"/><path d="M112.2 505.9c.5-6 5.3-10 7.5-15" class="st2"/><path d="M104 79.1c-7.6-4-13.2-9.5-8.5-18.3 4.3-8.2 12.4-7.3 20-3.2zm275.8-7.7c7.6-4 13.2-9.5 8.5-18.3-4.3-8.2-12.4-7.3-19.9-3.2z" style="fill-rule:evenodd;clip-rule:evenodd"/><path d="M243.8 3.9c7.2 0 14.4.1 21.5.5 2.5.1 7.8-4.6 10.2-4.4 3.8.3 4.7 5.4 8.3 5.8 41.9 4.7 78.6 19.5 100.1 61.9 7 17.6 11.9 36 14.5 54.8.3 2 5.9 2.7 6.2 4.7.3 2.4-4.8 6.1-4.5 8.5 4.4 41.8 1.6 84.6 4.1 127 2.3 39.8 6.7 84-.1 125-.5 3 3 7.3 2.4 10.2-.7 3.4-5.5 5.3-6.4 8.6-2.7 10.4-6.5 20.5-11.3 30.2-11.8 23.7-31.3 39.7-54.1 50.2-4.6 2.1-8.1 10.2-13 11.8-5.3 1.8-12.2-2.7-17.7-1.4-22.4 5.1-45.3 7.2-68.3 6.3-44.7-1.6-98.5-16.1-123.7-56.8-14.1-22.9-18.3-51.1-18.6-80.2 0-4.7-9.1-9.9-8.9-14.6s9.5-9.5 9.8-14.5c1.3-21.9 3.5-43.4 4.4-62.6 1.8-45.5-7.9-91-5.6-136 .3-7.5-12.1-15.1 2.1-22.3 8.8-4.5 3.8-19.6 7.1-29.3 8-24 21.2-41 37.8-53.1 3.5-2.5 4.4-10.7 8.1-12.9 4.2-2.4 11.2 1.3 15.8-.6 23.5-10.2 51.2-14.5 79.8-16.8" class="st0"/><path d="M254 81.5c10.4 60.3 108.9 44.4 94.8-16.5-12.7-54.5-98.3-39.4-94.8 16.5" style="fill-rule:evenodd;clip-rule:evenodd;fill:#fff;stroke:#000;stroke-width:2.91;stroke-linecap:round"/><path d="M136.2 91.2c13.4 52.5 97.5 39.1 94.3-13.6-3.8-63-107.2-50.9-94.3 13.6" style="fill-rule:evenodd;clip-rule:evenodd;fill:#fff;stroke:#000;stroke-width:2.82;stroke-linecap:round"/><ellipse cx="248" cy="177.7" class="st6" rx="30.1" ry="38.9"/><path d="M265.9 153.8c0 7.8 1.8 16.6.3 25-2 3.8-5.9 4.2-9.3 5.7-4.7-.7-8.6-3.8-10.5-8.2-1.2-9.5.4-18.7.8-28.3z" class="st7"/><ellipse cx="185.9" cy="80.9" rx="14.2" ry="15.4"/><path d="M193.2 80.6c.4 3.4-2 6.6-5.4 7s-6.6-2-7-5.4c-.1-.5-.1-1.1 0-1.6-.4-3.4 2-6.6 5.4-7s6.6 2 7 5.4z" class="st8"/><ellipse cx="304.8" cy="77" rx="14" ry="15.4"/><path d="M313.5 76.9c0 4.9-3.3 8.8-7.5 8.8s-7.6-3.9-7.6-8.8 3.3-8.8 7.5-8.8 7.6 3.9 7.6 8.8" class="st8"/><path d="M225.3 153c-6.2 15 3.5 45 20.3 22.9-1.2-9.5.4-18.7.7-28.3z" class="st7"/><path d="M227.4 124.1c-11.5 1-21 14.7-15 25.6 7.9 14.4 25.7-1.3 36.7.2 12.7.3 23.1 13.4 33.3 2.4 11.4-12.4-4.9-24.3-17.6-29.6z" style="fill-rule:evenodd;clip-rule:evenodd;fill:#f6d2a2;stroke:#231f20;stroke-width:3;stroke-linecap:round"/><path d="M225.9 123.5c-.8-20 37.3-22.5 41.8-5.8s-39.9 20.7-41.8 5.8" style="fill-rule:evenodd;clip-rule:evenodd;fill:#010101"/><path id="lighting_bolt" d="m383 232 35.6-11.8-4.5-5.5 32-14.2-23.3 15.4 6.5 6.9z" class="st11"/><path id="lighting_bolt-2" d="m55.8 301 35.6-11.9-4.6-5.4 32.1-14.2-23.3 15.4 6.5 6.9z" class="st11"/><path d="M100.2 251.8s2.8 25.7-7.8 20.4c-8.8 12.4-17.9-4.8-17.9-4.8-1.6-5.4-1.5-11.1.2-16.4 4-11.2 21.8-16.7 25.5.8zm328.3 13.7s2.8-25.8-7.8-20.4c-8.8-12.4-17.8 4.8-17.8 4.8s-5.1 5.8.2 16.4c5.2 10.6 17.3 14.3 25.4-.8z" class="st1"/><g id="dns_logo"><circle cx="421.4" cy="165.3" r="40.7" style="fill:#f6f6f6"/><path d="M421.4 206c-22.5 0-40.7-18.2-40.7-40.7s18.2-40.7 40.7-40.7 40.7 18.2 40.7 40.7-18.3 40.7-40.7 40.7m0-76.7c-19.9 0-36.1 16.1-36.1 36.1s16.1 36.1 36.1 36.1c19.9 0 36.1-16.1 36.1-36.1-.1-20-16.2-36.1-36.1-36.1" class="st6"/><text class="st6" style="font-family:&quot;Arial-BoldMT&quot;;font-size:24.744px" transform="translate(394.559 174.097)">DNS</text><path d="M420.9 129.6c12.5 0 15.7 21.9 15.7 21.9h5.5s-6-26.8-21.2-26.8zm0 0c-12.5 0-15.7 21.9-15.7 21.9h-5.5s6-26.8 21.2-26.8z" class="st6"/><path d="M421.4 127v24.5" class="st15"/><path d="M419.1 127h4.6v24.5h-4.6z" class="st6"/><path d="M421.4 179.2v24.5" class="st15"/><path d="M419.1 179.2h4.6v24.5h-4.6zM383 163h8.8v4.6H383zm67.5 0h8.8v4.6h-8.8zm-26.4-14.4c-11.3-.1-22.4-2-33.1-5.6l1.6-4.3c.4.1 32.7 11.7 57.3.1l1.9 4.2c-8.6 3.9-18.1 5.8-27.7 5.6" class="st6"/><path d="M420.9 201.1c12.5 0 15.7-21.8 15.7-21.8h5.5s-6 26.8-21.2 26.8zm0 0c-12.5 0-15.7-21.8-15.7-21.8h-5.5s6 26.8 21.2 26.8z" class="st6"/><path d="m391.9 193.4-1.6-4.4c1.4-.5 34.4-12.4 60.9 0l-2 4.2c-24.7-11.5-57 0-57.3.2" class="st6"/></g><g id="server"><path d="M55.2 306.8H119c2.9 0 5.3 2.4 5.3 5.3v12.5c0 2.9-2.4 5.3-5.3 5.3H55.2c-2.9 0-5.3-2.4-5.3-5.3v-12.5c0-2.9 2.4-5.3 5.3-5.3z" class="st16"/><path d="M58.1 315.7h3.2c.6 0 1.1.5 1.1 1.1v3.2c0 .6-.5 1.1-1.1 1.1h-3.2c-.6 0-1.1-.5-1.1-1.1v-3.2c0-.7.5-1.1 1.1-1.1m15.9 0h3.2c.6 0 1.1.5 1.1 1.1v3.2c0 .6-.5 1.1-1.1 1.1H74c-.6 0-1.1-.5-1.1-1.1v-3.2c0-.7.5-1.1 1.1-1.1m-8 0h3.2c.6 0 1.1.5 1.1 1.1v3.2c0 .6-.5 1.1-1.1 1.1H66c-.6 0-1.1-.5-1.1-1.1v-3.2c.1-.7.6-1.1 1.1-1.1" class="st6"/></g><g id="server-2"><path d="M55.2 335.1H119c2.9 0 5.3 2.4 5.3 5.3v12.5c0 2.9-2.4 5.3-5.3 5.3H55.2c-2.9 0-5.3-2.4-5.3-5.3v-12.5c0-2.9 2.4-5.3 5.3-5.3z" class="st16"/><path d="M58.1 344h3.2c.6 0 1.1.5 1.1 1.1v3.2c0 .6-.5 1.1-1.1 1.1h-3.2c-.6 0-1.1-.5-1.1-1.1V345c0-.6.5-1 1.1-1m15.9 0h3.2c.6 0 1.1.5 1.1 1.1v3.2c0 .6-.5 1.1-1.1 1.1H74c-.6 0-1.1-.5-1.1-1.1V345c0-.6.5-1 1.1-1m-8 0h3.2c.6 0 1.1.5 1.1 1.1v3.2c0 .6-.5 1.1-1.1 1.1H66c-.6 0-1.1-.5-1.1-1.1V345c.1-.6.6-1 1.1-1" class="st6"/></g><g id="server-3"><path d="M55.2 363.4H119c2.9 0 5.3 2.4 5.3 5.3v12.5c0 2.9-2.4 5.3-5.3 5.3H55.2c-2.9 0-5.3-2.4-5.3-5.3v-12.5c0-2.9 2.4-5.3 5.3-5.3z" class="st16"/><path d="M58.1 372.3h3.2c.6 0 1.1.5 1.1 1.1v3.2c0 .6-.5 1.1-1.1 1.1h-3.2c-.6 0-1.1-.5-1.1-1.1v-3.2c0-.7.5-1.1 1.1-1.1m15.9 0h3.2c.6 0 1.1.5 1.1 1.1v3.2c0 .6-.5 1.1-1.1 1.1H74c-.6 0-1.1-.5-1.1-1.1v-3.2c0-.7.5-1.1 1.1-1.1m-8 0h3.2c.6 0 1.1.5 1.1 1.1v3.2c0 .6-.5 1.1-1.1 1.1H66c-.6 0-1.1-.5-1.1-1.1v-3.2c.1-.7.6-1.1 1.1-1.1" class="st6"/></g></svg>
