<?xml version="1.0" standalone="no"?>
<!DOCTYPE svg PUBLIC "-//W3C//DTD SVG 20010904//EN"
 "http://www.w3.org/TR/2001/REC-SVG-20010904/DTD/svg10.dtd">
<svg version="1.0" xmlns="http://www.w3.org/2000/svg"
 width="512.000000pt" height="512.000000pt" viewBox="0 0 512.000000 512.000000"
 preserveAspectRatio="xMidYMid meet">

<g transform="translate(0.000000,512.000000) scale(0.100000,-0.100000)"
fill="#000000" stroke="none">
<path d="M162 928 l3 -673 26 -55 c37 -80 81 -125 157 -162 l67 -33 2145 0
2145 0 55 26 c80 37 125 81 162 157 l33 67 3 672 3 673 -321 0 -320 0 0 -480
0 -480 -1760 0 -1760 0 0 480 0 480 -320 0 -321 0 3 -672z"/>
</g>
</svg>
