<?xml version="1.0" encoding="UTF-8"?>
<svg version="1.1" xmlns="http://www.w3.org/2000/svg" width="512" height="512">
<path d="M0 0 C0.73250977 -0.00700928 1.46501953 -0.01401855 2.21972656 -0.02124023 C4.62604382 -0.03875584 7.03117209 -0.02722142 9.4375 -0.01367188 C11.11849186 -0.01636866 12.79948221 -0.02025264 14.48046875 -0.02526855 C17.99754743 -0.03115485 21.5142188 -0.02262896 25.03125 -0.00390625 C29.53052189 0.01888312 34.02883927 0.00575532 38.52807617 -0.01819611 C41.99746847 -0.03267779 45.46663594 -0.02803731 48.93603516 -0.01768494 C50.59456496 -0.01502418 52.25311544 -0.01826444 53.91162109 -0.02760315 C56.23329421 -0.03780834 58.55344011 -0.02221466 60.875 0 C62.19371094 0.00318237 63.51242187 0.00636475 64.87109375 0.00964355 C70.2634298 0.77763063 73.15061472 2.96051062 76.58102036 7.11113167 C78.9340868 11.42876309 78.98752291 14.53546036 78.91851807 19.3633728 C78.92193577 20.24237956 78.92535347 21.12138631 78.92887473 22.02702963 C78.9354521 24.96610768 78.91347983 27.90426811 78.89160156 30.84326172 C78.89047305 32.95249408 78.89110701 35.06172802 78.89337158 37.17095947 C78.89451952 42.89369985 78.87099696 48.61610506 78.84307575 54.33876753 C78.8180756 60.32052379 78.81572118 66.30228769 78.81097412 72.28408813 C78.79854031 83.60998879 78.76571306 94.93573505 78.72557616 106.26156771 C78.6808712 119.15624023 78.65887459 132.0509201 78.63879442 144.94565082 C78.59698091 171.46971219 78.52662082 197.99363651 78.4375 224.51757812 C79.30114166 224.50869568 80.16478333 224.49981323 81.05459595 224.49066162 C89.2054158 224.41041473 97.35610241 224.34956248 105.50722694 224.31032944 C109.69753538 224.28948094 113.88751659 224.26121396 118.07763672 224.21582031 C122.12362242 224.17226393 126.16929395 224.14842042 130.21549606 224.13806915 C131.75684935 224.13069526 133.29818602 224.11629555 134.83940506 224.0946579 C137.00349936 224.06549202 139.16630625 224.06162737 141.33056641 224.06347656 C142.56078522 224.05459412 143.79100403 224.04571167 145.0585022 224.03656006 C150.52493438 224.81473536 153.52966979 227.3230647 156.8125 231.64257812 C159.1103474 236.14172472 159.19789882 240.58699207 158.4375 245.51757812 C156.07084786 251.27986161 152.05599392 255.31745766 147.8515625 259.85742188 C145.50394777 262.44435656 143.30785802 265.10349002 141.125 267.83007812 C137.23429292 272.64423401 133.10749534 277.16682146 128.87963867 281.6809082 C125.76225274 285.02822055 122.80190833 288.447446 119.9375 292.01757812 C116.11755989 296.7786629 112.04811181 301.23030838 107.87890625 305.68164062 C104.76181446 309.02874682 101.80168887 312.44771953 98.9375 316.01757812 C95.11755989 320.7786629 91.04811181 325.23030838 86.87890625 329.68164062 C83.76181446 333.02874682 80.80168887 336.44771953 77.9375 340.01757812 C74.11755989 344.7786629 70.04811181 349.23030838 65.87890625 353.68164062 C62.76181446 357.02874682 59.80168887 360.44771953 56.9375 364.01757812 C53.46250754 368.33114281 49.85526982 372.48764619 46.125 376.58007812 C45.62097656 377.14082031 45.11695313 377.7015625 44.59765625 378.27929688 C41.09197692 382.08492738 38.79166809 384.23560256 33.6328125 384.85351562 C32.61960937 384.86640625 31.60640625 384.87929688 30.5625 384.89257812 C29.55445313 384.9209375 28.54640625 384.94929688 27.5078125 384.97851562 C21.13915805 384.0224072 17.26994888 379.56671754 13.125 374.95507812 C12.6498999 374.42841553 12.1747998 373.90175293 11.68530273 373.35913086 C7.91521601 369.14483643 4.36002131 364.77098118 0.81640625 360.36523438 C-2.3597857 356.56319179 -5.73520822 352.9685406 -9.12084961 349.35375977 C-13.0224667 345.16428287 -16.63574797 340.79584877 -20.21875 336.33007812 C-22.89458171 333.11908007 -25.70608276 330.06728676 -28.5625 327.01757812 C-33.00082674 322.27891348 -37.1539225 317.39638487 -41.21875 312.33007812 C-43.89458171 309.11908007 -46.70608276 306.06728676 -49.5625 303.01757812 C-54.00082674 298.27891348 -58.1539225 293.39638487 -62.21875 288.33007812 C-64.89458492 285.11907622 -67.70612569 282.0673318 -70.5625 279.01757812 C-75.05536855 274.21938958 -79.28513262 269.2852676 -83.39453125 264.15039062 C-86.32160307 260.59571242 -89.45106069 257.24631962 -92.6171875 253.90429688 C-96.78486712 248.79093894 -98.13392989 244.45239895 -97.91015625 237.98242188 C-97.18257514 232.82395357 -94.95303485 229.63182003 -90.85824585 226.35064697 C-87.0377116 224.2256948 -84.80002844 224.03210861 -80.45556641 224.06347656 C-79.43012726 224.0626004 -79.43012726 224.0626004 -78.38397217 224.06170654 C-76.14347025 224.06447442 -73.90432949 224.09550132 -71.6640625 224.12695312 C-70.10322801 224.13442021 -68.54238411 224.14011094 -66.98153687 224.144104 C-62.88781522 224.15932372 -58.79466778 224.19857305 -54.70117188 224.24291992 C-50.51830817 224.28395229 -46.33535102 224.30213195 -42.15234375 224.32226562 C-33.95546665 224.36507165 -25.7590549 224.43327758 -17.5625 224.51757812 C-17.56618717 223.42021017 -17.56987434 222.32284222 -17.57367325 221.19222069 C-17.66243516 194.50219472 -17.72818577 167.81218787 -17.76974869 141.12204552 C-17.79038197 128.21493665 -17.81851735 115.30792523 -17.86425781 102.40087891 C-17.90410195 91.15230578 -17.92992724 79.90380323 -17.93885398 68.6551615 C-17.94407279 62.6979808 -17.95635511 56.741002 -17.98542023 50.78388596 C-18.01255084 45.17789306 -18.02094965 39.57218543 -18.01493073 33.96613312 C-18.01603201 31.90778936 -18.02399973 29.84943616 -18.0393219 27.79114914 C-18.05921274 24.98153924 -18.05444231 22.17300746 -18.04351807 19.3633728 C-18.05516943 18.54818692 -18.0668208 17.73300103 -18.07882524 16.89311254 C-18.02359732 11.64095119 -17.01610737 8.69627212 -13.5625 4.51757812 C-9.03823413 0.70142191 -5.8581698 0.0141372 0 0 Z " fill="#2196F3" transform="translate(225.5625,-0.517578125)"/>
<path d="M0 0 C21.12 0 42.24 0 64 0 C64 31.68 64 63.36 64 96 C180.16 96 296.32 96 416 96 C416 64.32 416 32.64 416 0 C437.12 0 458.24 0 480 0 C480.16121214 33.74259587 480.16121214 33.74259587 480.1953125 47.90429688 C480.2190284 57.67480893 480.24687803 67.4451828 480.30175781 77.21557617 C480.341711 84.33195909 480.36745301 91.44822968 480.37635398 98.56472164 C480.38155445 102.3305506 480.39371875 106.0960583 480.42292023 109.86178398 C480.45022386 113.41178625 480.45841521 116.96133725 480.45243073 120.51143456 C480.4540428 122.42417556 480.47548706 124.33686827 480.49768066 126.2494812 C480.46363808 133.41067616 479.60382887 138.77097269 476 145 C475.62168156 145.65394965 475.24336311 146.3078993 474.85358047 146.98166561 C470.64583866 153.8761477 463.61395111 157.84903253 456 160 C453.51836188 160.17913945 451.02824268 160.25458313 448.54014874 160.25726891 C447.80654461 160.26077498 447.07294048 160.26428105 446.31710592 160.26789337 C443.85754299 160.27720134 441.39821715 160.27228565 438.93864441 160.26742554 C437.15796459 160.2711621 435.37728642 160.27576364 433.59661084 160.28115618 C428.70204379 160.2934008 423.80754501 160.29312399 418.91296613 160.29076743 C413.63472079 160.29035964 408.35649745 160.30139482 403.07826233 160.31088257 C392.73679102 160.3275014 382.3953425 160.33299251 372.05385896 160.33410732 C363.64875477 160.33505735 355.2436581 160.33916536 346.83855629 160.34550858 C323.01378006 160.36312315 299.18902185 160.37234707 275.36423906 160.37084763 C274.0796139 160.37076772 272.79498874 160.3706878 271.47143555 160.37060547 C270.18524377 160.37052371 268.89905199 160.37044195 267.5738847 160.37035771 C246.72576738 160.36954467 225.87772228 160.38868615 205.02962586 160.4168822 C183.62808244 160.44559862 162.22657425 160.45942319 140.82501107 160.45769465 C128.80758223 160.45703033 116.79022911 160.46254088 104.77281761 160.48405075 C94.54153925 160.50224614 84.31037093 160.50662334 74.07908341 160.4930319 C68.85873778 160.48649409 63.63860338 160.48641454 58.41827774 160.5037384 C53.63827426 160.51943795 48.85865005 160.51663731 44.078656 160.49917014 C42.35055576 160.49609339 40.62242744 160.49975801 38.89436033 160.51089029 C22.38350059 160.61019933 22.38350059 160.61019933 15 156 C14.35112436 155.6217336 13.70224872 155.2434672 13.03371018 154.85373819 C6.09131076 150.65396556 2.21396446 143.61288476 0 136 C-0.24609566 133.13775063 -0.24609566 133.13775063 -0.24050903 130.11538696 C-0.24325836 128.96281403 -0.24600769 127.81024109 -0.24884033 126.6227417 C-0.24164978 125.37261292 -0.23445923 124.12248413 -0.22705078 122.83447266 C-0.22648613 121.49370329 -0.22680428 120.15293331 -0.22793579 118.81216431 C-0.22850821 115.18448153 -0.21677194 111.55693175 -0.20278788 107.9292798 C-0.19026199 104.13363607 -0.18910855 100.33798909 -0.18673706 96.54232788 C-0.18052775 89.36014021 -0.16412437 82.17801363 -0.14403808 74.99585283 C-0.11747576 65.28676314 -0.106702 55.57765668 -0.09503365 45.86853981 C-0.07624337 30.57898081 -0.03639406 15.2895507 0 0 Z " fill="#607D8B" transform="translate(16,352)"/>
</svg>
