<?xml version="1.0" encoding="UTF-8"?>
<svg version="1.1" xmlns="http://www.w3.org/2000/svg" width="512" height="512">
<path d="M0 0 C0.69174316 -0.01022186 1.38348633 -0.02044373 2.09619141 -0.03097534 C4.3732404 -0.05867843 6.64907248 -0.05686124 8.92626953 -0.05224609 C10.51661627 -0.06002576 12.10695887 -0.06869629 13.69729614 -0.07821655 C17.02782672 -0.09312218 20.35793324 -0.09257331 23.68847656 -0.08203125 C27.9447683 -0.07045089 32.19931674 -0.10428446 36.45532036 -0.1507206 C39.73949229 -0.18027029 43.02324811 -0.18192877 46.30752945 -0.17570114 C47.87595189 -0.17672411 49.44439868 -0.18713492 51.0126915 -0.20732498 C64.76172834 -0.36259721 64.76172834 -0.36259721 69.20019531 2.90722656 C75.60119881 9.98564732 76.72538783 20.65706703 78.39501953 29.68212891 C79.1127014 33.15769655 79.84700831 36.62952155 80.58154297 40.1015625 C81.06602885 42.48074586 81.51897378 44.86657301 81.93994141 47.2578125 C83.91189552 60.70235841 83.91189552 60.70235841 91.30187988 71.47888184 C96.70110076 74.53891431 102.35742838 76.28847496 108.3538208 77.78460693 C110.92179426 78.54567469 112.98468676 79.55768265 115.31054688 80.87011719 C118.67450674 82.85795082 118.67450674 82.85795082 121.49243164 82.0559082 C122.29817627 81.55873291 123.1039209 81.06155762 123.93408203 80.54931641 C125.02793213 79.93548096 126.12178223 79.32164551 127.2487793 78.68920898 C128.50152302 77.94439981 129.75197604 77.19572844 131.00048828 76.44384766 C131.6752269 76.04155441 132.34996552 75.63926117 133.04515076 75.22477722 C135.19766735 73.94050183 137.34720856 72.65134388 139.49658203 71.36181641 C140.91369359 70.51446634 142.33100956 69.66745803 143.74853516 68.82080078 C144.4427356 68.40600967 145.13693604 67.99121857 145.85217285 67.56385803 C147.23808708 66.73661437 148.62455858 65.91030357 150.01159668 65.08494568 C153.16349893 63.20898551 156.3078875 61.32407743 159.43017578 59.39916992 C160.99638672 58.44868774 160.99638672 58.44868774 162.59423828 57.47900391 C163.49150635 56.92583496 164.38877441 56.37266602 165.31323242 55.80273438 C169.70876941 53.70057444 174.22161185 53.38194157 178.93408203 54.54931641 C185.12019356 58.05428464 189.82766538 63.13706317 194.82080078 68.13525391 C195.76889218 69.07945166 196.71720434 70.02342778 197.66572571 70.9671936 C199.64506433 72.93910157 201.62052413 74.91479893 203.59350586 76.89306641 C206.11346609 79.41882925 208.64463131 81.93302098 211.17904949 84.44426537 C213.13776861 86.38820809 215.08946954 88.33908148 217.03925514 90.29198074 C218.41913123 91.671099 219.805538 93.04367308 221.19206238 94.41610718 C222.03336197 95.26363556 222.87466156 96.11116394 223.74145508 96.984375 C224.4805864 97.72287689 225.21971771 98.46137878 225.98124695 99.22225952 C229.74208335 103.70378503 231.69266101 108.08137622 231.37524414 113.89770508 C229.66996372 124.14731807 221.79479201 133.96498385 216.37158203 142.73681641 C215.62173418 143.95460831 214.87238337 145.17270642 214.12353516 146.39111328 C213.75802551 146.98556244 213.39251587 147.5800116 213.01593018 148.19247437 C211.9550029 149.9267019 210.90554576 151.66748679 209.85693359 153.40917969 C208.67600432 155.33771097 207.45647362 157.24398339 206.17529297 159.10742188 C203.49620382 163.09024449 203.49620382 163.09024449 203.22387695 167.71606445 C204.07141655 170.05024205 205.10704603 172.12714845 206.30908203 174.29931641 C207.05037493 175.75024556 207.7872509 177.20343861 208.52001953 178.65869141 C208.90362137 179.37656326 209.28722321 180.09443512 209.68244934 180.83406067 C210.93408203 183.54931641 210.93408203 183.54931641 211.8000946 186.71562195 C213.69702355 193.51909303 213.69702355 193.51909303 218.6206665 198.24703979 C222.10054273 199.43341099 225.51208385 200.24044681 229.11767578 200.95947266 C230.42017639 201.26238965 231.72144918 201.57063023 233.02149963 201.88389587 C236.43063584 202.69214406 239.85063696 203.43492897 243.27783203 204.16223145 C248.10131835 205.19796489 252.90537996 206.32079614 257.71095276 207.43614197 C260.2658878 208.02906577 262.82195684 208.59265859 265.3870697 209.14259338 C274.05651827 211.06349421 279.8010705 212.89120208 284.93408203 220.54931641 C285.45547485 223.83688354 285.45547485 223.83688354 285.48339844 227.61523438 C285.49873123 228.65284912 285.49873123 228.65284912 285.51437378 229.71142578 C285.54207687 231.98847478 285.54025968 234.26430685 285.53564453 236.54150391 C285.5434242 238.13185064 285.55209473 239.72219325 285.56161499 241.31253052 C285.57652062 244.64306109 285.57597174 247.97316762 285.56542969 251.30371094 C285.55384932 255.56000268 285.5876829 259.81455111 285.63411903 264.07055473 C285.66366872 267.35472667 285.66532721 270.63848249 285.65909958 273.92276382 C285.66012254 275.49118626 285.67053336 277.05963306 285.69072342 278.62792587 C285.84599564 292.37696271 285.84599564 292.37696271 282.57617188 296.81542969 C275.50240185 303.21287312 264.782084 304.36398414 255.76611328 306.08056641 C253.46754911 306.56393711 251.17004564 307.05237457 248.87353516 307.54541016 C245.30473895 308.31139808 241.74097291 309.05034068 238.15014648 309.70605469 C224.89253651 311.65687805 224.89253651 311.65687805 214.105896 318.71435547 C211.30427809 323.5993878 209.83634808 328.69453572 208.60214233 334.15844727 C207.91402937 336.62108131 206.95044567 338.57441382 205.70678711 340.80126953 C204.2757118 343.51117313 203.93341319 344.4777392 203.96313477 347.65844727 C205.09765404 351.03633077 206.59139825 353.77234318 208.46923828 356.80322266 C208.82618271 357.38539047 209.18312714 357.96755829 209.55088806 358.56736755 C210.69044402 360.42125677 211.84313596 362.26654476 212.99658203 364.11181641 C213.74421868 365.32285481 214.49097071 366.53443981 215.23681641 367.74658203 C217.84155747 371.97303153 220.46044063 376.19063497 223.09100342 380.40106201 C224.20661348 382.18718561 225.31857436 383.97553998 226.43017578 385.76416016 C227.08042725 386.80564209 227.73067871 387.84712402 228.40063477 388.92016602 C230.33984881 392.24501812 231.11881275 394.9373614 231.24658203 398.73681641 C231.28396484 399.45224609 231.32134766 400.16767578 231.35986328 400.90478516 C229.93109223 409.77889526 223.62773786 415.40266618 217.49658203 421.41259766 C216.57949463 422.32639694 215.66240723 423.24019623 214.7175293 424.1816864 C212.78689861 426.10472152 210.85004039 428.02115177 208.90771484 429.93237305 C206.42439529 432.37598154 203.95208948 434.8303603 201.48371887 437.28905964 C199.1165085 439.64628016 196.74422161 441.99834087 194.37158203 444.35009766 C193.48607666 445.22821609 192.60057129 446.10633453 191.68823242 447.01106262 C190.86057373 447.82588608 190.03291504 448.64070953 189.18017578 449.48022461 C188.45499756 450.19555862 187.72981934 450.91089264 186.98266602 451.64790344 C182.55314398 455.759207 179.73381309 457.3723353 173.70532227 457.75341797 C169.48968758 457.52526554 167.12672874 456.5498138 163.40673828 454.59619141 C162.80853775 454.28397644 162.21033722 453.97176147 161.5940094 453.65008545 C154.68416935 449.98795404 148.02133271 445.90864266 141.37158203 441.79931641 C140.12906829 441.03706795 138.88623046 440.27534754 137.64306641 439.51416016 C135.37662511 438.12579423 133.11249738 436.73392582 130.84985352 435.33935547 C129.40654663 434.45328613 129.40654663 434.45328613 127.93408203 433.54931641 C127.04205078 432.97439453 126.15001953 432.39947266 125.23095703 431.80712891 C122.01871038 430.04804146 120.4185578 430.55748061 116.93408203 431.54931641 C114.52518942 432.57578611 112.20850331 433.63209749 109.87158203 434.79931641 C108.67489979 435.39299858 107.475552 435.9813308 106.27392578 436.56494141 C105.34379166 437.02805977 105.34379166 437.02805977 104.39486694 437.50053406 C101.93408203 438.54931641 101.93408203 438.54931641 98.82156372 439.37336731 C91.98922096 441.29347263 91.98922096 441.29347263 87.23420715 446.23757935 C86.04975972 449.71684909 85.24272031 453.12847821 84.52392578 456.73291016 C84.22100878 458.03541077 83.9127682 459.33668355 83.59950256 460.63673401 C82.79125438 464.04587021 82.04846946 467.46587134 81.32116699 470.89306641 C80.28543354 475.71655272 79.1626023 480.52061434 78.04725647 485.32618713 C77.45433267 487.88112217 76.89073985 490.43719122 76.34080505 493.00230408 C74.41990423 501.67175265 72.59219636 507.41630488 64.93408203 512.54931641 C61.64651489 513.07070923 61.64651489 513.07070923 57.86816406 513.09863281 C56.83054932 513.11396561 56.83054932 513.11396561 55.77197266 513.12960815 C53.49492366 513.15731125 51.21909158 513.15549406 48.94189453 513.15087891 C47.35154779 513.15865858 45.76120519 513.16732911 44.17086792 513.17684937 C40.84033734 513.19175499 37.51023082 513.19120612 34.1796875 513.18066406 C29.92339576 513.1690837 25.66884732 513.20291727 21.4128437 513.24935341 C18.12867177 513.2789031 14.84491595 513.28056158 11.56063461 513.27433395 C9.99221217 513.27535692 8.42376538 513.28576773 6.85547256 513.30595779 C-6.89356428 513.46123002 -6.89356428 513.46123002 -11.33203125 510.19140625 C-17.72947468 503.11763622 -18.88058571 492.39731837 -20.59716797 483.38134766 C-21.08053868 481.08278349 -21.56897614 478.78528002 -22.06201172 476.48876953 C-22.82799964 472.91997333 -23.56694224 469.35620728 -24.22265625 465.76538086 C-26.17235838 452.48586885 -26.17235838 452.48586885 -33.26519775 441.70703125 C-38.19359139 438.89332621 -43.33032474 437.39394406 -48.83499146 436.13635254 C-52.6036285 435.14469006 -55.70499067 433.18091069 -58.99560547 431.16650391 C-62.14916692 430.22638559 -64.02673331 431.36144799 -67.06591797 432.54931641 C-69.5368109 433.89418887 -71.93529375 435.26575801 -74.33544922 436.72509766 C-75.01588791 437.13213425 -75.6963266 437.53917084 -76.39738464 437.95854187 C-78.56106028 439.25417596 -80.71989337 440.55762227 -82.87841797 441.86181641 C-85.71691238 443.56849596 -88.55723491 445.27211619 -91.39794922 446.97509766 C-92.07455597 447.38132355 -92.75116272 447.78754944 -93.44827271 448.20608521 C-111.13398762 458.79820964 -111.13398762 458.79820964 -118.06591797 457.54931641 C-125.02916563 454.27864018 -129.89307968 449.15619734 -135.26904297 443.74462891 C-136.23790564 442.777791 -137.20721294 441.81139847 -138.17694092 440.84542847 C-140.19887843 438.82789326 -142.21534292 436.80508519 -144.22802734 434.77832031 C-146.79893802 432.19029604 -149.38311674 429.61600739 -151.97154617 427.04551888 C-153.97249908 425.05544096 -155.9662096 423.05823032 -157.9578476 421.05883408 C-159.36688564 419.64684315 -160.78192964 418.24085379 -162.19708252 416.83499146 C-163.05517517 415.96744232 -163.91326782 415.09989319 -164.79736328 414.20605469 C-165.92818329 413.07165451 -165.92818329 413.07165451 -167.08184814 411.91433716 C-170.68982391 407.61361273 -172.7287958 403.4224999 -172.47216797 397.71386719 C-170.71885751 388.37200989 -163.49851066 379.45703193 -158.56591797 371.42431641 C-157.81165471 370.18885721 -157.05774657 368.95318114 -156.30419922 367.71728516 C-155.93673584 367.11579651 -155.56927246 366.51430786 -155.19067383 365.89459229 C-154.468964 364.71281056 -153.74839903 363.53032882 -153.02905273 362.34710693 C-151.52843967 359.8883597 -150.00544113 357.46032403 -148.38623047 355.07763672 C-145.7970046 351.3526593 -145.7970046 351.3526593 -145.05029297 346.98681641 C-146.38141305 343.79212821 -147.78682877 340.65304215 -149.31591797 337.54931641 C-149.90952719 336.34346449 -150.49786326 335.13500577 -151.08154297 333.92431641 C-151.39028854 333.29818954 -151.69903412 332.67206268 -152.01713562 332.02696228 C-153.06591797 329.54931641 -153.06591797 329.54931641 -153.88996887 326.43336487 C-155.81052199 319.60291892 -155.81052199 319.60291892 -160.75418091 314.84957886 C-164.23345059 313.66498214 -167.64503343 312.85796392 -171.24951172 312.13916016 C-172.55201233 311.83624316 -173.85328511 311.52800258 -175.15333557 311.21473694 C-178.56247177 310.40648876 -181.9824729 309.66370384 -185.40966797 308.93640137 C-190.23315428 307.90066792 -195.0372159 306.77783668 -199.8427887 305.66249084 C-202.39772373 305.06956704 -204.95379278 304.50597422 -207.51890564 303.95603943 C-216.18835421 302.0351386 -221.93290644 300.20743073 -227.06591797 292.54931641 C-227.58731079 289.26174927 -227.58731079 289.26174927 -227.61523438 285.48339844 C-227.62545624 284.79165527 -227.6356781 284.09991211 -227.64620972 283.38720703 C-227.67391281 281.11015803 -227.67209562 278.83432596 -227.66748047 276.55712891 C-227.67526014 274.96678217 -227.68393067 273.37643956 -227.69345093 271.78610229 C-227.70835655 268.45557172 -227.70780768 265.12546519 -227.69726562 261.79492188 C-227.68568526 257.53863013 -227.71951883 253.2840817 -227.76595497 249.02807808 C-227.79550466 245.74390614 -227.79716315 242.46015033 -227.79093552 239.17586899 C-227.79195848 237.60744655 -227.80236929 236.03899976 -227.82255936 234.47070694 C-227.97783158 220.7216701 -227.97783158 220.7216701 -224.70800781 216.28320312 C-217.62475599 209.87847745 -207.00249015 208.78099662 -197.96826172 207.15869141 C-194.49901997 206.45555163 -191.03388074 205.73412026 -187.56860352 205.01171875 C-185.19671693 204.53776374 -182.81764811 204.09840443 -180.43286133 203.69433594 C-166.77307864 201.68473325 -166.77307864 201.68473325 -155.9866333 193.93041992 C-152.1674112 187.22266643 -149.82017353 180.04237344 -148.06591797 172.54931641 C-147.73989594 171.2271386 -147.73989594 171.2271386 -147.4072876 169.87825012 C-146.90285936 166.43687796 -148.25264961 164.78476236 -150.04638672 161.85791016 C-150.7107373 160.75721191 -151.37508789 159.65651367 -152.05957031 158.52246094 C-152.79066785 157.34379798 -153.52195426 156.16525216 -154.25341797 154.98681641 C-154.98875112 153.77789685 -155.72262826 152.56809051 -156.45507812 151.35742188 C-157.93572715 148.91483965 -159.42397654 146.47718929 -160.91992188 144.04394531 C-163.43067565 139.95985495 -165.91423795 135.8596144 -168.38745117 131.75268555 C-169.39786803 130.07564446 -170.41308186 128.40148103 -171.43383789 126.73071289 C-175.15075682 120.59835793 -177.71475187 115.94602286 -177.06591797 108.54931641 C-171.64453697 96.17728978 -159.16501277 86.43148535 -149.76293945 77.00610352 C-147.36647632 74.59982586 -144.98089089 72.18308009 -142.59521484 69.76611328 C-141.06136765 68.22574423 -139.52688486 66.68600777 -137.99169922 65.14697266 C-137.28531815 64.42824478 -136.57893707 63.70951691 -135.85115051 62.9690094 C-130.94084922 58.08066247 -126.46449484 54.12242743 -119.18310547 54.11572266 C-113.99104633 54.29485935 -110.55600225 55.79345529 -106.19091797 58.48681641 C-105.09324097 59.12780273 -105.09324097 59.12780273 -103.97338867 59.78173828 C-101.32046226 61.34389481 -98.69303411 62.94412596 -96.06591797 64.54931641 C-94.90745568 65.25298151 -93.74875098 65.95624762 -92.58984375 66.65917969 C-91.34357141 67.41550126 -90.09731524 68.17184948 -88.85107422 68.92822266 C-88.22541565 69.30792709 -87.59975708 69.68763153 -86.95513916 70.07884216 C-83.81345822 71.98734911 -80.67653729 73.90289803 -77.54882812 75.83422852 C-76.95903671 76.19665146 -76.3692453 76.5590744 -75.76158142 76.93247986 C-74.14553292 77.92587087 -72.53179557 78.92301885 -70.91821289 79.92041016 C-66.22238934 82.90049662 -66.22238934 82.90049662 -60.96044922 83.02954102 C-60.27337891 82.67384033 -59.58630859 82.31813965 -58.87841797 81.95166016 C-58.09595703 81.56171875 -57.31349609 81.17177734 -56.50732422 80.77001953 C-55.70166016 80.3465625 -54.89599609 79.92310547 -54.06591797 79.48681641 C-52.48530169 78.67809843 -50.90189805 77.87480786 -49.31591797 77.07666016 C-48.14493813 76.47047852 -48.14493813 76.47047852 -46.95030212 75.85205078 C-44.06591797 74.54931641 -44.06591797 74.54931641 -40.86451721 73.67224121 C-34.0802091 71.77869596 -34.0802091 71.77869596 -29.36959839 66.86317444 C-28.18181082 63.38313761 -27.37490516 59.97190428 -26.65576172 56.36572266 C-26.35284472 55.06322204 -26.04460414 53.76194926 -25.7313385 52.4618988 C-24.92309032 49.0527626 -24.1803054 45.63276148 -23.45300293 42.20556641 C-22.41726948 37.38208009 -21.29443824 32.57801848 -20.17909241 27.77244568 C-19.58616861 25.21751064 -19.02257579 22.6614416 -18.47264099 20.09632874 C-16.06884729 9.24747822 -12.68908473 0.09377761 0 0 Z M-43.06591797 180.54931641 C-43.68853516 181.08814453 -44.31115234 181.62697266 -44.95263672 182.18212891 C-59.04955943 195.26039287 -68.49379936 214.1056294 -73.06591797 232.54931641 C-73.25138184 233.28520996 -73.4368457 234.02110352 -73.62792969 234.77929688 C-79.69324715 261.44829757 -73.87852928 288.24011442 -60.19091797 311.36181641 C-56.26663554 317.48734042 -51.87518244 323.09705503 -47.06591797 328.54931641 C-46.25767578 329.48324219 -46.25767578 329.48324219 -45.43310547 330.43603516 C-32.35484151 344.53295787 -13.50960497 353.9771978 4.93408203 358.54931641 C5.66997559 358.73478027 6.40586914 358.92024414 7.1640625 359.11132812 C33.83306319 365.17664559 60.62488005 359.36192772 83.74658203 345.67431641 C89.87210605 341.75003398 95.48182066 337.35858088 100.93408203 332.54931641 C101.55669922 332.01048828 102.17931641 331.47166016 102.82080078 330.91650391 C116.91772349 317.83823994 126.36196342 298.99300341 130.93408203 280.54931641 C131.1195459 279.81342285 131.30500977 279.0775293 131.49609375 278.31933594 C137.56141121 251.65033524 131.74669335 224.85851839 118.05908203 201.73681641 C114.13479961 195.61129239 109.74334651 190.00157778 104.93408203 184.54931641 C104.39525391 183.92669922 103.85642578 183.30408203 103.30126953 182.66259766 C90.22300557 168.56567494 71.37776904 159.12143502 52.93408203 154.54931641 C52.19818848 154.36385254 51.46229492 154.17838867 50.70410156 153.98730469 C16.2820669 146.15871859 -17.22192958 157.75316509 -43.06591797 180.54931641 Z " fill="#A0A6B2" transform="translate(227.06591796875,-0.54931640625)"/>
<path d="M0 0 C4.99864833 -0.14903087 9.99598642 -0.25753175 14.99633789 -0.32958984 C16.6948094 -0.35964557 18.39312719 -0.40050347 20.09106445 -0.45263672 C22.54156495 -0.52595765 24.99000383 -0.55956538 27.44140625 -0.5859375 C28.19273331 -0.61690521 28.94406036 -0.64787292 29.71815491 -0.67977905 C35.06955742 -0.68314634 37.74316933 0.80944921 41.6258806 4.45754826 C47.21260099 10.72865292 47.98643592 21.16251101 49.4609375 29.1328125 C50.17861937 32.60838015 50.91292628 36.08020515 51.64746094 39.55224609 C52.13194682 41.93142946 52.58489175 44.3172566 53.00585938 46.70849609 C54.97781349 60.15304201 54.97781349 60.15304201 62.36779785 70.92956543 C67.76701873 73.9895979 73.42334635 75.73915856 79.41973877 77.23529053 C81.98771223 77.99635829 84.05060473 79.00836624 86.37646484 80.32080078 C89.7404247 82.30863441 89.7404247 82.30863441 92.55834961 81.5065918 C93.36409424 81.0094165 94.16983887 80.51224121 95 80 C96.0938501 79.38616455 97.1877002 78.7723291 98.31469727 78.13989258 C99.56744098 77.3950834 100.81789401 76.64641204 102.06640625 75.89453125 C102.74114487 75.49223801 103.41588348 75.08994476 104.11106873 74.67546082 C106.26358532 73.39118542 108.41312653 72.10202747 110.5625 70.8125 C111.97961156 69.96514993 113.39692753 69.11814163 114.81445312 68.27148438 C115.85575378 67.64929771 115.85575378 67.64929771 116.91809082 67.01454163 C118.30400505 66.18729796 119.69047655 65.36098716 121.07751465 64.53562927 C124.2294169 62.6596691 127.37380547 60.77476103 130.49609375 58.84985352 C131.54023438 58.21619873 132.584375 57.58254395 133.66015625 56.9296875 C134.55742432 56.37651855 135.45469238 55.82334961 136.37915039 55.25341797 C140.77468738 53.15125803 145.28752982 52.83262517 150 54 C156.18611153 57.50496823 160.89358335 62.58774676 165.88671875 67.5859375 C166.83481015 68.53013525 167.78312231 69.47411138 168.73164368 70.4178772 C170.7109823 72.38978516 172.6864421 74.36548252 174.65942383 76.34375 C177.17938406 78.86951284 179.71054928 81.38370457 182.24496746 83.89494896 C184.20368658 85.83889168 186.15538751 87.78976507 188.10517311 89.74266434 C189.4850492 91.1217826 190.87145597 92.49435667 192.25798035 93.86679077 C193.09927994 94.71431915 193.94057953 95.56184753 194.80737305 96.43505859 C195.54650436 97.17356049 196.28563568 97.91206238 197.04716492 98.67294312 C200.80800132 103.15446863 202.75857898 107.53205982 202.44116211 113.34838867 C200.73588169 123.59800167 192.86070998 133.41566744 187.4375 142.1875 C186.68765215 143.40529191 185.93830134 144.62339001 185.18945312 145.84179688 C184.82394348 146.43624603 184.45843384 147.03069519 184.08184814 147.64315796 C183.02092087 149.3773855 181.97146373 151.11817038 180.92285156 152.85986328 C179.74192229 154.78839456 178.52239159 156.69466698 177.24121094 158.55810547 C174.56212179 162.54092808 174.56212179 162.54092808 174.28979492 167.16674805 C175.13733452 169.50092565 176.172964 171.57783204 177.375 173.75 C178.11629289 175.20092915 178.85316887 176.65412221 179.5859375 178.109375 C179.96953934 178.82724686 180.35314117 179.54511871 180.74836731 180.28474426 C182 183 182 183 182.86601257 186.16630554 C184.76294152 192.96977663 184.76294152 192.96977663 189.68658447 197.69772339 C193.1664607 198.88409458 196.57800181 199.6911304 200.18359375 200.41015625 C201.48609436 200.71307325 202.78736715 201.02131383 204.0874176 201.33457947 C207.4965538 202.14282765 210.91655493 202.88561257 214.34375 203.61291504 C219.16723632 204.64864849 223.97129793 205.77147973 228.77687073 206.88682556 C231.33180576 207.47974936 233.88787481 208.04334218 236.45298767 208.59327698 C245.12243624 210.5141778 250.86698847 212.34188567 256 220 C256.52139282 223.28756714 256.52139282 223.28756714 256.54931641 227.06591797 C256.55953827 227.75766113 256.56976013 228.4494043 256.58029175 229.16210938 C256.60799484 231.43915837 256.60617765 233.71499045 256.6015625 235.9921875 C256.60934217 237.58253424 256.6180127 239.17287684 256.62753296 240.76321411 C256.64243858 244.09374469 256.64188971 247.42385121 256.63134766 250.75439453 C256.61976729 255.01068627 256.65360087 259.26523471 256.700037 263.52123833 C256.72958669 266.80541026 256.73124518 270.08916608 256.72501755 273.37344742 C256.72604051 274.94186986 256.73645133 276.51031665 256.75664139 278.07860947 C256.91191361 291.82764631 256.91191361 291.82764631 253.64208984 296.26611328 C246.56831982 302.66355671 235.84800197 303.81466774 226.83203125 305.53125 C224.53346708 306.01462071 222.23596361 306.50305817 219.93945312 306.99609375 C216.37065692 307.76208167 212.80689088 308.50102427 209.21606445 309.15673828 C195.95845448 311.10756164 195.95845448 311.10756164 185.17181396 318.16503906 C182.37019606 323.05007139 180.90226605 328.14521931 179.6680603 333.60913086 C178.97994734 336.07176491 178.01636363 338.02509742 176.77270508 340.25195312 C175.34162977 342.96185672 174.99933116 343.92842279 175.02905273 347.10913086 C176.16357201 350.48701437 177.65731622 353.22302678 179.53515625 356.25390625 C179.89210068 356.83607407 180.2490451 357.41824188 180.61680603 358.01805115 C181.75636198 359.87194036 182.90905393 361.71722835 184.0625 363.5625 C184.81013664 364.77353841 185.55688867 365.9851234 186.30273438 367.19726562 C188.90747544 371.42371513 191.5263586 375.64131857 194.15692139 379.85174561 C195.27253145 381.6378692 196.38449232 383.42622357 197.49609375 385.21484375 C198.14634521 386.25632568 198.79659668 387.29780762 199.46655273 388.37084961 C201.40576678 391.69570171 202.18473072 394.38804499 202.3125 398.1875 C202.34988281 398.90292969 202.38726562 399.61835938 202.42578125 400.35546875 C200.9970102 409.22957886 194.69365583 414.85334977 188.5625 420.86328125 C187.1868689 422.23398018 187.1868689 422.23398018 185.78344727 423.63237 C183.85281658 425.55540512 181.91595836 427.47183536 179.97363281 429.38305664 C177.49031326 431.82666513 175.01800745 434.28104389 172.54963684 436.73974323 C170.18242647 439.09696375 167.81013958 441.44902446 165.4375 443.80078125 C164.55199463 444.67889969 163.66648926 445.55701813 162.75415039 446.46174622 C161.9264917 447.27656967 161.09883301 448.09139313 160.24609375 448.9309082 C159.52091553 449.64624222 158.7957373 450.36157623 158.04858398 451.09858704 C153.61906195 455.20989059 150.79973106 456.82301889 144.77124023 457.20410156 C140.55560554 456.97594913 138.19264671 456.00049739 134.47265625 454.046875 C133.57535545 453.57855255 133.57535545 453.57855255 132.65992737 453.10076904 C125.75008732 449.43863764 119.08725068 445.35932625 112.4375 441.25 C111.19498626 440.48775155 109.95214843 439.72603113 108.70898438 438.96484375 C106.44254308 437.57647783 104.17841535 436.18460941 101.91577148 434.79003906 C100.4724646 433.90396973 100.4724646 433.90396973 99 433 C98.10796875 432.42507813 97.2159375 431.85015625 96.296875 431.2578125 C93.08462835 429.49872505 91.48447576 430.0081642 88 431 C85.59110739 432.0264697 83.27442128 433.08278108 80.9375 434.25 C79.74081776 434.84368218 78.54146996 435.43201439 77.33984375 436.015625 C76.40970963 436.47874336 76.40970963 436.47874336 75.46078491 436.95121765 C73 438 73 438 69.88748169 438.8240509 C63.05513893 440.74415622 63.05513893 440.74415622 58.30012512 445.68826294 C57.11567769 449.16753268 56.30863827 452.5791618 55.58984375 456.18359375 C55.28692675 457.48609436 54.97868617 458.78736715 54.66542053 460.0874176 C53.85717235 463.4965538 53.11438743 466.91655493 52.38708496 470.34375 C51.35135151 475.16723632 50.22852027 479.97129793 49.11317444 484.77687073 C48.52025064 487.33180576 47.95665782 489.88787481 47.40672302 492.45298767 C45.3383746 501.78789973 43.63537703 505.89169837 36 512 C24.12 512 12.24 512 0 512 C0 461.84 0 411.68 0 360 C6.6 359.34 13.2 358.68 20 358 C48.31028791 351.15834709 72.1277746 336.23077117 87.82592773 311.38574219 C102.1519649 287.92412326 107.44518541 259.27245985 101.4375 232.25 C94.71457293 205.20057818 77.31557907 181.47292109 53.54296875 167.03515625 C38.04744011 157.96470613 21.427147 153.2659629 3.58984375 152.24609375 C1 152 1 152 0 151 C-0.09664967 149.05105041 -0.12187121 147.09854545 -0.12025452 145.14720154 C-0.12162918 143.87528961 -0.12300385 142.60337769 -0.12442017 141.29292297 C-0.12088055 139.87033058 -0.11724573 138.44773842 -0.11352539 137.02514648 C-0.11324353 135.53733319 -0.11340124 134.04951976 -0.1139679 132.56170654 C-0.1142559 128.51023 -0.10835867 124.4587828 -0.10139394 120.40731311 C-0.09516092 116.17788003 -0.09455664 111.94844636 -0.09336853 107.7190094 C-0.09025506 99.70440278 -0.08204146 91.68980973 -0.07201904 83.67520911 C-0.06085839 74.55323316 -0.05534758 65.43125658 -0.05032361 56.30927551 C-0.03985886 37.5395093 -0.02225912 18.76975574 0 0 Z " fill="#979CA7" transform="translate(256,0)"/>
</svg>
