<svg xmlns="http://www.w3.org/2000/svg" viewBox="0 0 512 512"><circle cx="256" cy="256" r="256" style="fill:#f9be03"/><path d="M256 64c106 0 192 86 192 192s-86 192-192 192S64 362 64 256 150 64 256 64m0 32c-88.4 0-160 71.6-160 160s71.6 160 160 160 160-71.6 160-160S344.4 96 256 96" style="fill:#1a1a1a"/><circle cx="256" cy="256" r="128" style="fill:#1a1a1a"/><circle cx="256" cy="256" r="80" style="fill:#f9be03"/><circle cx="256" cy="256" r="40" style="fill:#1a1a1a"/><path d="M256 128v256M128 256h256" style="fill:none;stroke:#1a1a1a;stroke-width:8;stroke-linecap:round"/><path d="m181.02 181.02 149.96 149.96M330.98 181.02 181.02 330.98" style="fill:none;stroke:#1a1a1a;stroke-width:8;stroke-linecap:round;opacity:.5"/></svg>
