<?xml version="1.0" standalone="no"?>
<!DOCTYPE svg PUBLIC "-//W3C//DTD SVG 20010904//EN"
 "http://www.w3.org/TR/2001/REC-SVG-20010904/DTD/svg10.dtd">
<svg version="1.0" xmlns="http://www.w3.org/2000/svg"
 width="512.000000pt" height="512.000000pt" viewBox="0 0 512.000000 512.000000"
 preserveAspectRatio="xMidYMid meet">

<g transform="translate(0.000000,512.000000) scale(0.100000,-0.100000)"
fill="#000000" stroke="none">
<path d="M1245 3990 c-50 -11 -71 -27 -142 -108 -287 -326 -450 -685 -498
-1097 -19 -164 -19 -286 0 -450 48 -410 213 -774 496 -1095 81 -92 113 -112
182 -112 82 0 147 66 147 151 0 55 -14 79 -110 186 -345 386 -490 936 -380
1440 62 278 197 545 380 750 96 106 110 131 110 186 0 98 -90 171 -185 149z"/>
<path d="M3802 3990 c-64 -15 -112 -80 -112 -152 0 -52 16 -78 110 -183 346
-387 489 -932 379 -1442 -59 -273 -196 -543 -379 -748 -96 -107 -110 -131
-110 -186 0 -50 26 -98 71 -132 33 -24 113 -26 155 -4 58 30 235 245 324 392
383 635 383 1415 0 2050 -87 144 -266 362 -319 389 -37 19 -81 24 -119 16z"/>
<path d="M1661 3553 c-70 -35 -227 -247 -300 -406 -91 -195 -125 -358 -125
-587 0 -234 36 -400 130 -596 92 -195 253 -395 327 -409 116 -22 213 76 188
188 -6 23 -30 61 -63 100 -114 130 -186 261 -232 420 -103 355 -18 728 232
1014 60 70 77 117 62 174 -26 98 -130 146 -219 102z"/>
<path d="M3322 3553 c-41 -20 -69 -55 -82 -102 -15 -57 2 -103 62 -173 204
-234 302 -533 269 -824 -27 -237 -107 -420 -267 -609 -34 -39 -60 -81 -65
-103 -25 -111 73 -209 188 -187 49 9 141 104 228 234 106 159 173 323 212 517
24 123 24 385 0 508 -50 249 -155 467 -315 652 -86 101 -152 126 -230 87z"/>
<path d="M2415 3234 c-38 -8 -113 -36 -165 -61 -275 -135 -426 -446 -364 -751
8 -42 33 -113 54 -157 73 -150 175 -252 325 -325 341 -165 749 -21 914 323 95
197 93 401 -5 605 -37 77 -59 108 -129 177 -69 70 -100 92 -177 129 -151 73
-298 92 -453 60z"/>
</g>
</svg>
