<?xml version="1.0" standalone="no"?>
<!DOCTYPE svg PUBLIC "-//W3C//DTD SVG 20010904//EN"
 "http://www.w3.org/TR/2001/REC-SVG-20010904/DTD/svg10.dtd">
<svg version="1.0" xmlns="http://www.w3.org/2000/svg"
 width="512.000000pt" height="512.000000pt" viewBox="0 0 512.000000 512.000000"
 preserveAspectRatio="xMidYMid meet">

<g transform="translate(0.000000,512.000000) scale(0.100000,-0.100000)"
fill="#000000" stroke="none">
<path d="M2415 5109 c-898 -44 -1727 -586 -2132 -1394 -143 -285 -229 -570
-263 -880 -13 -116 -13 -434 0 -550 65 -582 322 -1119 734 -1530 406 -405 913
-653 1491 -730 243 -32 582 -18 838 35 387 79 779 266 1094 521 100 81 281
262 362 362 308 381 508 859 560 1339 14 125 14 431 0 556 -92 855 -623 1619
-1388 2002 -411 205 -828 292 -1296 269z m465 -784 c573 -103 1059 -474 1311
-1000 65 -136 80 -189 69 -240 -20 -90 -56 -112 -265 -164 -240 -58 -254 -53
-360 148 -87 164 -134 228 -246 336 -152 147 -329 246 -537 301 -120 32 -326
43 -452 25 -238 -35 -470 -146 -648 -308 l-64 -58 111 -78 c120 -85 141 -107
141 -149 0 -63 -13 -69 -452 -182 -225 -58 -421 -106 -437 -106 -60 0 -118 36
-146 91 -9 17 -25 172 -46 462 -30 409 -31 437 -15 461 18 28 54 41 89 32 13
-3 74 -42 135 -86 62 -44 115 -80 119 -80 3 0 56 48 117 108 287 277 620 441
1016 498 127 18 432 12 560 -11z m1247 -2066 c35 -13 70 -45 89 -81 9 -18 24
-166 45 -461 31 -411 31 -437 16 -461 -19 -29 -55 -41 -91 -32 -13 3 -73 42
-134 86 -61 44 -114 80 -118 80 -4 0 -55 -46 -113 -103 -200 -194 -381 -310
-626 -402 -919 -344 -1937 100 -2310 1005 -45 112 -31 197 43 246 47 32 350
105 394 95 76 -17 95 -38 163 -178 153 -316 436 -547 783 -639 120 -32 326
-43 452 -25 237 35 473 147 648 308 l64 58 -112 80 c-122 86 -140 105 -140
147 0 63 14 69 445 181 220 58 417 106 437 106 20 1 49 -4 65 -10z"/>
</g>
</svg>
