<svg version="1.1" id="Layer_1" xmlns="http://www.w3.org/2000/svg" xmlns:xlink="http://www.w3.org/1999/xlink" x="0px" y="0px"
	 width="100%" viewBox="0 0 512 512" enable-background="new 0 0 512 512" xml:space="preserve">
<path fill="#0098FF" opacity="1.000000" stroke="none"
	d="
M289.000000,513.000000
	C267.979095,513.000000 246.958206,513.000000 225.805267,512.660095
	C224.997940,511.893951 224.366913,511.204956 223.640472,511.082611
	C217.219040,510.001038 210.755005,509.159882 204.351807,507.984741
	C178.250809,503.194550 153.701279,493.790710 130.774643,480.769653
	C106.496399,466.980957 84.619308,449.902252 66.062675,428.713959
	C53.441860,414.303284 42.040592,399.092865 32.818581,382.338806
	C17.253986,354.061981 6.857825,324.021545 2.917016,291.864899
	C2.832510,291.175323 1.663235,290.618652 1.000000,290.000000
	C1.000000,268.312439 1.000000,246.624878 1.325824,224.814713
	C2.765259,219.515900 4.045511,214.369034 4.963055,209.158295
	C8.551296,188.780533 14.667278,169.140274 23.335876,150.426483
	C38.263313,118.201096 58.470852,89.781769 85.244743,66.101097
	C99.610291,53.395218 114.900871,42.103188 131.634781,32.852406
	C159.889847,17.232553 189.952438,6.879143 222.107819,2.917441
	C222.806686,2.831338 223.372253,1.663321 224.000000,1.000002
	C245.354233,1.000000 266.708466,1.000000 288.194794,1.340180
	C290.835724,2.135649 293.348206,2.571959 295.852814,3.049208
	C317.568420,7.187011 338.801331,12.749913 359.241150,21.513706
	C387.650421,33.694458 412.677155,50.789574 435.111145,71.780899
	C441.957306,78.186798 448.383148,85.222252 454.003387,92.717781
	C463.558624,105.461411 473.371094,118.203880 481.199310,132.010605
	C497.207916,160.245010 507.545654,190.618759 511.083801,223.094589
	C511.159668,223.791046 512.336670,224.367538 513.000000,225.000000
	C513.000000,246.020889 513.000000,267.041779 512.659973,288.194824
	C511.893768,289.002380 511.212219,289.631409 511.080048,290.360107
	C509.340424,299.950073 508.112854,309.654907 505.913910,319.135406
	C499.703705,345.909973 488.997894,370.944336 474.246155,394.052124
	C461.803680,413.542572 447.306763,431.412720 429.835815,446.879608
	C415.109283,459.916901 399.579254,471.696838 382.379089,481.138214
	C353.793793,496.829010 323.496033,507.502991 290.900604,511.083679
	C290.205322,511.160095 289.630859,512.336670 289.000000,513.000000
M419.162476,214.873352
	C426.877625,209.078995 428.764038,202.785110 425.437134,193.938629
	C383.605804,82.706322 243.742905,42.386635 149.266968,114.521233
	C138.875687,122.455215 129.597977,131.847656 119.375603,140.944702
	C112.698418,136.178146 105.384712,131.002167 98.123932,125.752953
	C95.020699,123.509460 91.809464,122.756256 88.356567,124.732994
	C84.840546,126.745880 84.240700,129.993561 84.521851,133.765274
	C86.428276,159.340637 88.273560,184.920654 90.087402,210.502792
	C90.988976,223.218338 99.764503,229.809998 111.989243,226.661652
	C136.464355,220.358368 160.910889,213.944244 185.375000,207.598175
	C189.515808,206.524017 193.494400,205.383408 194.338837,200.256790
	C195.179657,195.152344 191.742447,192.767548 188.278702,190.311264
	C182.056320,185.898727 175.869110,181.436630 169.412079,176.812531
	C170.835480,175.254929 171.887527,174.002640 173.042725,172.854126
	C219.010849,127.152702 294.284760,126.789825 340.774384,172.000183
	C352.762329,183.658218 361.825562,197.237534 368.333618,212.623917
	C371.934265,221.136520 378.442993,225.489258 386.226532,223.772705
	C397.080109,221.379059 407.737518,218.095856 419.162476,214.873352
M166.820496,411.703400
	C167.553543,412.095978 168.280396,412.500641 169.020508,412.879425
	C238.179001,448.273376 304.346802,443.190308 367.141479,397.617432
	C376.886780,390.544769 385.168945,381.456085 394.526978,372.936218
	C401.095154,377.639923 408.148224,382.608551 415.104950,387.708588
	C418.430267,390.146393 421.817993,391.508575 425.700958,389.240021
	C429.403656,387.076843 429.768341,383.612183 429.471649,379.689850
	C427.562073,354.447662 425.698486,329.201477 423.972992,303.946136
	C423.063080,290.627411 414.409119,284.144501 401.513550,287.503357
	C376.893768,293.916016 352.294922,300.409637 327.657654,306.754303
	C323.865143,307.730957 320.711823,309.036896 319.782501,313.292480
	C318.802429,317.780396 321.191742,320.482941 324.554474,322.840698
	C331.207947,327.505920 337.785706,332.279114 344.667419,337.202728
	C343.202576,338.776367 342.130463,340.017883 340.966217,341.165955
	C299.051880,382.498230 233.361282,387.334808 185.848419,352.553345
	C167.821625,339.356995 154.555069,322.411133 145.876633,301.796753
	C141.520508,291.449432 134.775269,288.283813 123.851776,291.021423
	C116.270638,292.921387 108.723991,294.958557 101.155670,296.910126
	C88.785934,300.099731 84.227249,308.828583 88.899620,320.766968
	C104.203171,359.869019 130.151932,389.905731 166.820496,411.703400
z"/>
<path fill="#000000" opacity="1.000000" stroke="none"
	d="
M513.000000,224.531342
	C512.336670,224.367538 511.159668,223.791046 511.083801,223.094589
	C507.545654,190.618759 497.207916,160.245010 481.199310,132.010605
	C473.371094,118.203880 463.558624,105.461411 454.003387,92.717781
	C448.383148,85.222252 441.957306,78.186798 435.111145,71.780899
	C412.677155,50.789574 387.650421,33.694458 359.241150,21.513706
	C338.801331,12.749913 317.568420,7.187011 295.852814,3.049208
	C293.348206,2.571959 290.835724,2.135649 288.663452,1.340180
	C363.593719,1.000000 438.187408,1.000000 513.000000,1.000000
	C513.000000,75.354088 513.000000,149.708389 513.000000,224.531342
z"/>
<path fill="#000000" opacity="1.000000" stroke="none"
	d="
M289.468658,513.000000
	C289.630859,512.336670 290.205322,511.160095 290.900604,511.083679
	C323.496033,507.502991 353.793793,496.829010 382.379089,481.138214
	C399.579254,471.696838 415.109283,459.916901 429.835815,446.879608
	C447.306763,431.412720 461.803680,413.542572 474.246155,394.052124
	C488.997894,370.944336 499.703705,345.909973 505.913910,319.135406
	C508.112854,309.654907 509.340424,299.950073 511.080048,290.360107
	C511.212219,289.631409 511.893768,289.002380 512.659973,288.663513
	C513.000000,363.593719 513.000000,438.187408 513.000000,513.000000
	C438.645905,513.000000 364.291626,513.000000 289.468658,513.000000
z"/>
<path fill="#000000" opacity="1.000000" stroke="none"
	d="
M1.000000,290.468658
	C1.663235,290.618652 2.832510,291.175323 2.917016,291.864899
	C6.857825,324.021545 17.253986,354.061981 32.818581,382.338806
	C42.040592,399.092865 53.441860,414.303284 66.062675,428.713959
	C84.619308,449.902252 106.496399,466.980957 130.774643,480.769653
	C153.701279,493.790710 178.250809,503.194550 204.351807,507.984741
	C210.755005,509.159882 217.219040,510.001038 223.640472,511.082611
	C224.366913,511.204956 224.997940,511.893951 225.336609,512.660095
	C150.406464,513.000000 75.812927,513.000000 1.000000,513.000000
	C1.000000,438.979248 1.000000,364.958282 1.000000,290.468658
z"/>
<path fill="#000000" opacity="1.000000" stroke="none"
	d="
M223.531342,1.000002
	C223.372253,1.663321 222.806686,2.831338 222.107819,2.917441
	C189.952438,6.879143 159.889847,17.232553 131.634781,32.852406
	C114.900871,42.103188 99.610291,53.395218 85.244743,66.101097
	C58.470852,89.781769 38.263313,118.201096 23.335876,150.426483
	C14.667278,169.140274 8.551296,188.780533 4.963055,209.158295
	C4.045511,214.369034 2.765259,219.515900 1.325824,224.346054
	C1.000000,149.739624 1.000000,75.479248 1.000000,1.000000
	C75.020752,1.000000 149.041718,1.000000 223.531342,1.000002
z"/>
<path fill="#FEFFFF" opacity="1.000000" stroke="none"
	d="
M418.820679,215.033325
	C407.737518,218.095856 397.080109,221.379059 386.226532,223.772705
	C378.442993,225.489258 371.934265,221.136520 368.333618,212.623917
	C361.825562,197.237534 352.762329,183.658218 340.774384,172.000183
	C294.284760,126.789825 219.010849,127.152702 173.042725,172.854126
	C171.887527,174.002640 170.835480,175.254929 169.412079,176.812531
	C175.869110,181.436630 182.056320,185.898727 188.278702,190.311264
	C191.742447,192.767548 195.179657,195.152344 194.338837,200.256790
	C193.494400,205.383408 189.515808,206.524017 185.375000,207.598175
	C160.910889,213.944244 136.464355,220.358368 111.989243,226.661652
	C99.764503,229.809998 90.988976,223.218338 90.087402,210.502792
	C88.273560,184.920654 86.428276,159.340637 84.521851,133.765274
	C84.240700,129.993561 84.840546,126.745880 88.356567,124.732994
	C91.809464,122.756256 95.020699,123.509460 98.123932,125.752953
	C105.384712,131.002167 112.698418,136.178146 119.375603,140.944702
	C129.597977,131.847656 138.875687,122.455215 149.266968,114.521233
	C243.742905,42.386635 383.605804,82.706322 425.437134,193.938629
	C428.764038,202.785110 426.877625,209.078995 418.820679,215.033325
z"/>
<path fill="#FEFFFF" opacity="1.000000" stroke="none"
	d="
M166.517868,411.496887
	C130.151932,389.905731 104.203171,359.869019 88.899620,320.766968
	C84.227249,308.828583 88.785934,300.099731 101.155670,296.910126
	C108.723991,294.958557 116.270638,292.921387 123.851776,291.021423
	C134.775269,288.283813 141.520508,291.449432 145.876633,301.796753
	C154.555069,322.411133 167.821625,339.356995 185.848419,352.553345
	C233.361282,387.334808 299.051880,382.498230 340.966217,341.165955
	C342.130463,340.017883 343.202576,338.776367 344.667419,337.202728
	C337.785706,332.279114 331.207947,327.505920 324.554474,322.840698
	C321.191742,320.482941 318.802429,317.780396 319.782501,313.292480
	C320.711823,309.036896 323.865143,307.730957 327.657654,306.754303
	C352.294922,300.409637 376.893768,293.916016 401.513550,287.503357
	C414.409119,284.144501 423.063080,290.627411 423.972992,303.946136
	C425.698486,329.201477 427.562073,354.447662 429.471649,379.689850
	C429.768341,383.612183 429.403656,387.076843 425.700958,389.240021
	C421.817993,391.508575 418.430267,390.146393 415.104950,387.708588
	C408.148224,382.608551 401.095154,377.639923 394.526978,372.936218
	C385.168945,381.456085 376.886780,390.544769 367.141479,397.617432
	C304.346802,443.190308 238.179001,448.273376 169.020508,412.879425
	C168.280396,412.500641 167.553543,412.095978 166.517868,411.496887
z"/>
</svg>
