<svg version="1.1" id="Layer_1" xmlns="http://www.w3.org/2000/svg" xmlns:xlink="http://www.w3.org/1999/xlink" x="0px" y="0px"
	 width="100%" viewBox="0 0 512 512" enable-background="new 0 0 512 512" xml:space="preserve">
<path fill="#DBE2E9" opacity="1.000000" stroke="none"
	d="
M129.000000,1.000000
	C197.020889,1.000000 265.041779,1.000000 333.466125,1.465635
	C333.801971,3.258182 333.675507,4.585084 333.675293,5.912008
	C333.668610,45.843868 333.648010,85.775757 333.692291,125.707573
	C333.708344,140.203506 341.772705,148.212967 356.264282,148.221420
	C395.863373,148.244507 435.462524,148.242065 475.061523,148.189224
	C476.781128,148.186935 478.499908,147.584274 480.488281,147.558426
	C480.838715,149.348602 480.990845,150.841629 480.990997,152.334656
	C481.002045,261.439056 481.004608,370.543457 480.966431,479.647858
	C480.965881,481.230896 480.475739,482.819733 480.162933,484.395721
	C477.514038,497.741119 469.371185,506.283447 456.904266,511.104950
	C456.429535,511.288544 456.293732,512.348450 456.000000,513.000000
	C347.312439,513.000000 238.624878,513.000000 129.782684,512.697632
	C129.310593,512.010559 129.064240,511.398773 128.665390,511.273834
	C110.612366,505.619324 103.101677,489.875122 103.062279,473.525024
	C102.909409,410.071869 103.000877,346.618103 103.464081,283.084473
	C169.737625,282.979645 235.548477,282.957397 301.359314,282.927185
	C310.348663,282.923065 312.968689,280.306854 312.970398,271.341888
	C312.977356,234.687378 312.974030,198.032852 312.972961,161.378342
	C312.972656,150.304810 310.905975,148.223358 299.892609,148.223053
	C236.413651,148.221329 172.934692,148.225876 109.455750,148.206451
	C107.301109,148.205795 105.146530,147.972992 102.995590,147.389252
	C102.999496,113.304985 102.964714,79.679764 103.043892,46.054821
	C103.053879,41.811501 103.562363,37.558933 104.012032,33.328949
	C105.603928,18.354193 113.754921,8.450224 127.601379,2.942757
	C128.226303,2.694193 128.540878,1.665390 129.000000,1.000000
M283.499939,350.388031
	C329.808502,350.387939 376.117096,350.389008 422.425659,350.383331
	C424.256775,350.383118 426.103424,350.456940 427.915680,350.253876
	C431.511383,349.850983 433.685211,347.777069 434.101868,344.161591
	C434.544983,340.316040 432.721436,337.687347 429.131592,336.511200
	C427.600739,336.009674 425.852112,336.051544 424.202423,336.051178
	C336.249420,336.031647 248.296432,336.031464 160.343445,336.053650
	C158.696014,336.054077 156.953537,336.058105 155.420639,336.562561
	C152.001709,337.687683 150.361038,340.305786 150.646255,343.872955
	C150.932739,347.455963 152.948761,349.719543 156.579407,350.201996
	C158.384048,350.441833 160.234512,350.380920 162.064270,350.381317
	C202.209488,350.390015 242.354691,350.388214 283.499939,350.388031
M364.499939,404.388214
	C383.989899,404.388092 403.479858,404.391083 422.969818,404.382202
	C424.633942,404.381439 426.316193,404.441956 427.958405,404.229401
	C431.789642,403.733459 433.935486,401.468018 434.142670,397.602509
	C434.352295,393.692413 432.201599,391.304474 428.632202,390.300690
	C427.074707,389.862671 425.326660,390.042542 423.665161,390.042358
	C336.210144,390.032684 248.755112,390.033356 161.300095,390.037659
	C159.802094,390.037750 158.268951,389.899872 156.812866,390.162598
	C152.850098,390.877594 150.537766,393.326385 150.628052,397.394135
	C150.717987,401.446533 153.008118,403.865082 157.111572,404.269226
	C158.928406,404.448181 160.771851,404.383881 162.603226,404.384003
	C229.568787,404.388885 296.534363,404.388367 364.499939,404.388214
M202.499893,458.388184
	C275.629028,458.388123 348.758148,458.389221 421.887268,458.381836
	C423.884277,458.381622 425.899780,458.445190 427.874451,458.209320
	C431.973450,457.719757 434.137299,455.238007 434.125153,451.154663
	C434.112854,447.013855 431.652435,444.772186 427.736328,444.118439
	C426.275452,443.874603 424.744629,444.035706 423.245697,444.035675
	C335.957184,444.033417 248.668686,444.033356 161.380173,444.036499
	C159.881729,444.036560 158.354584,443.900940 156.890472,444.136780
	C153.154892,444.738525 150.909058,446.954407 150.612152,450.795837
	C150.256653,455.395691 153.396957,458.316040 159.021896,458.351471
	C173.180740,458.440704 187.340485,458.385742 202.499893,458.388184
z"/>
<path fill="#000000" opacity="1.000000" stroke="none"
	d="
M128.531342,1.000000
	C128.540878,1.665390 128.226303,2.694193 127.601379,2.942757
	C113.754921,8.450224 105.603928,18.354193 104.012032,33.328949
	C103.562363,37.558933 103.053879,41.811501 103.043892,46.054821
	C102.964714,79.679764 102.999496,113.304985 102.530830,147.454025
	C82.238945,147.985672 62.415478,147.986984 42.592030,148.004654
	C35.682621,148.010818 33.001534,150.630981 33.001427,157.314301
	C33.000809,196.128479 33.000298,234.942657 33.001801,273.756836
	C33.002064,280.583160 35.358780,282.982941 42.042217,283.000244
	C62.361946,283.052826 82.681664,283.109497 103.001381,283.164612
	C103.000877,346.618103 102.909409,410.071869 103.062279,473.525024
	C103.101677,489.875122 110.612366,505.619324 128.665390,511.273834
	C129.064240,511.398773 129.310593,512.010559 129.314026,512.697632
	C86.357651,513.000000 43.715298,513.000000 1.036472,513.000000
	C1.036472,342.454926 1.036472,171.909821 1.036472,1.000000
	C43.353531,1.000000 85.708107,1.000000 128.531342,1.000000
z"/>
<path fill="#000000" opacity="1.000000" stroke="none"
	d="
M456.468658,513.000000
	C456.293732,512.348450 456.429535,511.288544 456.904266,511.104950
	C469.371185,506.283447 477.514038,497.741119 480.162933,484.395721
	C480.475739,482.819733 480.965881,481.230896 480.966431,479.647858
	C481.004608,370.543457 481.002045,261.439056 480.990997,152.334656
	C480.990845,150.841629 480.838715,149.348602 480.185486,147.373383
	C432.045410,99.376236 384.473419,51.865147 336.939178,4.316343
	C336.063354,3.440250 335.636414,2.115437 335.000000,0.999997
	C394.298584,1.000000 453.597168,1.000000 512.947876,1.000000
	C512.947876,171.666672 512.947876,342.333344 512.947876,513.000000
	C494.248749,513.000000 475.593048,513.000000 456.468658,513.000000
z"/>
<path fill="#44546C" opacity="1.000000" stroke="none"
	d="
M334.750000,0.999997
	C335.636414,2.115437 336.063354,3.440250 336.939178,4.316343
	C384.473419,51.865147 432.045410,99.376236 479.916290,147.076233
	C478.499908,147.584274 476.781128,148.186935 475.061523,148.189224
	C435.462524,148.242065 395.863373,148.244507 356.264282,148.221420
	C341.772705,148.212967 333.708344,140.203506 333.692291,125.707573
	C333.648010,85.775757 333.668610,45.843868 333.675293,5.912008
	C333.675507,4.585084 333.801971,3.258182 333.934784,1.465635
	C334.000000,1.000000 334.500000,1.000000 334.750000,0.999997
z"/>
<path fill="#029ADD" opacity="1.000000" stroke="none"
	d="
M103.464081,283.084503
	C82.681664,283.109497 62.361946,283.052826 42.042217,283.000244
	C35.358780,282.982941 33.002064,280.583160 33.001801,273.756836
	C33.000298,234.942657 33.000809,196.128479 33.001427,157.314301
	C33.001534,150.630981 35.682621,148.010818 42.592030,148.004654
	C62.415478,147.986984 82.238945,147.985672 102.527161,147.913162
	C105.146530,147.972992 107.301109,148.205795 109.455750,148.206451
	C172.934692,148.225876 236.413651,148.221329 299.892609,148.223053
	C310.905975,148.223358 312.972656,150.304810 312.972961,161.378342
	C312.974030,198.032852 312.977356,234.687378 312.970398,271.341888
	C312.968689,280.306854 310.348663,282.923065 301.359314,282.927185
	C235.548477,282.957397 169.737625,282.979645 103.464081,283.084503
M206.966980,240.241837
	C209.783310,250.583939 216.188095,256.620422 226.419922,257.419067
	C233.527847,257.973877 240.764725,258.020111 247.857727,257.362732
	C259.359344,256.296753 266.898682,247.897736 267.308868,236.423233
	C267.528778,230.270813 267.394501,224.104080 267.348450,217.944336
	C267.314453,213.397018 264.868652,210.478561 260.448914,210.311020
	C251.970886,209.989639 243.450577,209.892670 234.996002,210.442963
	C232.756760,210.588715 229.756912,213.025269 228.830063,215.158798
	C228.014450,217.036255 228.863892,220.661362 230.341751,222.229401
	C231.891052,223.873230 235.028854,224.488113 237.534714,224.663773
	C242.586533,225.017883 247.680603,224.769226 253.000488,224.769226
	C253.000488,229.036087 253.161591,232.524048 252.960434,235.990982
	C252.698563,240.504517 250.147324,242.998703 245.584427,243.075775
	C239.925293,243.171387 234.261078,243.202408 228.603302,243.074280
	C223.584259,242.960602 221.022079,240.357834 220.988815,235.227844
	C220.903488,222.075378 220.894531,208.921448 220.997925,195.769241
	C221.037567,190.727966 223.705215,188.160782 228.781555,188.035446
	C233.773376,187.912216 238.770691,187.981140 243.765335,188.011185
	C250.088699,188.049210 251.688354,189.417969 253.087479,195.865387
	C254.041168,200.260071 257.176025,202.725922 261.278900,202.069672
	C265.649689,201.370575 267.341644,198.471512 267.304260,194.253632
	C267.212677,183.931870 258.794739,174.618210 248.337692,173.919312
	C241.540344,173.464996 234.689880,173.579086 227.870132,173.736832
	C216.219894,174.006363 207.247559,181.858337 206.813492,193.487778
	C206.243073,208.770721 206.796204,224.095612 206.966980,240.241837
M157.680908,173.695282
	C144.451035,174.634048 136.266617,183.191406 136.171738,196.401428
	C136.079605,209.230576 136.078445,222.061417 136.172485,234.890533
	C136.268250,247.954834 144.881927,257.065796 157.773438,257.635101
	C163.759842,257.899506 169.778885,257.909424 175.763687,257.625244
	C188.528458,257.019135 197.023285,248.084167 197.111343,235.286682
	C197.203049,221.957687 197.242203,208.626251 197.091049,195.298309
	C196.949509,182.818573 188.129257,174.027588 175.631439,173.721420
	C169.969666,173.582718 164.301849,173.689987 157.680908,173.695282
M78.489731,197.503067
	C78.496132,214.479767 78.439384,231.456863 78.540886,248.432983
	C78.579964,254.968262 80.991684,257.589386 87.026627,257.655273
	C98.675903,257.782440 110.328781,257.785858 121.977753,257.643677
	C127.269615,257.579071 130.219620,254.646255 130.102692,250.202942
	C129.992081,245.999374 127.049538,243.374863 122.064842,243.137482
	C120.071991,243.042557 118.071068,243.115433 116.073814,243.115204
	C108.485840,243.114365 100.897858,243.114868 92.974586,243.114868
	C92.974586,240.647812 92.974640,238.842026 92.974586,237.036240
	C92.974075,218.894409 92.996742,200.752533 92.959450,182.610779
	C92.947632,176.861145 90.386307,173.790817 85.793381,173.750702
	C81.201904,173.710587 78.681297,176.660248 78.532677,182.525101
	C78.414665,187.182510 78.496956,191.845001 78.489731,197.503067
z"/>
<path fill="#45556D" opacity="1.000000" stroke="none"
	d="
M282.999939,350.388245
	C242.354691,350.388214 202.209488,350.390015 162.064270,350.381317
	C160.234512,350.380920 158.384048,350.441833 156.579407,350.201996
	C152.948761,349.719543 150.932739,347.455963 150.646255,343.872955
	C150.361038,340.305786 152.001709,337.687683 155.420639,336.562561
	C156.953537,336.058105 158.696014,336.054077 160.343445,336.053650
	C248.296432,336.031464 336.249420,336.031647 424.202423,336.051178
	C425.852112,336.051544 427.600739,336.009674 429.131592,336.511200
	C432.721436,337.687347 434.544983,340.316040 434.101868,344.161591
	C433.685211,347.777069 431.511383,349.850983 427.915680,350.253876
	C426.103424,350.456940 424.256775,350.383118 422.425659,350.383331
	C376.117096,350.389008 329.808502,350.387939 282.999939,350.388245
z"/>
<path fill="#45556D" opacity="1.000000" stroke="none"
	d="
M363.999939,404.388428
	C296.534363,404.388367 229.568787,404.388885 162.603226,404.384003
	C160.771851,404.383881 158.928406,404.448181 157.111572,404.269226
	C153.008118,403.865082 150.717987,401.446533 150.628052,397.394135
	C150.537766,393.326385 152.850098,390.877594 156.812866,390.162598
	C158.268951,389.899872 159.802094,390.037750 161.300095,390.037659
	C248.755112,390.033356 336.210144,390.032684 423.665161,390.042358
	C425.326660,390.042542 427.074707,389.862671 428.632202,390.300690
	C432.201599,391.304474 434.352295,393.692413 434.142670,397.602509
	C433.935486,401.468018 431.789642,403.733459 427.958405,404.229401
	C426.316193,404.441956 424.633942,404.381439 422.969818,404.382202
	C403.479858,404.391083 383.989899,404.388092 363.999939,404.388428
z"/>
<path fill="#45556D" opacity="1.000000" stroke="none"
	d="
M201.999878,458.388367
	C187.340485,458.385742 173.180740,458.440704 159.021896,458.351471
	C153.396957,458.316040 150.256653,455.395691 150.612152,450.795837
	C150.909058,446.954407 153.154892,444.738525 156.890472,444.136780
	C158.354584,443.900940 159.881729,444.036560 161.380173,444.036499
	C248.668686,444.033356 335.957184,444.033417 423.245697,444.035675
	C424.744629,444.035706 426.275452,443.874603 427.736328,444.118439
	C431.652435,444.772186 434.112854,447.013855 434.125153,451.154663
	C434.137299,455.238007 431.973450,457.719757 427.874451,458.209320
	C425.899780,458.445190 423.884277,458.381622 421.887268,458.381836
	C348.758148,458.389221 275.629028,458.388123 201.999878,458.388367
z"/>
<path fill="#E6F4FE" opacity="1.000000" stroke="none"
	d="
M206.916565,239.822144
	C206.796204,224.095612 206.243073,208.770721 206.813492,193.487778
	C207.247559,181.858337 216.219894,174.006363 227.870132,173.736832
	C234.689880,173.579086 241.540344,173.464996 248.337692,173.919312
	C258.794739,174.618210 267.212677,183.931870 267.304260,194.253632
	C267.341644,198.471512 265.649689,201.370575 261.278900,202.069672
	C257.176025,202.725922 254.041168,200.260071 253.087479,195.865387
	C251.688354,189.417969 250.088699,188.049210 243.765335,188.011185
	C238.770691,187.981140 233.773376,187.912216 228.781555,188.035446
	C223.705215,188.160782 221.037567,190.727966 220.997925,195.769241
	C220.894531,208.921448 220.903488,222.075378 220.988815,235.227844
	C221.022079,240.357834 223.584259,242.960602 228.603302,243.074280
	C234.261078,243.202408 239.925293,243.171387 245.584427,243.075775
	C250.147324,242.998703 252.698563,240.504517 252.960434,235.990982
	C253.161591,232.524048 253.000488,229.036087 253.000488,224.769226
	C247.680603,224.769226 242.586533,225.017883 237.534714,224.663773
	C235.028854,224.488113 231.891052,223.873230 230.341751,222.229401
	C228.863892,220.661362 228.014450,217.036255 228.830063,215.158798
	C229.756912,213.025269 232.756760,210.588715 234.996002,210.442963
	C243.450577,209.892670 251.970886,209.989639 260.448914,210.311020
	C264.868652,210.478561 267.314453,213.397018 267.348450,217.944336
	C267.394501,224.104080 267.528778,230.270813 267.308868,236.423233
	C266.898682,247.897736 259.359344,256.296753 247.857727,257.362732
	C240.764725,258.020111 233.527847,257.973877 226.419922,257.419067
	C216.188095,256.620422 209.783310,250.583939 206.916565,239.822144
z"/>
<path fill="#E6F4FE" opacity="1.000000" stroke="none"
	d="
M158.158844,173.690475
	C164.301849,173.689987 169.969666,173.582718 175.631439,173.721420
	C188.129257,174.027588 196.949509,182.818573 197.091049,195.298309
	C197.242203,208.626251 197.203049,221.957687 197.111343,235.286682
	C197.023285,248.084167 188.528458,257.019135 175.763687,257.625244
	C169.778885,257.909424 163.759842,257.899506 157.773438,257.635101
	C144.881927,257.065796 136.268250,247.954834 136.172485,234.890533
	C136.078445,222.061417 136.079605,209.230576 136.171738,196.401428
	C136.266617,183.191406 144.451035,174.634048 158.158844,173.690475
M182.882095,205.522415
	C182.880249,202.364441 182.982956,199.202179 182.853119,196.049469
	C182.634338,190.737183 180.034409,188.141174 174.749863,188.032272
	C169.433441,187.922699 164.111649,187.932587 158.794724,188.028351
	C153.417709,188.125183 150.825912,190.607254 150.785660,195.987381
	C150.687408,209.117050 150.683731,222.248627 150.796631,235.378082
	C150.841141,240.553848 153.349426,242.962143 158.484207,243.081329
	C163.467834,243.197021 168.456284,243.137024 173.442352,243.107956
	C180.540009,243.066589 182.846466,240.717209 182.873718,233.440918
	C182.907318,224.465775 182.881927,215.490433 182.882095,205.522415
z"/>
<path fill="#E6F4FE" opacity="1.000000" stroke="none"
	d="
M78.490021,197.004150
	C78.496956,191.845001 78.414665,187.182510 78.532677,182.525101
	C78.681297,176.660248 81.201904,173.710587 85.793381,173.750702
	C90.386307,173.790817 92.947632,176.861145 92.959450,182.610779
	C92.996742,200.752533 92.974075,218.894409 92.974586,237.036240
	C92.974640,238.842026 92.974586,240.647812 92.974586,243.114868
	C100.897858,243.114868 108.485840,243.114365 116.073814,243.115204
	C118.071068,243.115433 120.071991,243.042557 122.064842,243.137482
	C127.049538,243.374863 129.992081,245.999374 130.102692,250.202942
	C130.219620,254.646255 127.269615,257.579071 121.977753,257.643677
	C110.328781,257.785858 98.675903,257.782440 87.026627,257.655273
	C80.991684,257.589386 78.579964,254.968262 78.540886,248.432983
	C78.439384,231.456863 78.496132,214.479767 78.490021,197.004150
z"/>
<path fill="#029ADD" opacity="1.000000" stroke="none"
	d="
M182.882065,206.018799
	C182.881927,215.490433 182.907318,224.465775 182.873718,233.440918
	C182.846466,240.717209 180.540009,243.066589 173.442352,243.107956
	C168.456284,243.137024 163.467834,243.197021 158.484207,243.081329
	C153.349426,242.962143 150.841141,240.553848 150.796631,235.378082
	C150.683731,222.248627 150.687408,209.117050 150.785660,195.987381
	C150.825912,190.607254 153.417709,188.125183 158.794724,188.028351
	C164.111649,187.932587 169.433441,187.922699 174.749863,188.032272
	C180.034409,188.141174 182.634338,190.737183 182.853119,196.049469
	C182.982956,199.202179 182.880249,202.364441 182.882065,206.018799
z"/>
</svg>
