<?xml version="1.0" standalone="no"?>
<!DOCTYPE svg PUBLIC "-//W3C//DTD SVG 20010904//EN"
 "http://www.w3.org/TR/2001/REC-SVG-20010904/DTD/svg10.dtd">
<svg version="1.0" xmlns="http://www.w3.org/2000/svg"
 width="512.000000pt" height="512.000000pt" viewBox="0 0 512.000000 512.000000"
 preserveAspectRatio="xMidYMid meet">

<g transform="translate(0.000000,512.000000) scale(0.100000,-0.100000)"
fill="#000000" stroke="none">
<path d="M3330 4460 c0 -614 2 -658 19 -695 22 -49 69 -91 119 -105 25 -7 244
-10 680 -8 l642 3 -730 730 -730 730 0 -655z"/>
<path d="M352 3617 l-22 -23 0 -622 c0 -609 0 -622 20 -642 20 -20 33 -20
1370 -20 1337 0 1350 0 1370 20 20 20 20 33 20 643 l0 624 -23 21 -23 22
-1345 0 -1346 0 -21 -23z m542 -238 l26 -20 0 -330 0 -329 169 0 170 0 21 -27
c26 -33 21 -79 -11 -105 -19 -16 -46 -18 -236 -18 -214 0 -214 0 -238 25 l-25
24 0 376 0 376 25 24 c30 30 64 32 99 4z m929 5 c59 -20 120 -87 136 -149 6
-25 11 -135 11 -263 0 -262 -8 -299 -74 -360 -61 -56 -97 -65 -262 -61 -134 4
-143 5 -182 32 -23 15 -54 46 -69 69 l-28 42 0 281 0 281 27 42 c53 80 110
101 274 102 85 0 134 -5 167 -16z m686 6 c80 -23 145 -96 157 -178 9 -58 -9
-93 -54 -106 -45 -13 -81 15 -99 76 -11 37 -19 48 -45 57 -40 14 -176 14 -216
0 -49 -17 -53 -42 -50 -282 4 -263 -3 -250 129 -256 162 -6 189 12 189 124 l0
55 -105 0 c-121 0 -145 12 -145 75 0 22 8 43 20 55 18 18 33 20 179 20 l160 0
21 -27 c20 -26 22 -37 18 -164 -3 -131 -4 -137 -33 -184 -22 -36 -45 -57 -84
-77 -51 -27 -60 -28 -190 -28 -130 0 -140 1 -192 28 -40 20 -61 39 -84 76
l-30 49 -3 260 -3 260 26 52 c26 54 77 98 131 115 40 12 262 12 303 0z"/>
<path d="M1553 3243 c-49 -10 -53 -31 -53 -271 l0 -223 25 -24 c22 -23 31 -25
128 -25 90 0 108 3 131 21 l26 20 0 233 c0 285 7 270 -139 273 -53 0 -106 -1
-118 -4z"/>
<path d="M1526 1749 c-32 -25 -36 -77 -8 -102 17 -16 128 -17 1395 -17 1364 0
1377 0 1397 20 29 29 26 74 -6 99 l-27 21 -1362 0 -1362 0 -27 -21z"/>
<path d="M1535 1218 c-11 -6 -23 -16 -27 -22 -14 -21 -8 -73 10 -89 17 -16
128 -17 1395 -17 1364 0 1377 0 1397 20 29 29 26 74 -6 99 l-27 21 -1361 0
c-996 -1 -1366 -4 -1381 -12z"/>
<path d="M1535 678 c-11 -6 -23 -16 -27 -22 -14 -21 -8 -73 10 -89 17 -16 128
-17 1395 -17 1364 0 1377 0 1397 20 29 29 26 74 -6 99 l-27 21 -1361 0 c-996
-1 -1366 -4 -1381 -12z"/>
</g>
</svg>
