<svg xmlns="http://www.w3.org/2000/svg" xml:space="preserve" id="Layer_1" x="0" y="0" version="1.1" viewBox="0 0 32 32"><style>.st1{fill:#fff}</style><path id="background" d="M5 0h22c2.8 0 5 2.2 5 5v22c0 2.8-2.2 5-5 5H5c-2.8 0-5-2.2-5-5V5c0-2.8 2.2-5 5-5" style="fill:#0082c9"/><g id="logo"><path d="M26.9 18.7h-8L17.8 20c-.5.5-1.1.8-1.8.8s-1.4-.3-1.8-.8l-1.1-1.2h-8c-.7 0-1.3.6-1.3 1.3v5.1c0 .7.6 1.3 1.3 1.3h21.8c.7 0 1.3-.6 1.3-1.3V20c0-.7-.6-1.3-1.3-1.3m-19.5 5c-.6 0-1.1-.5-1.1-1.1s.5-1.1 1.1-1.1 1.1.5 1.1 1.1-.5 1.1-1.1 1.1" class="st1"/><path d="m14.6 18.7.4.5c.3.3.6.4 1 .4s.7-.1 1-.4l.4-.5 5.4-6.1c.7-.8.1-2.1-1-2.1h-1.7V6.8c0-.7-.6-1.3-1.3-1.3h-5.6c-.7 0-1.3.6-1.3 1.3v3.6h-1.7c-1.1 0-1.7 1.3-1 2.1z" class="st1"/></g></svg>
