<?xml version="1.0" encoding="UTF-8"?>
<svg version="1.1" xmlns="http://www.w3.org/2000/svg" width="512" height="512">
<path d="M0 0 C68.64 0 137.28 0 208 0 C208 18.48 208 36.96 208 56 C211.3 56 214.6 56 218 56 C230.39367198 58.3982947 241.347821 66.10827838 248.65625 76.3125 C256.72091149 88.96294939 258.00724219 102.96016796 255.34375 117.609375 C251.44868692 130.57053318 242.2691996 141.11148918 230.60546875 147.7109375 C222.63450604 151.65459221 217.18761012 152 208 152 C208 170.48 208 188.96 208 208 C226.81 208 245.62 208 265 208 C265.66 212.29 266.32 216.58 267 221 C271.06455802 233.64529163 279.20158155 243.64841663 291.0625 249.8125 C301.80319165 255.04881057 314.21589856 255.78651508 325.8125 253.125 C337.9775057 248.76396022 347.84080474 240.42822558 353.8125 228.9375 C357.10575076 221.85431149 358.12262879 215.89634085 359 208 C377.81 208 396.62 208 416 208 C416 276.64 416 345.28 416 416 C278.72 416 141.44 416 0 416 C0 278.72 0 141.44 0 0 Z " fill="#3E9844" transform="translate(48,88)"/>
<path d="M0 0 C68.64 0 137.28 0 208 0 C208 18.48 208 36.96 208 56 C211.3 56 214.6 56 218 56 C230.39367198 58.3982947 241.347821 66.10827838 248.65625 76.3125 C256.72091149 88.96294939 258.00724219 102.96016796 255.34375 117.609375 C251.44868692 130.57053318 242.2691996 141.11148918 230.60546875 147.7109375 C222.63450604 151.65459221 217.18761012 152 208 152 C208 170.48 208 188.96 208 208 C189.52 208 171.04 208 152 208 C151.01 202.72 150.02 197.44 149 192 C141.90423017 176.24739097 132.51945303 168.41745524 116.81640625 162.125 C104.69507552 158.37129758 91.41911062 161.11060357 80.375 166.625 C69.80045044 172.78595552 63.97994709 180.94451746 59 192 C58.01 197.28 57.02 202.56 56 208 C37.52 208 19.04 208 0 208 C0 139.36 0 70.72 0 0 Z " fill="#2970CB" transform="translate(48,88)"/>
<path d="M0 0 C8.12007733 7.47649616 14.65178951 17.86338178 15.62890625 29.0703125 C15.62890625 31.3803125 15.62890625 33.6903125 15.62890625 36.0703125 C34.10890625 36.0703125 52.58890625 36.0703125 71.62890625 36.0703125 C71.62890625 54.5503125 71.62890625 73.0303125 71.62890625 92.0703125 C66.34890625 93.0603125 61.06890625 94.0503125 55.62890625 95.0703125 C41.32800363 101.51216053 32.96447958 109.67128221 26.62890625 124.0703125 C22.27781431 135.8804192 24.00239976 149.6423566 28.8828125 160.984375 C34.70731553 172.50641641 43.65388397 179.8787057 55.50390625 184.8203125 C60.75135372 186.4104481 66.22042317 187.16889865 71.62890625 188.0703125 C71.62890625 206.5503125 71.62890625 225.0303125 71.62890625 244.0703125 C2.98890625 244.0703125 -65.65109375 244.0703125 -136.37109375 244.0703125 C-136.37109375 175.4303125 -136.37109375 106.7903125 -136.37109375 36.0703125 C-117.89109375 36.0703125 -99.41109375 36.0703125 -80.37109375 36.0703125 C-80.37109375 33.7603125 -80.37109375 31.4503125 -80.37109375 29.0703125 C-78.22106827 16.01928062 -71.60818066 5.33872885 -61.37109375 -2.9296875 C-41.58742521 -15.894713 -18.58093375 -15.12188019 0 0 Z " fill="#FEBA33" transform="translate(184.37109375,259.9296875)"/>
<path d="M0 0 C14.35546434 11.70990834 26.06794902 27.89121936 28.30664062 46.72021484 C29.76601625 68.44058871 26.97909464 88.67535502 12.32739258 105.62890625 C2.35664515 116.55016223 -8.66203499 124.04310671 -22.69335938 128.72021484 C-23.02335937 147.86021484 -23.35335937 167.00021484 -23.69335938 186.72021484 C-36.89335937 186.72021484 -50.09335937 186.72021484 -63.69335938 186.72021484 C-63.93401223 166.36722237 -63.93401223 166.36722237 -63.98632812 157.65576172 C-64.02212202 151.72370996 -64.06435141 145.7922167 -64.14599609 139.8605957 C-64.21144472 135.07540731 -64.24711912 130.29081822 -64.26262283 125.5052166 C-64.2736636 123.68439748 -64.29522398 121.8636092 -64.32773972 120.04304695 C-64.62269536 102.83572725 -64.62269536 102.83572725 -59.30989075 96.26161194 C-54.14819132 91.3398216 -48.77544382 90.13214442 -41.88085938 89.34521484 C-32.44296276 87.99708097 -25.38977502 85.44639637 -19.25585938 77.78271484 C-18.37295685 76.44710592 -17.51589597 75.09382381 -16.69335938 73.72021484 C-16.07460938 72.70958984 -15.45585937 71.69896484 -14.81835938 70.65771484 C-11.98080319 63.24948432 -12.63310347 53.55691822 -15.31835938 46.22021484 C-19.8152115 36.85435731 -26.01395376 32.45173214 -35.69335938 28.72021484 C-44.13099737 26.41039446 -52.38814078 28.18814554 -59.94335938 32.34521484 C-66.90277049 36.83550993 -71.03997866 42.89972433 -73.69335938 50.72021484 C-74.02335937 53.36021484 -74.35335937 56.00021484 -74.69335938 58.72021484 C-88.22335937 58.72021484 -101.75335938 58.72021484 -115.69335938 58.72021484 C-115.69335938 38.39978304 -109.8738405 21.79295582 -95.46679688 7.36865234 C-69.8617895 -17.08232653 -29.09438342 -21.98857524 0 0 Z " fill="#D9565C" transform="translate(427.693359375,21.27978515625)"/>
<path d="M0 0 C4.68796317 2.8950501 8.77605467 6.42344712 10.234375 11.89453125 C11.16656452 18.74158704 11.3930195 24.99387098 7.671875 31.01953125 C3.66347868 35.99068326 0.31000422 38.47580101 -6.0078125 39.3359375 C-13.1275177 39.69575056 -18.34453314 39.19135672 -23.98828125 34.640625 C-29.08369757 29.63479842 -30.03494232 26.05750776 -30.390625 19.01953125 C-30.17838344 12.13997715 -28.58962241 7.80486419 -23.765625 2.89453125 C-17.29271618 -2.6344117 -7.84970384 -3.13766411 0 0 Z " fill="#D9575D" transform="translate(393.765625,225.10546875)"/>
</svg>
