<?xml version="1.0" standalone="no"?>
<!DOCTYPE svg PUBLIC "-//W3C//DTD SVG 20010904//EN"
 "http://www.w3.org/TR/2001/REC-SVG-20010904/DTD/svg10.dtd">
<svg version="1.0" xmlns="http://www.w3.org/2000/svg"
 width="512.000000pt" height="512.000000pt" viewBox="0 0 512.000000 512.000000"
 preserveAspectRatio="xMidYMid meet">

<g transform="translate(0.000000,512.000000) scale(0.100000,-0.100000)"
fill="#000000" stroke="none">
<path d="M2455 5109 c-245 -36 -451 -182 -565 -401 -42 -79 -80 -206 -80 -263
0 -45 -10 -50 -29 -13 -12 24 -103 92 -361 270 -207 143 -358 240 -377 244
-54 10 -104 -5 -139 -41 -40 -43 -44 -66 -44 -246 l0 -149 -248 0 c-237 0
-250 -1 -292 -22 -107 -54 -107 -202 0 -255 42 -22 55 -23 292 -23 l248 0 0
-149 c0 -180 4 -203 44 -246 35 -36 85 -51 139 -41 19 4 170 101 377 244 258
178 349 246 361 270 19 37 29 32 29 -13 0 -100 79 -291 163 -393 207 -252 572
-348 867 -229 220 89 402 293 452 505 l13 52 452 0 453 0 0 -453 0 -454 -82
-27 c-115 -38 -210 -96 -299 -185 -89 -89 -147 -184 -185 -298 l-27 -83 -1051
0 -1051 0 0 -150 0 -150 1051 0 1051 0 27 -82 c38 -115 96 -210 185 -299 164
-164 377 -240 609 -217 172 16 326 90 453 217 164 165 240 377 217 611 -16
172 -92 326 -222 455 -95 94 -179 146 -293 181 l-83 26 0 541 c0 526 -1 542
-21 583 -15 31 -32 48 -63 63 -41 20 -58 21 -582 21 l-539 0 -13 52 c-28 121
-118 267 -221 359 -172 156 -386 221 -616 188z"/>
<path d="M612 1258 c3 -534 3 -547 24 -574 11 -15 33 -37 48 -48 27 -21 40
-21 574 -24 l547 -2 0 150 0 150 -447 0 -448 0 0 448 0 447 -150 0 -150 0 2
-547z"/>
<path d="M4252 1331 c-65 -41 -72 -66 -72 -253 l0 -168 -432 0 -433 0 0 -150
0 -150 433 0 432 0 0 -167 c0 -150 2 -172 20 -201 31 -51 76 -74 136 -69 48 3
72 18 399 243 307 211 350 244 366 279 24 51 24 87 0 133 -15 30 -81 80 -367
276 -326 225 -350 240 -398 243 -39 3 -59 -1 -84 -16z"/>
</g>
</svg>
