<svg version="1.1" id="Layer_1" xmlns="http://www.w3.org/2000/svg" xmlns:xlink="http://www.w3.org/1999/xlink" x="0px" y="0px"
	 width="100%" viewBox="0 0 512 512" enable-background="new 0 0 512 512" xml:space="preserve">
<path fill="#0098FF" opacity="1.000000" stroke="none"
	d="
M289.000000,513.000000
	C267.979095,513.000000 246.958206,513.000000 225.805267,512.660095
	C224.997849,511.893921 224.366745,511.204865 223.640182,511.082489
	C217.218750,510.000946 210.754669,509.159943 204.351486,507.984741
	C178.250565,503.194397 153.701019,493.790680 130.774445,480.769562
	C106.496246,466.980865 84.619225,449.902130 66.062592,428.713898
	C53.441788,414.303253 42.040558,399.092804 32.818554,382.338776
	C17.253983,354.061951 6.857816,324.021545 2.917000,291.864929
	C2.832489,291.175323 1.663229,290.618683 0.999999,290.000000
	C1.000000,268.312439 1.000000,246.624878 1.325826,224.814697
	C2.765258,219.515869 4.045516,214.368988 4.963047,209.158234
	C8.551249,188.780457 14.667315,169.140228 23.335897,150.426437
	C38.263309,118.201050 58.470860,89.781746 85.244736,66.101074
	C99.610283,53.395199 114.900871,42.103180 131.634781,32.852409
	C159.889832,17.232561 189.952408,6.879137 222.107803,2.917437
	C222.806671,2.831334 223.372253,1.663325 224.000000,1.000005
	C245.354233,1.000000 266.708466,1.000000 288.194824,1.340204
	C290.835693,2.135673 293.348083,2.571942 295.852631,3.049186
	C317.568237,7.187057 338.801208,12.749826 359.241028,21.513645
	C387.650299,33.694454 412.677155,50.789497 435.111176,71.780853
	C441.957367,78.186783 448.383179,85.222221 454.003418,92.717773
	C463.558685,105.461395 473.371063,118.203888 481.199310,132.010605
	C497.207916,160.245010 507.545685,190.618729 511.083801,223.094559
	C511.159668,223.791016 512.336670,224.367523 513.000000,225.000000
	C513.000000,246.020889 513.000000,267.041779 512.659973,288.194824
	C511.893768,289.002289 511.212311,289.631348 511.080139,290.360016
	C509.340515,299.949982 508.112823,309.654816 505.913910,319.135315
	C499.703857,345.909943 488.997864,370.944275 474.246155,394.052094
	C461.803741,413.542572 447.306854,431.412781 429.835846,446.879639
	C415.109283,459.916901 399.579315,471.696960 382.379089,481.138336
	C353.793793,496.829071 323.495972,507.502960 290.900604,511.083649
	C290.205292,511.160034 289.630859,512.336670 289.000000,513.000000
M151.707291,110.176186
	C147.738373,113.180473 143.769455,116.184753 139.422348,119.475296
	C133.005173,113.020218 126.675774,106.665375 120.361290,100.295746
	C117.866844,97.779495 115.089340,96.188614 111.416443,97.453850
	C107.644234,98.753319 106.007217,101.508865 105.740646,105.411850
	C105.423012,110.062477 104.817734,114.692680 104.396477,119.337128
	C102.410370,141.234650 100.373466,163.127945 98.507889,185.035797
	C97.798386,193.367523 103.646828,200.916397 111.559082,201.912674
	C114.825943,202.324005 118.221001,202.059845 121.527077,201.762177
	C145.581848,199.596344 169.624512,197.295349 193.682373,195.165436
	C197.739700,194.806229 201.298401,194.063187 203.004944,189.849472
	C204.840363,185.317581 202.419205,182.259354 199.416473,179.321747
	C193.749802,173.777939 188.159744,168.155807 182.212646,162.242889
	C184.500778,160.559372 186.177383,159.225754 187.950607,158.036179
	C212.540604,141.539612 239.527130,134.562164 269.031708,137.802322
	C337.412170,145.311752 385.983948,208.653656 373.984131,276.357941
	C365.027283,326.893463 334.761261,360.355988 285.194885,373.079132
	C235.884247,385.736603 194.231171,370.053802 161.583099,331.141571
	C149.376343,316.592682 142.298355,299.421448 138.122452,280.951721
	C136.117844,272.085480 130.775421,267.888611 121.810379,267.726929
	C112.481064,267.558655 103.139587,267.492828 93.815216,267.773560
	C83.238060,268.092041 76.492630,276.768005 78.339355,287.175537
	C78.659180,288.977966 78.962151,290.784393 79.332458,292.576691
	C98.934021,387.447205 188.006882,449.372620 283.969299,434.850708
	C383.644867,419.766907 451.937103,322.614105 432.812378,223.105972
	C408.193817,95.012810 259.323334,34.873051 151.707291,110.176186
z"/>
<path fill="#000000" opacity="1.000000" stroke="none"
	d="
M513.000000,224.531342
	C512.336670,224.367523 511.159668,223.791016 511.083801,223.094559
	C507.545685,190.618729 497.207916,160.245010 481.199310,132.010605
	C473.371063,118.203888 463.558685,105.461395 454.003418,92.717773
	C448.383179,85.222221 441.957367,78.186783 435.111176,71.780853
	C412.677155,50.789497 387.650299,33.694454 359.241028,21.513645
	C338.801208,12.749826 317.568237,7.187057 295.852631,3.049186
	C293.348083,2.571942 290.835693,2.135673 288.663452,1.340204
	C363.593719,1.000000 438.187408,1.000000 513.000000,1.000000
	C513.000000,75.354088 513.000000,149.708389 513.000000,224.531342
z"/>
<path fill="#000000" opacity="1.000000" stroke="none"
	d="
M289.468658,513.000000
	C289.630859,512.336670 290.205292,511.160034 290.900604,511.083649
	C323.495972,507.502960 353.793793,496.829071 382.379089,481.138336
	C399.579315,471.696960 415.109283,459.916901 429.835846,446.879639
	C447.306854,431.412781 461.803741,413.542572 474.246155,394.052094
	C488.997864,370.944275 499.703857,345.909943 505.913910,319.135315
	C508.112823,309.654816 509.340515,299.949982 511.080139,290.360016
	C511.212311,289.631348 511.893768,289.002289 512.659973,288.663483
	C513.000000,363.593719 513.000000,438.187408 513.000000,513.000000
	C438.645905,513.000000 364.291626,513.000000 289.468658,513.000000
z"/>
<path fill="#000000" opacity="1.000000" stroke="none"
	d="
M0.999999,290.468658
	C1.663229,290.618683 2.832489,291.175323 2.917000,291.864929
	C6.857816,324.021545 17.253983,354.061951 32.818554,382.338776
	C42.040558,399.092804 53.441788,414.303253 66.062592,428.713898
	C84.619225,449.902130 106.496246,466.980865 130.774445,480.769562
	C153.701019,493.790680 178.250565,503.194397 204.351486,507.984741
	C210.754669,509.159943 217.218750,510.000946 223.640182,511.082489
	C224.366745,511.204865 224.997849,511.893921 225.336609,512.660095
	C150.406464,513.000000 75.812927,513.000000 1.000000,513.000000
	C1.000000,438.979248 1.000000,364.958282 0.999999,290.468658
z"/>
<path fill="#000000" opacity="1.000000" stroke="none"
	d="
M223.531342,1.000005
	C223.372253,1.663325 222.806671,2.831334 222.107803,2.917437
	C189.952408,6.879137 159.889832,17.232561 131.634781,32.852409
	C114.900871,42.103180 99.610283,53.395199 85.244736,66.101074
	C58.470860,89.781746 38.263309,118.201050 23.335897,150.426437
	C14.667315,169.140228 8.551249,188.780457 4.963047,209.158234
	C4.045516,214.368988 2.765258,219.515869 1.325826,224.346039
	C1.000000,149.739624 1.000000,75.479248 1.000000,1.000000
	C75.020752,1.000000 149.041718,1.000000 223.531342,1.000005
z"/>
<path fill="#FEFFFF" opacity="1.000000" stroke="none"
	d="
M152.008911,109.983391
	C259.323334,34.873051 408.193817,95.012810 432.812378,223.105972
	C451.937103,322.614105 383.644867,419.766907 283.969299,434.850708
	C188.006882,449.372620 98.934021,387.447205 79.332458,292.576691
	C78.962151,290.784393 78.659180,288.977966 78.339355,287.175537
	C76.492630,276.768005 83.238060,268.092041 93.815216,267.773560
	C103.139587,267.492828 112.481064,267.558655 121.810379,267.726929
	C130.775421,267.888611 136.117844,272.085480 138.122452,280.951721
	C142.298355,299.421448 149.376343,316.592682 161.583099,331.141571
	C194.231171,370.053802 235.884247,385.736603 285.194885,373.079132
	C334.761261,360.355988 365.027283,326.893463 373.984131,276.357941
	C385.983948,208.653656 337.412170,145.311752 269.031708,137.802322
	C239.527130,134.562164 212.540604,141.539612 187.950607,158.036179
	C186.177383,159.225754 184.500778,160.559372 182.212646,162.242889
	C188.159744,168.155807 193.749802,173.777939 199.416473,179.321747
	C202.419205,182.259354 204.840363,185.317581 203.004944,189.849472
	C201.298401,194.063187 197.739700,194.806229 193.682373,195.165436
	C169.624512,197.295349 145.581848,199.596344 121.527077,201.762177
	C118.221001,202.059845 114.825943,202.324005 111.559082,201.912674
	C103.646828,200.916397 97.798386,193.367523 98.507889,185.035797
	C100.373466,163.127945 102.410370,141.234650 104.396477,119.337128
	C104.817734,114.692680 105.423012,110.062477 105.740646,105.411850
	C106.007217,101.508865 107.644234,98.753319 111.416443,97.453850
	C115.089340,96.188614 117.866844,97.779495 120.361290,100.295746
	C126.675774,106.665375 133.005173,113.020218 139.422348,119.475296
	C143.769455,116.184753 147.738373,113.180473 152.008911,109.983391
z"/>
</svg>
