<?xml version="1.0" standalone="no"?>
<!DOCTYPE svg PUBLIC "-//W3C//DTD SVG 20010904//EN"
 "http://www.w3.org/TR/2001/REC-SVG-20010904/DTD/svg10.dtd">
<svg version="1.0" xmlns="http://www.w3.org/2000/svg"
 width="512.000000pt" height="512.000000pt" viewBox="0 0 512.000000 512.000000"
 preserveAspectRatio="xMidYMid meet">

<g transform="translate(0.000000,512.000000) scale(0.100000,-0.100000)"
fill="#000000" stroke="none">
<path d="M2415 5109 c-898 -44 -1727 -586 -2132 -1394 -143 -285 -229 -570
-263 -880 -13 -116 -13 -434 0 -550 65 -582 322 -1119 734 -1530 406 -405 913
-653 1491 -730 243 -32 582 -18 838 35 387 79 779 266 1094 521 100 81 281
262 362 362 308 381 508 859 560 1339 14 125 14 431 0 556 -92 855 -623 1619
-1388 2002 -411 205 -828 292 -1296 269z m490 -779 c654 -140 1163 -596 1364
-1223 65 -204 75 -278 75 -547 0 -269 -10 -343 -75 -547 -180 -560 -611 -992
-1170 -1171 -180 -58 -277 -73 -494 -79 -222 -6 -341 6 -520 53 -633 164
-1135 677 -1290 1316 -42 174 -31 243 48 302 26 19 44 21 212 24 269 5 285 -5
337 -196 33 -121 105 -279 169 -373 59 -88 189 -221 284 -292 44 -33 130 -84
190 -113 255 -123 532 -152 802 -84 456 116 806 493 888 957 19 104 19 300 0
409 -93 529 -539 937 -1075 983 -273 23 -532 -44 -763 -197 l-69 -45 106 -106
c117 -118 128 -144 84 -196 -23 -26 -23 -26 -458 -66 -413 -37 -437 -39 -478
-23 -56 21 -94 71 -99 132 -2 26 14 233 35 461 37 396 40 415 61 433 13 10 39
18 60 18 33 0 46 -10 145 -109 l109 -110 56 43 c247 190 526 310 836 361 137
22 497 14 630 -15z"/>
</g>
</svg>
