<?xml version="1.0" encoding="UTF-8"?><svg id="a" xmlns="http://www.w3.org/2000/svg" width="200" height="200" xmlns:xlink="http://www.w3.org/1999/xlink" viewBox="0 0 200 200"><defs><linearGradient id="linear-gradient" x1="47.845757148576013" y1="-2150.04784762304007" x2="47.84575714857602" y2="-2086.089055930919585" gradientTransform="translate(0 -2000) scale(1 -1)" gradientUnits="userSpaceOnUse"><stop offset="0" stop-color="#00004c" stop-opacity=".800000011920929"/><stop offset=".19" stop-color="#000" stop-opacity=".550000011920929"/><stop offset=".55" stop-color="#000" stop-opacity=".150000005960464"/><stop offset=".75" stop-color="#00004c" stop-opacity="0"/></linearGradient><linearGradient id="linear-gradient-2" x1="115.746436003439158" y1="-2074.984159825661663" x2="179.705235280490029" y2="-2074.984159825661663" gradientTransform="translate(0 -2000) scale(1 -1)" gradientUnits="userSpaceOnUse"><stop offset="0" stop-color="#00004c" stop-opacity=".800000011920929"/><stop offset=".19" stop-color="#000" stop-opacity=".550000011920929"/><stop offset=".55" stop-color="#000" stop-opacity=".150000005960464"/><stop offset=".75" stop-color="#00004c" stop-opacity="0"/></linearGradient></defs><g id="b"><rect x=".00000000038149" y="-.000000001480231" width="199.999999999237048" height="200.000000002960462" rx="99.999900001100343" ry="99.999900001100343" style="fill:#1088ff;"/><path d="M59.317255586403917,143.04888550668511l15.907991180700265-27.293742005722379c-3.833771596802762-6.009766125946044-8.64059845689917-11.337283134103927-14.201746422122596-15.762588107947522-10.922220695544638,8.694026690831379-25.542753755952617,13.867448298569798-40.557232814932831,13.867448298569798h0c19.955513637871263,0,36.943424134657107,16.232337878513135,36.943424134657107,36.187843931455063h.028580009292455c-.002487856434527-2.38104547691546.59402123347536-4.79314364970196,1.878983912405602-6.99896211635496Z" style="fill:#fff;"/><path d="M59.317255586403917,143.04888550668511l15.907991180700265-27.293742005722379c-3.833771596802762-6.009766125946044-8.64059845689917-11.337283134103927-14.201746422122596-15.762588107947522-10.922220695544638,8.694026690831379-25.542753755952617,13.867448298569798-40.557232814932831,13.867448298569798h0c19.955513637871263,0,36.943424134657107,16.232337878513135,36.943424134657107,36.187843931455063h.028580009292455c-.002487856434527-2.38104547691546.59402123347536-4.79314364970196,1.878983912405602-6.99896211635496Z" style="fill:url(#linear-gradient);"/><path d="M179.533740054879672,86.135035765400971c-19.843658702353423-.093203597181855-35.987768696554667-16.313117363375568-35.987768696554667-36.177907675571987h0c.002487856435437,2.381037891987944-.59402123347536,4.793151234631296-1.878983912404692,6.998969701284295l-15.907991180701174,27.293742005722379c3.833771596802762,6.009766125946044,8.640598456900079,11.337283134105746,14.201746422123506,15.761351764658684,10.879972645714588-8.660478553596477,24.62688126602734-13.836388017771242,39.572997367537027-13.876148211164036h0v-.000007584929335Z" style="fill:#fff;"/><path d="M179.533740054879672,86.135035765400971c-19.843658702353423-.093203597181855-35.987768696554667-16.313117363375568-35.987768696554667-36.177907675571987h0c.002487856435437,2.381037891987944-.59402123347536,4.793151234631296-1.878983912404692,6.998969701284295l-15.907991180701174,27.293742005722379c3.833771596802762,6.009766125946044,8.640598456900079,11.337283134105746,14.201746422123506,15.761351764658684,10.879972645714588-8.660478553596477,24.62688126602734-13.836388017771242,39.572997367537027-13.876148211164036h0v-.000007584929335Z" style="fill:url(#linear-gradient-2);"/><path d="M85.220399618766351,49.957128089828984c0-7.676250691129098-6.221029129878843-13.898519956761447-13.897279821007942-13.898519956761447s-13.897279821007942,6.222269265632349-13.897279821007942,13.898519956761447c0,19.866034240414592-16.113034543544927,36.031268259530407-35.957948551507798,36.136895969031684-.064619795426552,0-.126755526881425.009943840812412-.19261925052524.009943840812412-.242330869659781,0-.478445890696094.023611881350007-.718288903921348.036035993671248l-.093203597182764,27.719999798240679h0c15.013235130762951,0,29.635012119388193-5.173421607738419,40.557232814932831-13.867448298569798,14.729900139490383-11.725009491590754,24.198135617074513-29.789115104736993,24.198135617074513-50.03541971825689l.001251513145689-.000007584929335Z" style="fill:#fff;"/><path d="M139.960742687342645,100.011191561494343c-14.728656211273119,11.72501707651827-24.196891688857249,29.790359032953347-24.196891688857249,50.036656061545727,0,7.657606937722448,6.192441535658872,13.866204370353444,13.842600073930953,13.896028307863162h.108115565936714c7.65015853827208-.029823937509718,13.842600073930953-6.238421370140713,13.842600073930953-13.896028307863162,0-19.843658702351604,16.074510693440061-35.990256552988285,35.883384915268834-36.134415697522854l.093203597182764-27.778403745043761c-14.94613127136563.03976777832213-28.693039891678382,5.214433314278722-39.57301253739297,13.876155796093371v.000007584927516Z" style="fill:#fff;"/><path d="M143.545971358325005,49.957128089828984c-.004975712869964-4.778239265875527-2.461824961778802-9.427231355970434-6.887129935621488-12.008352067789019-6.633611296931122-3.864843254994412-15.139986865179708-1.621741073990052-19.004826327710362,5.009382366506543l-42.428768327888974,72.79574118419805-15.907991180700265,27.293742005722379c-1.284970263857758,2.205818466653-1.881471768840129,4.617931809296351-1.878983912405602,6.998962116356779.004968127942448,4.778231680948011,2.461817376850377,9.427231355970434,6.887122350693971,12.008352067789019,2.177238457360545,1.268806781958119,4.554552149623305,1.874008199534728,6.905766104101531,1.887676240072324h.160307456579176c4.753383456309166-.027336081075191,9.371307680677091-2.492892827505784,11.938760351958081-6.897066191506383l42.428768327888065-72.79574118419805,15.907991180701174-27.293742005724198c1.284962678929332-2.205818466653,1.881471768840129-4.617924224367016,1.878983912404692-6.998969701282476v.000015169855033Z" style="fill:#fff;"/></g></svg>
