<?xml version="1.0" standalone="no"?>
<!DOCTYPE svg PUBLIC "-//W3C//DTD SVG 20010904//EN"
 "http://www.w3.org/TR/2001/REC-SVG-20010904/DTD/svg10.dtd">
<svg version="1.0" xmlns="http://www.w3.org/2000/svg"
 width="512.000000pt" height="512.000000pt" viewBox="0 0 512.000000 512.000000"
 preserveAspectRatio="xMidYMid meet">

<g transform="translate(0.000000,512.000000) scale(0.100000,-0.100000)"
fill="#000000" stroke="none">
<path d="M1835 4671 c-168 -78 -164 -314 7 -385 33 -14 125 -16 720 -16 643 0
685 2 723 19 165 76 165 306 0 382 -38 17 -79 19 -725 19 -646 0 -687 -2 -725
-19z"/>
<path d="M798 3830 c-143 -43 -203 -221 -112 -329 58 -70 75 -76 234 -81 l145
-5 5 -1140 c3 -627 9 -1151 14 -1165 4 -14 17 -54 28 -90 96 -302 361 -530
678 -580 88 -13 1452 -13 1540 0 300 48 567 265 665 540 53 147 49 68 55 1295
l5 1140 145 5 c159 5 176 11 234 81 77 91 47 243 -62 306 l-47 28 -1750 2
c-962 1 -1762 -2 -1777 -7z m1449 -876 c34 -21 55 -44 75 -83 l28 -53 0 -675
c0 -477 -3 -687 -11 -714 -56 -184 -318 -200 -400 -24 -17 38 -19 80 -19 729
0 682 0 690 21 733 56 115 196 155 306 87z m804 25 c52 -16 103 -61 128 -112
21 -43 21 -54 21 -733 0 -649 -2 -691 -19 -729 -83 -178 -349 -159 -400 29 -9
29 -11 235 -9 722 l3 681 30 48 c22 36 45 57 84 77 57 30 102 35 162 17z"/>
</g>
</svg>
