<?xml version="1.0" encoding="UTF-8"?>
<svg version="1.1" xmlns="http://www.w3.org/2000/svg" width="512" height="512">
<path d="M0 0 C0.58491211 0.46776855 1.16982422 0.93553711 1.77246094 1.41748047 C10.30066735 8.25461943 18.06759277 15.86511606 25.8125 23.5625 C26.30100433 24.04564667 26.78950867 24.52879333 27.29281616 25.02658081 C33.99005755 31.66800833 40.16292641 38.58729274 46 46 C46.75422241 46.9427478 46.75422241 46.9427478 47.52368164 47.90454102 C50.42651649 51.5463389 53.21997447 55.26434069 56 59 C56.721875 59.93972656 57.44375 60.87945312 58.1875 61.84765625 C62.2147231 67.49064023 64.1455932 72.02789598 63.66796875 79.0390625 C62.41771569 84.58111991 59.43000867 88.56011073 56 93 C55.39720215 93.80026611 55.39720215 93.80026611 54.78222656 94.61669922 C51.61460465 98.82199038 48.32671753 102.92004204 45 107 C44.57187012 107.53399414 44.14374023 108.06798828 43.70263672 108.61816406 C36.80879502 117.18573186 29.18443754 125.02277288 21.4375 132.8125 C20.95462524 133.30064178 20.47175049 133.78878357 19.97424316 134.29171753 C13.33324277 140.98866558 6.42452358 147.17759154 -1 153 C-2.03411011 153.81513062 -2.03411011 153.81513062 -3.08911133 154.64672852 C-49.28306724 190.63511248 -105.49058572 213.91736401 -164 219 C-165.21429688 219.11085938 -166.42859375 219.22171875 -167.6796875 219.3359375 C-246.57751247 225.40500096 -327.39618055 201.49199176 -388 150 C-391.16214451 147.22186404 -394.25319811 144.37036215 -397.32421875 141.4921875 C-399.57265386 139.39802458 -401.85390589 137.37259338 -404.1875 135.375 C-411.36210477 129.13815477 -417.90370329 122.28553641 -424 115 C-424.45890625 114.4548877 -424.9178125 113.90977539 -425.390625 113.34814453 C-449.89289875 84.1356799 -449.89289875 84.1356799 -449.78125 73.4453125 C-447.98978569 65.54495491 -441.94204891 59.22296145 -437 53 C-436.45520996 52.30116699 -435.91041992 51.60233398 -435.34912109 50.88232422 C-428.02403118 41.49781235 -420.2575957 32.57267089 -412 24 C-411.46874512 23.44683105 -410.93749023 22.89366211 -410.39013672 22.32373047 C-404.13854878 15.84933571 -397.78098737 9.74255011 -390.70703125 4.15625 C-388.90069834 2.71743937 -387.12643907 1.23742962 -385.38671875 -0.28125 C-304.27501433 -70.95283405 -181.40629538 -85.50121379 0 0 Z " fill="#454B54" transform="translate(449,180)"/>
<path d="M0 0 C3.19851793 0.01069007 6.39647005 0.00006238 9.5949707 -0.01269531 C27.56424142 -0.02726893 44.70669958 1.45267119 62.27661133 5.26074219 C64.15993164 5.65132812 64.15993164 5.65132812 66.08129883 6.04980469 C80.44460697 9.08819679 86.45068202 14.58062238 94.52661133 26.94824219 C101.95220318 38.71386198 106.90092642 50.67944318 109.90161133 64.26074219 C110.07821289 65.00952637 110.25481445 65.75831055 110.43676758 66.52978516 C115.98301934 91.49287009 110.24162059 118.63906595 97.58911133 140.61621094 C80.523883 167.35963588 56.44367371 185.16424295 25.40161133 192.19824219 C-3.34723695 196.78306353 -32.11900496 192.15412751 -56.16088867 175.26074219 C-61.37738721 171.19090432 -66.2829677 166.79385205 -71.09838867 162.26074219 C-71.77514648 161.66003906 -72.4519043 161.05933594 -73.14916992 160.44042969 C-90.04473384 144.79764305 -101.18306522 119.26607997 -102.22387695 96.51806641 C-103.15332199 67.41569432 -97.79307108 42.42523558 -79.09838867 19.26074219 C-78.53659912 18.46039551 -77.97480957 17.66004883 -77.39599609 16.83544922 C-70.91570738 8.43470436 -63.93613668 6.92996355 -54.03588867 5.26074219 C-52.62179804 4.98952003 -51.20837483 4.71479399 -49.7956543 4.43652344 C-45.57615464 3.62346512 -41.34284264 2.92930311 -37.09838867 2.26074219 C-35.85436279 2.05610352 -34.61033691 1.85146484 -33.32861328 1.640625 C-22.23561771 0.01680416 -11.19654745 -0.04439348 0 0 Z " fill="#7BA4C5" transform="translate(251.098388671875,140.7392578125)"/>
<path d="M0 0 C0.495 0.99 0.495 0.99 1 2 C0.20365219 3.85917777 -0.66697659 5.68650899 -1.5625 7.5 C-15.30568991 38.18304088 -14.92247644 75.62281006 -3.3125 106.875 C10.61857739 142.19847881 37.31582875 168.88258014 72 184 C76.92656841 185.96644344 81.89628199 187.57126267 87 189 C87.6511377 189.19609863 88.30227539 189.39219727 88.97314453 189.59423828 C110.01475497 195.78175681 136.11225164 195.65145857 157 189 C157.8338623 188.75330566 158.66772461 188.50661133 159.52685547 188.25244141 C181.8279823 181.65325238 200.16532589 171.09501356 217 155 C217.66128906 154.401875 218.32257813 153.80375 219.00390625 153.1875 C234.09816001 139.03854294 243.91747565 120.04294853 250.5 100.6875 C250.82637451 99.73431885 251.15274902 98.7811377 251.48901367 97.79907227 C255.53715054 85.22150994 256.32857146 72.70357623 256.25 59.5625 C256.25773437 58.27279297 256.26546875 56.98308594 256.2734375 55.65429688 C256.24837099 43.13984272 255.16874305 30.99897233 251.0625 19.125 C250.68448242 17.9803125 250.68448242 17.9803125 250.29882812 16.8125 C249.54492463 14.53729251 248.7732232 12.26870384 248 10 C247.43495237 8.31031185 246.87111331 6.62021896 246.30859375 4.9296875 C246.05779053 4.17671387 245.8069873 3.42374023 245.54858398 2.64794922 C245.36755127 2.10412598 245.18651855 1.56030273 245 1 C268.44683893 9.92379691 290.07345289 26.51543839 308.3046875 43.515625 C310.46143409 45.50358273 312.6481058 47.42408747 314.87109375 49.3359375 C324.74079826 57.9505083 333.416812 67.91739426 341.4375 78.25 C341.99912842 78.96462402 342.56075684 79.67924805 343.1394043 80.41552734 C343.64898682 81.08793457 344.15856934 81.7603418 344.68359375 82.453125 C345.13275146 83.04254883 345.58190918 83.63197266 346.04467773 84.23925781 C347 86 347 86 347 90 C345.48921694 92.2810445 343.97620575 94.33101769 342.25 96.4375 C341.50290771 97.36502075 341.50290771 97.36502075 340.74072266 98.3112793 C327.5517819 114.49320614 312.62348203 130.36615366 296 143 C294.83679175 143.91479543 293.67406401 144.83020206 292.51171875 145.74609375 C277.73363561 157.2498433 261.81784707 167.16840058 244.85888672 175.12353516 C243.01195479 175.99436332 241.17936466 176.89062272 239.34765625 177.79296875 C203.28137038 195.37003461 164.07202594 203.23619664 124.125 203.1875 C123.21303864 203.18689575 122.30107727 203.1862915 121.36148071 203.18566895 C100.72921134 203.14852674 81.13865932 201.62224868 61 197 C60.17790039 196.81566406 59.35580078 196.63132812 58.50878906 196.44140625 C18.25450753 187.32485674 -18.70033433 168.52647234 -51 143 C-51.56187012 142.55672363 -52.12374023 142.11344727 -52.70263672 141.65673828 C-69.50921784 128.21849074 -85.33428825 112.38478969 -98 95 C-98.77085938 94.15566406 -99.54171875 93.31132812 -100.3359375 92.44140625 C-102 90 -102 90 -102.0546875 87.59765625 C-100.62975981 84.08811213 -98.50103889 81.34177172 -96.125 78.4375 C-95.62742187 77.81963623 -95.12984375 77.20177246 -94.6171875 76.56518555 C-89.6613222 70.47438329 -84.45271688 64.65002416 -79 59 C-78.30310059 58.27586914 -77.60620117 57.55173828 -76.88818359 56.80566406 C-67.66656669 47.27464917 -58.44041017 38.08266805 -47.71240234 30.25488281 C-45.90204692 28.92821802 -44.11663048 27.57201686 -42.33203125 26.2109375 C-29.00649488 16.13058766 -14.57928151 8.10385818 0 0 Z " fill="#F7F7FA" transform="translate(134,168)"/>
<path d="M0 0 C10.7669179 5.69050034 17.80067948 13.49789573 21.75 25.25 C22.13631549 26.58009891 22.51292279 27.91309953 22.875 29.25 C23.205 30.24 23.535 31.23 23.875 32.25 C25.09906844 44.89201827 21.65590499 57.17171573 13.875 67.25 C6.05881145 75.97342472 -4.03482427 81.73216084 -15.84765625 82.48828125 C-30.00312056 82.85434267 -40.33387757 79.99471056 -51.125 70.25 C-62.61302633 57.52836011 -63.73616427 45.63259781 -63.125 29.25 C-62.29097656 29.29640625 -61.45695313 29.3428125 -60.59765625 29.390625 C-50.56174369 29.71250994 -43.10602215 28.01526075 -35.62890625 21.05859375 C-29.74255855 13.97968729 -29.40186663 5.08204545 -29.125 -3.75 C-19.40441608 -6.99019464 -8.92396329 -4.23472544 0 0 Z " fill="#454B54" transform="translate(276.125,188.75)"/>
<path d="M0 0 C3.03915089 0.22102916 5.98525413 0.56605931 9 1 C9.63808594 1.08668945 10.27617187 1.17337891 10.93359375 1.26269531 C20.81315352 2.71151344 27.40431115 4.63196198 33.80078125 12.8203125 C34.52652344 13.86960938 35.25226563 14.91890625 36 16 C36.38591309 16.53979492 36.77182617 17.07958984 37.16943359 17.63574219 C46.41866847 30.65092737 52.55897808 44.42570648 56 60 C56.26490234 61.12317627 56.26490234 61.12317627 56.53515625 62.26904297 C62.08140801 87.2321279 56.34000926 114.37832376 43.6875 136.35546875 C29.94946005 157.88475821 11.94406146 173.9331218 -12 183 C-12.82588623 183.31549805 -13.65177246 183.63099609 -14.50268555 183.95605469 C-15.28554932 184.23868164 -16.06841309 184.52130859 -16.875 184.8125 C-17.57367188 185.06644531 -18.27234375 185.32039062 -18.9921875 185.58203125 C-21.31687181 186.06596359 -22.76625094 185.73623568 -25 185 C-24.24976563 184.45472656 -23.49953125 183.90945313 -22.7265625 183.34765625 C3.9409963 163.69964379 21.62087875 139.44445719 29 107 C29.24621094 105.93910156 29.49242187 104.87820312 29.74609375 103.78515625 C35.19274857 75.19960925 28.98714564 42.38039709 13 18 C10.52477598 14.49657698 7.89986422 11.13703811 5.19921875 7.8046875 C3.22602432 5.28825126 1.57269373 2.77893455 0 0 Z " fill="#7095B4" transform="translate(305,145)"/>
<path d="M0 0 C6.15182432 4.3956807 10.75926521 10.10716489 12.2578125 17.61328125 C13.17165262 25.20957723 12.32056429 32.03445529 8.2578125 38.61328125 C2.77409308 44.94810839 -3.03258805 48.85658735 -11.3359375 49.95703125 C-18.48945714 50.35891438 -23.90829514 48.77896968 -29.7421875 44.61328125 C-35.67245487 39.20948653 -39.26452622 34.40100249 -40.078125 26.24609375 C-40.18546117 16.60730577 -39.01698381 11.00186438 -32.5546875 3.86328125 C-23.28293995 -4.72094265 -11.0745231 -6.32066833 0 0 Z " fill="#FDFDFE" transform="translate(234.7421875,169.38671875)"/>
</svg>
